<?xml version="1.0" encoding="utf-8"?>
<!-- Generator: Adobe Illustrator 19.2.0, SVG Export Plug-In . SVG Version: 6.00 Build 0)  -->
<!DOCTYPE svg PUBLIC "-//W3C//DTD SVG 1.1//EN" "http://www.w3.org/Graphics/SVG/1.1/DTD/svg11.dtd">
<svg version="1.1" id="Layer_1" xmlns="http://www.w3.org/2000/svg" xmlns:xlink="http://www.w3.org/1999/xlink" x="0px" y="0px"
	 viewBox="0 0 88.1 86.9" enable-background="new 0 0 88.1 86.9" xml:space="preserve">
<circle fill="#F3889B" cx="43.4" cy="43.4" r="43.4"/>
<path fill="#FBD4D4" d="M30,17c-7.5,9.5-19.8,14.8-29.1,17.5c-0.6,2.9-0.9,5.9-0.9,9c0,24,19.4,43.4,43.4,43.4s43.4-19.4,43.4-43.4
	C47,41.8,30,17,30,17z"/>
<g>
	<path fill="none" stroke="#FBD4D4" stroke-width="1.92" stroke-linecap="round" stroke-miterlimit="10" d="M35.2,13.5
		c0,0,17.5,18.2,39.9,19.9"/>
	<path fill="none" stroke="#FBD4D4" stroke-width="1.92" stroke-linecap="round" stroke-miterlimit="10" d="M40.7,6.2
		c0,0,12.3,14.1,28.9,16"/>
	<path fill="none" stroke="#FBD4D4" stroke-width="1.92" stroke-linecap="round" stroke-miterlimit="10" d="M11.7,23.5
		c0,0,7.4-2.9,11.5-9.3"/>
</g>
<g>
	
		<polyline fill="none" stroke="#F3889B" stroke-width="2.88" stroke-linecap="round" stroke-linejoin="round" stroke-miterlimit="10" points="
		36.3,45.8 28.7,34.7 21,45.8 	"/>
	
		<polyline fill="none" stroke="#F3889B" stroke-width="2.88" stroke-linecap="round" stroke-linejoin="round" stroke-miterlimit="10" points="
		65.9,45.8 58.2,34.7 50.5,45.8 	"/>
</g>
<path fill="#F3889B" d="M55.1,54.3l-23.4,0.2c-1.2,2.4-1.8,5.1-1.8,8.1c0,8.9,6.1,16.1,13.5,16.1S57,71.4,57,62.5
	C57,59.5,56.3,56.7,55.1,54.3"/>
<path fill="#F3889B" d="M82.4,54.3c-2.4,0-4.4,1.4-5.3,3.4c-0.9-2-2.9-3.4-5.3-3.4c-1.8,0-3.5,0.8-4.6,2.3c-1.2,1.6-1.4,4-0.7,5.9
	c1,2.6,3.7,7.5,10.6,13.4C84,70,86.6,65.2,87.6,62.5C89.1,58.7,86.6,54.3,82.4,54.3z"/>
</svg>
