<?xml version="1.0" encoding="utf-8"?>
<!-- Generator: Adobe Illustrator 19.2.0, SVG Export Plug-In . SVG Version: 6.00 Build 0)  -->
<!DOCTYPE svg PUBLIC "-//W3C//DTD SVG 1.1//EN" "http://www.w3.org/Graphics/SVG/1.1/DTD/svg11.dtd">
<svg version="1.1" id="Layer_1" xmlns="http://www.w3.org/2000/svg" xmlns:xlink="http://www.w3.org/1999/xlink" x="0px" y="0px"
	 viewBox="0 0 83.3 83.3" enable-background="new 0 0 83.3 83.3" xml:space="preserve">
<circle fill="#EF6283" cx="41.6" cy="41.6" r="41.6"/>
<g>
	<ellipse fill="#F3889B" cx="42.5" cy="48.3" rx="14.4" ry="19.5"/>
	<path fill="#F7A6AC" d="M50.5,33.4c0,1.2-3.4,3.3-3.4,3.3c5,2.8,3.3,7.5,2.3,9.3c-0.7-0.5-1.5-0.8-2.3-0.8c-2.7,0-5,2.9-5,6.4
		c0,2.6,1.2,4.8,2.9,5.8l0,0c1.3,1.2,12.3,4.1,14.2-8S50.5,32.2,50.5,33.4z"/>
	<path fill="#F7A6AC" d="M33.1,33.4c0,1.2,3.4,3.3,3.4,3.3c-5,2.8-3.3,7.5-2.3,9.3c0.7-0.5,1.5-0.8,2.3-0.8c2.7,0,5,2.9,5,6.4
		c0,2.6-1.2,4.8-2.9,5.8l0,0c-1.3,1.2-12.3,4.1-14.2-8S33.1,32.2,33.1,33.4z"/>
	
		<ellipse transform="matrix(0.9045 -0.4265 0.4265 0.9045 -23.7161 18.5318)" fill="#F7A6AC" cx="29.5" cy="62.2" rx="6.9" ry="8.9"/>
	<ellipse transform="matrix(0.338 -0.9411 0.9411 0.338 -22.4841 91.244)" fill="#F7A6AC" cx="53.6" cy="61.6" rx="8.9" ry="6.9"/>
	
		<ellipse transform="matrix(0.6497 -0.7602 0.7602 0.6497 -3.3141 31.7824)" fill="#F7A6AC" cx="32.8" cy="19.5" rx="3.2" ry="3.4"/>
	
		<ellipse transform="matrix(0.7602 -0.6497 0.6497 0.7602 -0.6184 37.2995)" fill="#F7A6AC" cx="50.2" cy="19.5" rx="3.4" ry="3.2"/>
	<ellipse fill="#F7A6AC" cx="41.5" cy="29.1" rx="12" ry="12.6"/>
	<g>
		<ellipse fill="#EF6283" cx="39.7" cy="28.2" rx="1.1" ry="1.6"/>
		<ellipse fill="#EF6283" cx="43.9" cy="28.2" rx="1.1" ry="1.6"/>
		<ellipse fill="#EF6283" cx="41.8" cy="32.5" rx="3.1" ry="1.9"/>
	</g>
	<path fill="#EF6283" d="M29.5,59.5c-0.7,0.4-1,1.1-1,1.8c-0.6-0.4-1.4-0.5-2-0.2c-0.5,0.3-0.9,0.8-1,1.4c-0.1,0.6,0.2,1.4,0.7,1.8
		c0.7,0.6,2.2,1.6,5.1,2.3c1.1-2.7,1.1-4.5,1-5.4C32.1,59.7,30.7,58.8,29.5,59.5z"/>
	<path fill="#EF6283" d="M55.8,60.5c-0.7-0.2-1.5,0-2,0.5c-0.1-0.7-0.6-1.3-1.3-1.6c-0.6-0.2-1.2-0.1-1.7,0.3
		c-0.5,0.4-0.8,1.1-0.8,1.8c0.1,0.9,0.4,2.7,2,5.2c2.7-1.1,4-2.4,4.6-3.1C57.5,62.6,57.2,60.9,55.8,60.5z"/>
</g>
</svg>
