<?xml version="1.0" encoding="utf-8"?>
<!-- Generator: Adobe Illustrator 19.2.0, SVG Export Plug-In . SVG Version: 6.00 Build 0)  -->
<!DOCTYPE svg PUBLIC "-//W3C//DTD SVG 1.1//EN" "http://www.w3.org/Graphics/SVG/1.1/DTD/svg11.dtd">
<svg version="1.1" id="Layer_1" xmlns="http://www.w3.org/2000/svg" xmlns:xlink="http://www.w3.org/1999/xlink" x="0px" y="0px"
	 viewBox="0 0 83.3 83.3" enable-background="new 0 0 83.3 83.3" xml:space="preserve">
<circle fill="#EF6283" cx="41.6" cy="41.6" r="41.6"/>
<g>
	<g>
		<path fill="#F7A6AC" d="M46,22.1l-5.7,4.6l4.1,2.5l-5.8,6.3l1.9-4.5l-4.3-3l3.7-6.6c-5,0.2-9.5,2.1-12.9,5.3l10,10
			c1.1-0.7,2.4-1.2,3.8-1.2c1.6,0,3.1,0.6,4.2,1.5l10-10C52.5,24.7,49.4,23,46,22.1z"/>
		<path fill="#F3889B" d="M20.1,42.1c0,5.5,2.2,10.5,5.7,14.2l10-10c-0.9-1.1-1.5-2.6-1.5-4.2c0-2.2,1.1-4.2,2.8-5.4l-10-10
			C22.8,30.5,20.1,36,20.1,42.1z"/>
		<path fill="#F3889B" d="M55,27.1l-10,10c1.5,1.2,2.4,3,2.4,5.1c0,1.4-0.4,2.7-1.2,3.8l10,10c3.3-3.7,5.3-8.5,5.3-13.8
			C61.5,36.2,59,30.8,55,27.1z"/>
		<path fill="#F7A6AC" d="M46.2,45.9c-1.2,1.7-3.2,2.8-5.4,2.8c-2,0-3.9-0.9-5.1-2.4l-10,10c3.8,4,9.1,6.5,15,6.5
			c6.1,0,11.6-2.7,15.4-6.9L46.2,45.9z"/>
		<path fill="#FBD4D4" d="M41.3,35.1c-0.9,0-1.8,0.2-2.6,0.5l0,0l0,0c-2.6,1-4.5,3.6-4.5,6.6c0,3.9,3.2,7.1,7.1,7.1
			c3.9,0,7.1-3.2,7.1-7.1C48.4,38.2,45.2,35.1,41.3,35.1z M41.3,45.7c-2,0-3.5-1.6-3.5-3.5c0-2,1.6-3.5,3.5-3.5c2,0,3.5,1.6,3.5,3.5
			C44.8,44.1,43.2,45.7,41.3,45.7z"/>
	</g>
	<path fill="#FBD4D4" d="M55.9,34.7c1.5,3.8,2.3,6.9,2.5,8.2c-0.3-0.9-1.3-1.6-2.5-1.6c-1.5,0-2.7,1-2.7,2.3s1.2,2.3,2.7,2.3
		c0.6,0,1.1-0.2,1.5-0.4l0,0c0,0,0.1-0.1,0.1-0.1c0.5-0.3,0.8-0.8,1-1.3c1-2.7-0.4-7.4-0.4-7.4c1.7,0.5,3.8-0.5,3.8-0.5v-2.7
		C60.3,34.5,55.9,34.7,55.9,34.7z"/>
	<path fill="#FBD4D4" d="M62.8,18.6c1.5,3.8,2.3,6.9,2.5,8.2c-0.3-0.9-1.3-1.6-2.5-1.6c-1.5,0-2.7,1-2.7,2.3c0,1.3,1.2,2.3,2.7,2.3
		c0.6,0,1.1-0.2,1.5-0.4l0,0c0,0,0.1-0.1,0.1-0.1c0.5-0.3,0.8-0.8,1-1.3c1-2.7-0.4-7.4-0.4-7.4c1.7,0.5,3.8-0.5,3.8-0.5v-2.7
		C67.2,18.5,62.8,18.6,62.8,18.6z"/>
	<path fill="#FBD4D4" d="M69.2,28.7c1.5,3.8,2.3,6.9,2.5,8.2c-0.3-0.9-1.3-1.6-2.5-1.6c-1.5,0-2.7,1-2.7,2.3c0,1.3,1.2,2.3,2.7,2.3
		c0.6,0,1.1-0.2,1.5-0.4l0,0c0,0,0.1-0.1,0.1-0.1c0.5-0.3,0.8-0.8,1-1.3c1-2.7-0.4-7.4-0.4-7.4c1.7,0.5,3.8-0.5,3.8-0.5v-2.7
		C73.6,28.6,69.2,28.7,69.2,28.7z"/>
</g>
</svg>
