<?xml version="1.0" encoding="utf-8"?>
<!-- Generator: Adobe Illustrator 19.2.0, SVG Export Plug-In . SVG Version: 6.00 Build 0)  -->
<!DOCTYPE svg PUBLIC "-//W3C//DTD SVG 1.1//EN" "http://www.w3.org/Graphics/SVG/1.1/DTD/svg11.dtd">
<svg version="1.1" id="Layer_1" xmlns="http://www.w3.org/2000/svg" xmlns:xlink="http://www.w3.org/1999/xlink" x="0px" y="0px"
	 viewBox="0 0 83.3 83.3" enable-background="new 0 0 83.3 83.3" xml:space="preserve">
<circle fill="#EF6283" cx="41.6" cy="41.6" r="41.6"/>
<polygon fill="#EF6283" points="23.9,34.5 23.9,48.2 30.9,34.5 "/>
<polygon fill="#EF6283" points="23.9,48.2 23.9,49.4 24,49.4 31.5,34.5 30.9,34.5 "/>
<polygon fill="#EF6283" points="34,34.5 26.5,49.4 27.1,49.4 34.6,34.5 "/>
<path fill="#F7A6AC" d="M68.5,39.6c-2.2,0-4-1.8-4-4c0-0.4,0.1-0.7,0.1-1.1h-30l-7.5,14.9h43.3V39.1C69.8,39.4,69.2,39.6,68.5,39.6z
	"/>
<polygon fill="#EF6283" points="31.5,34.5 24,49.4 26.5,49.4 34,34.5 "/>
<polygon fill="#F3889B" points="11.5,36.5 14.3,38.2 11.5,39.9 14.4,41.6 11.5,43.4 14.3,45.1 11.5,46.8 15.8,49.4 15.8,46 
	15.8,44.2 15.8,42.5 15.8,40.8 15.8,39.1 15.8,37.3 15.8,33.9 "/>
<rect x="60.7" y="42.3" fill="#F3889B" width="7.5" height="4.8"/>
<rect x="52.1" y="42.3" fill="#F3889B" width="7.5" height="4.8"/>
<rect x="52.1" y="36.2" fill="#F3889B" width="7.5" height="4.8"/>
<polygon fill="#F3889B" points="32.6,32.2 23.1,51.1 25.6,51.1 35.2,32.2 "/>
<polygon fill="#FBD4D4" points="35.2,32.2 25.6,51.1 26.2,51.1 35.8,32.2 "/>
<path fill="#F7A6AC" d="M50.7,32.2h-15l-9.5,18.9h41.9c2,0,3.6-1.6,3.6-3.6C51.8,45.5,50.7,32.2,50.7,32.2z"/>
<path fill="#F7A6AC" d="M18.9,32.2c-2,0-3.6,1.6-3.6,3.6v11.6c0,2,1.6,3.6,3.6,3.6h3.5L32,32.2H18.9z"/>
<polygon fill="#FBD4D4" points="32.6,32.2 32,32.2 22.5,51.1 23.1,51.1 "/>
<polygon fill="#F3889B" points="47.5,32.2 38,51.1 40.5,51.1 50,32.2 "/>
<polygon fill="#FBD4D4" points="47.5,32.2 46.8,32.2 37.3,51.1 38,51.1 "/>
<polygon fill="#FBD4D4" points="50.7,32.2 50,32.2 40.5,51.1 41.2,51.1 "/>
<path fill="#F3889B" d="M64.5,36.2h-3.8V41h7.5v-1.5C66.3,39.4,64.8,38,64.5,36.2z"/>
<path fill="#FBD4D4" d="M50.7,32.2h-8.1c0,0,1.6,1.1,2.6,3c0.8,1.6-3.9,2.2-4.7,2.6c-0.3,0.2-0.7,0.5-0.6,0.8c0,0.2,0.1,0.3,0.3,0.4
	c0.9,0.9,2.3,1.2,3.5,1.5c0.7,0.2,2.2,0.2,2.8,0.7c2.2,1.6-2.1,2.8-1.5,3.7c1,1.5,4.4,1.1,5.9,1c1.7-0.1,3.5-0.1,4.8,1.1
	c0.6,0.5,1.1,1.1,1.8,1.5c1.8,1,4.4,0.7,6.4,0.5c1.2-0.1,2.4-0.3,3.6-0.6c1.1-0.2,3.3-1.3,4.4-1C71.8,47.4,52.7,43.9,50.7,32.2z"/>
</svg>
