<?xml version="1.0" encoding="utf-8"?>
<!-- Generator: Adobe Illustrator 19.2.0, SVG Export Plug-In . SVG Version: 6.00 Build 0)  -->
<!DOCTYPE svg PUBLIC "-//W3C//DTD SVG 1.1//EN" "http://www.w3.org/Graphics/SVG/1.1/DTD/svg11.dtd">
<svg version="1.1" id="Layer_1" xmlns="http://www.w3.org/2000/svg" xmlns:xlink="http://www.w3.org/1999/xlink" x="0px" y="0px"
	 viewBox="0 0 467.9 460.5" enable-background="new 0 0 467.9 460.5" xml:space="preserve">
<path fill="#F1738E" stroke="#A11D21" stroke-width="10" stroke-linecap="round" stroke-linejoin="round" stroke-miterlimit="10" d="
	M344.2,5C295.1,5,253,34.2,233.9,76.1C214.8,34.2,172.7,5,123.6,5c-38,0-73.8,17.5-95.9,48.6c-24.2,34-29.1,84.2-14.3,123.1
	c21,55.1,76.4,156.8,220.4,278.8c144-122,199.4-223.6,220.4-278.8C484.6,97.2,432.5,5,344.2,5z"/>
<path fill="#F3889B" d="M30.8,57.2C8.2,89,2.6,137.7,17.1,175.6c9.4,24.7,28,64.4,63.5,113.2c39,53.8,90.2,107.9,152.3,160.8
	l4.5-3.9c-53.8-47.9-98.8-96.7-134.1-145.3c-29-39.9-50.7-78.8-64.7-115.5C22.7,143.3,28.7,92,53.5,57.1C69.7,34.3,93.8,18,121,10.8
	C84.8,11.3,51.1,28.6,30.8,57.2z"/>
<path fill="#F2D2B6" d="M128.9,111.7l-4.7,5.6l3.1,6.6l-6,4.2l1.3,7.1l-6.9,2.5l-0.6,7.3l-7.3,0.6l-2.5,6.9l-7.2-1.3l-4.2,6
	l-6.6-3.1l-5.6,4.7l-5.5-4.7l-6.7,3.1l-4.1-6l-7.2,1.3l-2.5-6.9l-7.3-0.6l-0.6-7.3l-6.9-2.5l1.3-7.1l-6-4.2l3.1-6.6l-4.7-5.6
	l4.7-5.6l-3.1-6.6l6-4.2l-1.3-7.2l6.9-2.5l0.6-7.3l7.3-0.6l2.5-6.9l7.2,1.3l4.1-6l6.7,3.1l5.5-4.7l5.6,4.7l6.6-3.1l4.2,6l7.2-1.3
	l2.5,6.9l7.3,0.6l0.6,7.3l6.9,2.5l-1.3,7.2l6,4.2l-3.1,6.6L128.9,111.7z M229.5,111.7l-4.7,5.6l3.1,6.6l-5.9,4.2l1.2,7.1l-6.8,2.5
	l-0.7,7.3l-7.2,0.6l-2.5,6.9l-7.2-1.3l-4.2,6l-6.6-3.1l-5.6,4.7l-5.6-4.7l-6.6,3.1l-4.2-6l-7.2,1.3l-2.5-6.9l-7.2-0.6l-0.7-7.3
	l-6.8-2.5l1.2-7.1l-5.9-4.2l3-6.6l-4.6-5.6l4.6-5.6l-3-6.6l5.9-4.2l-1.2-7.2l6.8-2.5l0.7-7.3l7.2-0.6l2.5-6.9l7.2,1.3l4.2-6l6.6,3.1
	l5.6-4.7l5.6,4.7l6.6-3.1l4.2,6l7.2-1.3l2.5,6.9l7.2,0.6l0.7,7.3l6.8,2.5l-1.2,7.2l5.9,4.2l-3.1,6.6L229.5,111.7z M233.3,235.8
	l-7.3,8.7l4.8,10.4l-9.3,6.5l2,11.3l-10.8,3.9l-1,11.3l-11.3,1l-3.9,10.8l-11.3-2l-6.5,9.3l-10.4-4.8l-8.7,7.3l-8.8-7.3l-10.3,4.8
	l-6.6-9.3l-11.2,2l-3.9-10.8l-11.4-1l-1-11.3l-10.7-3.9l2-11.3l-9.4-6.5l4.9-10.4l-7.4-8.7l7.4-8.8l-4.9-10.3l9.4-6.6l-2-11.2
	l10.7-3.9l1-11.4l11.4-1l3.9-10.7l11.3,2l6.5-9.4l10.3,4.9l8.8-7.4l8.7,7.4l10.4-4.9l6.5,9.4l11.3-2l3.9,10.7l11.3,1l1,11.4
	l10.8,3.9l-2,11.2l9.3,6.6L226,227L233.3,235.8z M278.1,348.1l-4.3,5.2l2.8,6.2l-5.5,3.9l1.1,6.7l-6.4,2.4l-0.6,6.8l-6.8,0.6
	l-2.3,6.4l-6.7-1.2l-3.9,5.6l-6.2-2.9l-5.2,4.4l-5.3-4.4l-6.2,2.9l-3.9-5.6l-6.7,1.2l-2.3-6.4l-6.8-0.6l-0.6-6.8l-6.4-2.4l1.1-6.7
	l-5.5-3.9l2.8-6.2l-4.3-5.2l4.3-5.2l-2.8-6.2l5.5-3.9l-1.1-6.7l6.4-2.4l0.6-6.8l6.8-0.6l2.3-6.4l6.7,1.2l3.9-5.6l6.2,2.9l5.3-4.4
	l5.2,4.4l6.2-2.9l3.9,5.6l6.7-1.2l2.3,6.4l6.8,0.6l0.6,6.8l6.4,2.4l-1.1,6.7l5.5,3.9l-2.8,6.2L278.1,348.1z"/>
<circle fill="#733717" cx="81.7" cy="111.7" r="41.5"/>
<g enable-background="new    ">
	<path fill="#FBD4D4" d="M78.9,83.1v18.5c0,3.4-0.8,6-2.3,7.8c-1.5,1.8-3.8,2.7-6.7,2.7c-2.8,0-5-0.9-6.5-2.7s-2.2-4.4-2.2-7.9V83.1
		h5.3v18.8c0,3.6,1.2,5.4,3.6,5.4c1.1,0,2-0.5,2.6-1.4c0.6-0.9,0.9-2.2,0.9-3.9V83.1H78.9z"/>
	<path fill="#FBD4D4" d="M101.6,111.7h-5.7l-4.7-12.2l-2.1,2.1v10.1h-5.3V83.1h5.3v14.2L91,93l4.9-9.9h5.7l-6.6,12.4L101.6,111.7z"
		/>
</g>
<g enable-background="new    ">
	<path fill="#FBD4D4" d="M60.9,128.5c0,1.2-0.3,2.1-1,2.9c-0.7,0.7-1.6,1.1-2.9,1.3v2.3h-1.3v-2.3c-1.4,0-2.7-0.4-3.8-0.9V129
		c0.6,0.4,1.2,0.6,1.9,0.9s1.3,0.4,1.9,0.4v-3.8l-0.4-0.2c-1.3-0.6-2.2-1.2-2.7-1.9c-0.5-0.6-0.8-1.5-0.8-2.4c0-1.1,0.3-2,1-2.7
		c0.7-0.7,1.6-1.1,2.8-1.2v-1.8h1.3v1.8c1.2,0.1,2.3,0.4,3.5,1l-0.9,2.4c-1-0.5-1.8-0.7-2.6-0.8v3.6c0.2,0.1,0.3,0.1,0.3,0.2
		c1,0.4,1.7,0.8,2.1,1.2s0.8,0.8,1,1.3S60.9,127.9,60.9,128.5z M54.6,121.9c0,0.4,0.1,0.7,0.3,0.9c0.2,0.2,0.5,0.4,0.9,0.6v-2.9
		C55,120.7,54.6,121.1,54.6,121.9z M58.3,128.6c0-0.3-0.1-0.6-0.2-0.8c-0.1-0.2-0.5-0.5-1-0.7v3.1C57.9,130,58.3,129.5,58.3,128.6z"
		/>
	<path fill="#FBD4D4" d="M62.6,126.7c0-3.3,0.5-5.8,1.6-7.3s2.6-2.3,4.8-2.3c0.3,0,0.7,0,1,0.1s0.6,0.1,0.8,0.1v2.5
		c-0.5-0.1-1-0.2-1.5-0.2c-0.9,0-1.6,0.2-2.1,0.6c-0.5,0.4-1,0.9-1.2,1.7s-0.5,1.8-0.5,3.1h0.1c0.3-0.6,0.6-1.1,1.1-1.4
		s1-0.5,1.6-0.5c1.1,0,2,0.4,2.6,1.3s0.9,2.2,0.9,3.8c0,1.7-0.4,3.1-1.2,4.1s-1.9,1.5-3.3,1.5c-1.5,0-2.6-0.6-3.3-1.8
		C63,130.9,62.6,129.1,62.6,126.7z M67.1,131.3c0.4,0,0.8-0.2,1.1-0.7c0.3-0.5,0.4-1.3,0.4-2.3c0-0.8-0.1-1.5-0.4-2
		c-0.2-0.5-0.6-0.7-1.1-0.7c-0.4,0-0.8,0.2-1.1,0.7s-0.4,1-0.4,1.7c0,1.1,0.1,1.9,0.4,2.5C66.3,131,66.6,131.3,67.1,131.3z"/>
	<path fill="#FBD4D4" d="M73.2,126.7c0-3.3,0.5-5.8,1.6-7.3s2.6-2.3,4.8-2.3c0.3,0,0.7,0,1,0.1s0.6,0.1,0.8,0.1v2.5
		c-0.5-0.1-1-0.2-1.5-0.2c-0.9,0-1.6,0.2-2.1,0.6c-0.5,0.4-1,0.9-1.2,1.7s-0.5,1.8-0.5,3.1h0.1c0.3-0.6,0.6-1.1,1.1-1.4
		s1-0.5,1.6-0.5c1.1,0,2,0.4,2.6,1.3s0.9,2.2,0.9,3.8c0,1.7-0.4,3.1-1.2,4.1s-1.9,1.5-3.3,1.5c-1.5,0-2.6-0.6-3.3-1.8
		C73.6,130.9,73.2,129.1,73.2,126.7z M77.7,131.3c0.4,0,0.8-0.2,1.1-0.7c0.3-0.5,0.4-1.3,0.4-2.3c0-0.8-0.1-1.5-0.4-2
		c-0.2-0.5-0.6-0.7-1.1-0.7c-0.4,0-0.8,0.2-1.1,0.7s-0.4,1-0.4,1.7c0,1.1,0.1,1.9,0.4,2.5C76.9,131,77.3,131.3,77.7,131.3z"/>
</g>
<g enable-background="new    ">
	<path fill="#FBD4D4" d="M94.1,123.1v6.8c0,1.3-0.3,2.2-0.9,2.9c-0.6,0.7-1.4,1-2.5,1c-1,0-1.8-0.3-2.4-1c-0.5-0.7-0.8-1.6-0.8-2.9
		v-6.8h2v6.9c0,1.3,0.4,2,1.3,2c0.4,0,0.7-0.2,1-0.5c0.2-0.3,0.3-0.8,0.3-1.5v-7H94.1z"/>
	<path fill="#FBD4D4" d="M100.7,130.8c0,1-0.2,1.7-0.7,2.3c-0.5,0.5-1.2,0.8-2.2,0.8c-0.9,0-1.7-0.2-2.3-0.5v-1.9
		c0.8,0.5,1.5,0.8,2.2,0.8c0.4,0,0.7-0.1,0.8-0.3c0.2-0.2,0.3-0.5,0.3-0.8c0-0.4-0.1-0.7-0.3-1c-0.2-0.3-0.6-0.6-1.1-1
		c-0.5-0.3-0.8-0.6-1-0.9c-0.2-0.3-0.4-0.6-0.5-1c-0.1-0.4-0.2-0.8-0.2-1.2c0-0.9,0.3-1.6,0.8-2.2c0.5-0.5,1.2-0.8,2-0.8
		c0.8,0,1.6,0.2,2.3,0.7l-0.6,1.6c-0.2-0.1-0.5-0.3-0.7-0.4c-0.3-0.1-0.5-0.2-0.8-0.2c-0.3,0-0.6,0.1-0.7,0.3
		c-0.2,0.2-0.3,0.5-0.3,0.9c0,0.4,0.1,0.7,0.3,0.9c0.2,0.3,0.6,0.6,1.1,0.9c0.7,0.5,1.2,0.9,1.4,1.4S100.7,130.1,100.7,130.8z"/>
	<path fill="#FBD4D4" d="M108.7,128.3c0,1.7-0.4,3.1-1.1,4c-0.7,0.9-1.7,1.4-3.1,1.4H102v-10.6h2.8c1.2,0,2.2,0.5,2.9,1.4
		C108.4,125.4,108.7,126.6,108.7,128.3z M106.7,128.3c0-2.4-0.6-3.5-2-3.5H104v7.1h0.6c0.7,0,1.2-0.3,1.6-0.9
		C106.6,130.4,106.7,129.5,106.7,128.3z"/>
</g>
<circle fill="#985424" cx="182.4" cy="111.7" r="41.5"/>
<g enable-background="new    ">
	<path fill="#FBD4D4" d="M175.6,114.4c-1.2,0.4-2.5,0.6-4,0.6s-2.9-0.2-4-0.6c-1.2-0.4-2.1-1-2.9-1.7c-0.7-0.7-1.4-1.6-1.8-2.7
		s-0.8-2.3-1-3.5s-0.3-2.7-0.3-4.3V79.7h5v22.5c0,1.1,0,2,0.1,2.7c0,0.7,0.2,1.5,0.4,2.3s0.5,1.5,0.8,2c0.3,0.5,0.8,0.9,1.5,1.2
		c0.6,0.3,1.4,0.5,2.3,0.5s1.7-0.2,2.3-0.5c0.6-0.3,1.1-0.7,1.5-1.2c0.3-0.5,0.6-1.2,0.8-2s0.3-1.6,0.4-2.3c0-0.7,0.1-1.6,0.1-2.7
		V79.7h5v22.5c0,1.6-0.1,3-0.3,4.3s-0.5,2.5-1,3.5s-1.1,2-1.8,2.7C177.7,113.5,176.8,114,175.6,114.4z"/>
	<path fill="#FBD4D4" d="M195.4,115c-3.2,0-5.6-0.9-7.2-2.8s-2.6-4.4-2.8-7.6l5-1.2c0.2,5,1.9,7.5,5,7.5c2.5,0,3.8-1.2,3.8-3.8
		c0-0.7-0.1-1.4-0.3-2.1c-0.2-0.6-0.5-1.2-0.9-1.7c-0.4-0.5-0.8-1-1.1-1.3c-0.3-0.3-0.8-0.7-1.4-1.2l-6.2-5c-1.1-0.9-2.1-2-2.7-3.4
		s-1-3-1-4.7c0-2.6,0.8-4.6,2.4-6.2s3.7-2.3,6.4-2.3c2.8,0,5.1,0.7,6.8,2.1c1.7,1.4,2.7,3.3,3.1,5.9c0,0.3,0.1,0.7,0.1,1.1l-5,1.2
		c0-0.2,0-0.6-0.1-1c-0.2-1.6-0.7-2.9-1.5-3.8c-0.8-1-1.9-1.4-3.4-1.4c-1.2,0-2.1,0.3-2.8,1c-0.7,0.7-1,1.6-1,2.8
		c0,2,0.8,3.6,2.5,4.9l6.2,5c3.3,2.7,5,5.9,5,9.7c0,2.6-0.8,4.6-2.4,6S198.1,115,195.4,115z"/>
</g>
<g enable-background="new    ">
	<path fill="#FBD4D4" d="M160.9,129.4c0,1-0.3,1.9-0.9,2.5c-0.6,0.6-1.4,1-2.5,1.1v2h-1.1v-2c-1.2,0-2.3-0.3-3.3-0.8v-2.4
		c0.5,0.3,1.1,0.6,1.7,0.8c0.6,0.2,1.1,0.3,1.7,0.3v-3.3l-0.3-0.2c-1.1-0.5-1.9-1.1-2.3-1.6c-0.4-0.6-0.7-1.3-0.7-2.1
		c0-1,0.3-1.8,0.9-2.4c0.6-0.6,1.4-1,2.5-1.1v-1.6h1.1v1.6c1,0.1,2,0.3,3,0.8l-0.8,2.1c-0.8-0.4-1.6-0.6-2.2-0.7v3.1
		c0.2,0.1,0.3,0.1,0.3,0.1c0.8,0.4,1.4,0.7,1.9,1c0.4,0.3,0.7,0.7,0.9,1.2C160.8,128.3,160.9,128.8,160.9,129.4z M155.4,123.7
		c0,0.3,0.1,0.6,0.2,0.8c0.2,0.2,0.4,0.4,0.8,0.5v-2.6C155.7,122.5,155.4,122.9,155.4,123.7z M158.6,129.5c0-0.3-0.1-0.5-0.2-0.7
		c-0.1-0.2-0.4-0.4-0.9-0.6v2.7C158.3,130.7,158.6,130.2,158.6,129.5z"/>
	<path fill="#FBD4D4" d="M168.8,133.9h-2.6v-8.4c0-0.9,0-2,0.1-3.2c0,0.1-0.2,0.3-0.5,0.6c-0.3,0.3-0.9,0.9-1.7,1.8l-1.5-1.6
		l3.8-3.5h2.4V133.9z"/>
	<path fill="#FBD4D4" d="M179.5,126.7c0,2.6-0.3,4.5-0.9,5.6c-0.6,1.2-1.6,1.7-3,1.7s-2.4-0.6-3-1.7c-0.6-1.2-0.9-3-0.9-5.6
		c0-2.6,0.3-4.5,0.9-5.6c0.6-1.2,1.6-1.8,3-1.8c1.4,0,2.4,0.6,3,1.7C179.2,122.2,179.5,124.1,179.5,126.7z M174.3,126.7
		c0,2,0.1,3.4,0.3,4s0.5,1,1,1c0.3,0,0.6-0.2,0.8-0.5c0.2-0.3,0.3-0.8,0.4-1.5c0.1-0.7,0.1-1.7,0.1-3.1c0-2-0.1-3.3-0.3-4
		c-0.2-0.7-0.5-1.1-1-1.1c-0.5,0-0.8,0.4-1,1.1C174.4,123.4,174.3,124.7,174.3,126.7z"/>
	<path fill="#FBD4D4" d="M184.8,119.4c1.1,0,2,0.3,2.7,0.9c0.7,0.6,1,1.5,1,2.6c0,0.7-0.2,1.3-0.5,1.8c-0.3,0.5-0.8,1.1-1.6,1.6
		c0.8,0.6,1.4,1.2,1.8,1.8c0.4,0.6,0.5,1.3,0.5,2c0,1.2-0.4,2.1-1.1,2.8c-0.7,0.7-1.7,1.1-2.9,1.1c-1.2,0-2.2-0.3-2.9-1
		c-0.7-0.7-1-1.6-1-2.8c0-0.8,0.2-1.5,0.5-2.2c0.3-0.6,0.9-1.2,1.6-1.6c-0.7-0.5-1.2-1.1-1.5-1.6c-0.3-0.6-0.4-1.2-0.4-1.9
		c0-1.1,0.3-1.9,1-2.6C182.9,119.7,183.8,119.4,184.8,119.4z M183.4,130.1c0,0.6,0.1,1,0.4,1.4c0.2,0.3,0.6,0.5,1,0.5
		c0.5,0,0.8-0.2,1.1-0.5c0.2-0.3,0.4-0.8,0.4-1.4c0-0.4-0.1-0.8-0.3-1.2c-0.2-0.4-0.6-0.8-1.1-1.3l-0.1-0.1c-0.4,0.3-0.7,0.7-1,1.1
		S183.4,129.5,183.4,130.1z M184.8,121.4c-0.4,0-0.7,0.1-0.8,0.4c-0.2,0.3-0.3,0.7-0.3,1.2c0,0.4,0.1,0.8,0.2,1.1
		c0.2,0.3,0.5,0.7,0.9,1c0.4-0.3,0.7-0.7,0.9-1c0.2-0.3,0.2-0.7,0.2-1.1C186,122,185.6,121.4,184.8,121.4z"/>
</g>
<g enable-background="new    ">
	<path fill="#FBD4D4" d="M199.1,124.7v6c0,1.1-0.2,1.9-0.7,2.5s-1.2,0.9-2.1,0.9c-0.9,0-1.6-0.3-2.1-0.9c-0.5-0.6-0.7-1.4-0.7-2.5
		v-5.9h1.7v6.1c0,1.2,0.4,1.8,1.2,1.8c0.4,0,0.6-0.1,0.8-0.4s0.3-0.7,0.3-1.3v-6.1H199.1z"/>
	<path fill="#FBD4D4" d="M204.9,131.3c0,0.9-0.2,1.5-0.7,2c-0.4,0.5-1.1,0.7-1.9,0.7c-0.8,0-1.5-0.2-2-0.5v-1.7
		c0.7,0.4,1.3,0.7,1.9,0.7c0.3,0,0.6-0.1,0.7-0.3c0.2-0.2,0.2-0.4,0.2-0.7c0-0.3-0.1-0.6-0.3-0.8s-0.5-0.5-1-0.8
		c-0.4-0.3-0.7-0.5-0.9-0.8c-0.2-0.2-0.4-0.5-0.5-0.8c-0.1-0.3-0.2-0.7-0.2-1.1c0-0.8,0.2-1.4,0.7-1.9s1-0.7,1.8-0.7
		c0.7,0,1.4,0.2,2,0.6l-0.6,1.4c-0.2-0.1-0.4-0.2-0.6-0.3c-0.2-0.1-0.5-0.1-0.7-0.1c-0.3,0-0.5,0.1-0.6,0.3s-0.2,0.4-0.2,0.7
		c0,0.3,0.1,0.6,0.3,0.8c0.2,0.2,0.5,0.5,0.9,0.8c0.6,0.4,1,0.8,1.3,1.2C204.8,130.3,204.9,130.8,204.9,131.3z"/>
	<path fill="#FBD4D4" d="M211.9,129.2c0,1.5-0.3,2.7-0.9,3.5c-0.6,0.8-1.5,1.2-2.7,1.2H206v-9.2h2.5c1.1,0,1.9,0.4,2.5,1.2
		S211.9,127.8,211.9,129.2z M210.1,129.2c0-2.1-0.6-3.1-1.7-3.1h-0.7v6.2h0.6c0.6,0,1.1-0.3,1.4-0.8S210.1,130.3,210.1,129.2z"/>
</g>
<circle fill="#733717" cx="159.6" cy="235.8" r="65.5"/>
<g enable-background="new    ">
	<path fill="#FBD4D4" d="M122.9,246.1c0,0.6-0.2,1.2-0.5,1.5c-0.4,0.4-0.9,0.6-1.5,0.7v1.3h-0.7v-1.2c-0.8,0-1.5-0.2-2.1-0.5v-1.5
		c0.3,0.2,0.7,0.3,1,0.5c0.4,0.1,0.7,0.2,1,0.2v-2l-0.2-0.1c-0.7-0.3-1.2-0.7-1.4-1c-0.3-0.3-0.4-0.8-0.4-1.3c0-0.6,0.2-1.1,0.5-1.5
		s0.9-0.6,1.5-0.7v-1h0.7v1c0.6,0,1.2,0.2,1.9,0.5l-0.5,1.3c-0.5-0.2-1-0.4-1.4-0.4v1.9c0.1,0,0.2,0.1,0.2,0.1
		c0.5,0.2,0.9,0.4,1.1,0.6c0.3,0.2,0.4,0.4,0.6,0.7C122.8,245.4,122.9,245.7,122.9,246.1z M119.5,242.5c0,0.2,0,0.4,0.1,0.5
		s0.3,0.2,0.5,0.3v-1.6C119.7,241.8,119.5,242.1,119.5,242.5z M121.5,246.1c0-0.2,0-0.3-0.1-0.5c-0.1-0.1-0.3-0.2-0.5-0.4v1.7
		C121.2,246.9,121.5,246.6,121.5,246.1z"/>
	<path fill="#FBD4D4" d="M127.7,248.8h-1.6v-5.2c0-0.6,0-1.2,0.1-1.9c0,0-0.1,0.2-0.3,0.4c-0.2,0.2-0.5,0.6-1,1.1l-0.9-1l2.4-2.2
		h1.5V248.8z"/>
	<path fill="#FBD4D4" d="M134.3,244.4c0,1.6-0.2,2.8-0.6,3.5c-0.4,0.7-1,1.1-1.9,1.1s-1.5-0.4-1.8-1.1c-0.4-0.7-0.6-1.9-0.6-3.5
		c0-1.6,0.2-2.8,0.6-3.5s1-1.1,1.8-1.1c0.9,0,1.5,0.4,1.8,1.1C134.2,241.6,134.3,242.8,134.3,244.4z M131.2,244.4
		c0,1.2,0.1,2.1,0.2,2.5c0.1,0.4,0.3,0.6,0.6,0.6c0.2,0,0.4-0.1,0.5-0.3s0.2-0.5,0.2-0.9s0.1-1.1,0.1-1.9c0-1.2-0.1-2-0.2-2.5
		s-0.3-0.7-0.6-0.7c-0.3,0-0.5,0.2-0.6,0.7S131.2,243.2,131.2,244.4z"/>
	<path fill="#FBD4D4" d="M135.5,248c0-0.3,0.1-0.6,0.3-0.7c0.2-0.2,0.4-0.3,0.7-0.3s0.6,0.1,0.8,0.3c0.2,0.2,0.3,0.4,0.3,0.7
		c0,0.3-0.1,0.6-0.3,0.7c-0.2,0.2-0.4,0.3-0.7,0.3c-0.3,0-0.6-0.1-0.7-0.3C135.6,248.6,135.5,248.3,135.5,248z"/>
	<path fill="#FBD4D4" d="M141.2,243.3c0.7,0,1.2,0.2,1.6,0.7s0.6,1.1,0.6,1.9c0,1-0.2,1.7-0.7,2.2c-0.5,0.5-1.2,0.8-2,0.8
		c-0.8,0-1.4-0.1-1.9-0.4V247c0.2,0.1,0.5,0.3,0.8,0.4c0.3,0.1,0.6,0.2,0.9,0.2c0.9,0,1.3-0.5,1.3-1.5c0-0.9-0.4-1.4-1.3-1.4
		c-0.3,0-0.7,0.1-1.1,0.2l-0.5-0.4l0.3-4.4h3.8v1.5h-2.4l-0.1,1.9C140.6,243.3,140.9,243.3,141.2,243.3z"/>
	<path fill="#FBD4D4" d="M150.7,242c0.6,0,1.1,0.3,1.4,0.9c0.4,0.6,0.5,1.5,0.5,2.6c0,1.1-0.2,2-0.5,2.6c-0.4,0.6-0.8,0.9-1.5,0.9
		c-0.3,0-0.6-0.1-0.8-0.2c-0.2-0.1-0.5-0.4-0.7-0.7h-0.1l-0.3,0.8h-1.2v-9.4h1.6v2.2c0,0.1,0,0.2,0,0.3c0,0.1,0,0.5-0.1,1.1h0.1
		c0.2-0.4,0.4-0.6,0.6-0.8C150.1,242.1,150.4,242,150.7,242z M150.1,243.3c-0.3,0-0.5,0.1-0.7,0.4c-0.1,0.3-0.2,0.8-0.2,1.5v0.2
		c0,0.8,0.1,1.3,0.2,1.7s0.4,0.5,0.7,0.5c0.6,0,0.9-0.7,0.9-2.1C151,244,150.7,243.3,150.1,243.3z"/>
	<path fill="#FBD4D4" d="M153.7,240.3c0-0.3,0.1-0.5,0.2-0.6s0.4-0.2,0.7-0.2c0.3,0,0.5,0.1,0.6,0.2s0.2,0.4,0.2,0.6
		c0,0.3-0.1,0.5-0.2,0.6c-0.2,0.2-0.4,0.2-0.6,0.2c-0.3,0-0.5-0.1-0.6-0.2C153.8,240.8,153.7,240.6,153.7,240.3z M155.4,248.8h-1.6
		v-6.7h1.6V248.8z"/>
	<path fill="#FBD4D4" d="M158.4,248.8h-1.6v-9.4h1.6V248.8z"/>
	<path fill="#FBD4D4" d="M161.3,248.8h-1.6v-9.4h1.6V248.8z"/>
	<path fill="#FBD4D4" d="M162.6,240.3c0-0.3,0.1-0.5,0.2-0.6s0.4-0.2,0.7-0.2c0.3,0,0.5,0.1,0.6,0.2s0.2,0.4,0.2,0.6
		c0,0.3-0.1,0.5-0.2,0.6c-0.2,0.2-0.4,0.2-0.6,0.2c-0.3,0-0.5-0.1-0.6-0.2C162.7,240.8,162.6,240.6,162.6,240.3z M164.3,248.8h-1.6
		v-6.7h1.6V248.8z"/>
	<path fill="#FBD4D4" d="M170.7,245.5c0,1.1-0.2,2-0.7,2.6c-0.5,0.6-1.1,0.9-1.9,0.9c-0.5,0-1-0.1-1.4-0.4c-0.4-0.3-0.7-0.7-0.9-1.2
		s-0.3-1.1-0.3-1.9c0-1.1,0.2-1.9,0.7-2.6s1.1-0.9,1.9-0.9c0.8,0,1.4,0.3,1.9,0.9C170.4,243.5,170.7,244.4,170.7,245.5z
		 M167.1,245.5c0,0.7,0.1,1.2,0.2,1.6c0.2,0.4,0.4,0.5,0.7,0.5c0.6,0,1-0.7,1-2.1c0-0.7-0.1-1.2-0.2-1.6s-0.4-0.5-0.7-0.5
		c-0.3,0-0.6,0.2-0.7,0.5C167.2,244.2,167.1,244.8,167.1,245.5z"/>
	<path fill="#FBD4D4" d="M175.2,248.8v-4c0-0.5-0.1-0.9-0.2-1.1c-0.1-0.2-0.3-0.4-0.6-0.4c-0.3,0-0.6,0.2-0.8,0.5s-0.2,0.9-0.2,1.7
		v3.2h-1.6v-6.7h1.3l0.2,0.9h0.1c0.1-0.3,0.4-0.6,0.6-0.7c0.3-0.2,0.6-0.3,0.9-0.3c0.6,0,1.1,0.2,1.4,0.6c0.3,0.4,0.5,1,0.5,1.8v4.4
		H175.2z"/>
	<path fill="#FBD4D4" d="M178.1,243c0-0.3,0.1-0.6,0.3-0.7c0.2-0.2,0.4-0.3,0.7-0.3s0.6,0.1,0.8,0.3c0.2,0.2,0.3,0.4,0.3,0.7
		c0,0.3-0.1,0.6-0.3,0.7c-0.2,0.2-0.4,0.3-0.7,0.3c-0.3,0-0.6-0.1-0.7-0.3S178.1,243.3,178.1,243z M178.1,248c0-0.3,0.1-0.6,0.3-0.7
		c0.2-0.2,0.4-0.3,0.7-0.3s0.6,0.1,0.8,0.3c0.2,0.2,0.3,0.4,0.3,0.7c0,0.3-0.1,0.6-0.3,0.7c-0.2,0.2-0.4,0.3-0.7,0.3
		c-0.3,0-0.6-0.1-0.7-0.3C178.2,248.6,178.1,248.3,178.1,248z"/>
</g>
<g enable-background="new    ">
	<path fill="#FBD4D4" d="M122.4,259.7c0,0.8-0.2,1.5-0.6,1.9c-0.4,0.4-1,0.7-1.8,0.7c-0.8,0-1.4-0.2-2-0.5v-1.6
		c0.7,0.4,1.3,0.6,1.8,0.6c0.3,0,0.6-0.1,0.7-0.3s0.2-0.4,0.2-0.7c0-0.3-0.1-0.6-0.3-0.8s-0.5-0.5-0.9-0.8c-0.4-0.3-0.7-0.5-0.9-0.8
		c-0.2-0.2-0.3-0.5-0.5-0.8s-0.2-0.6-0.2-1c0-0.8,0.2-1.4,0.6-1.8c0.4-0.4,1-0.7,1.7-0.7c0.7,0,1.3,0.2,2,0.6l-0.5,1.3
		c-0.2-0.1-0.4-0.2-0.6-0.3c-0.2-0.1-0.4-0.1-0.7-0.1c-0.3,0-0.5,0.1-0.6,0.3s-0.2,0.4-0.2,0.7c0,0.3,0.1,0.6,0.3,0.8
		c0.2,0.2,0.5,0.5,0.9,0.8c0.6,0.4,1,0.8,1.2,1.2C122.3,258.7,122.4,259.2,122.4,259.7z"/>
	<path fill="#FBD4D4" d="M126.4,262.3c-0.3,0-0.5-0.1-0.8-0.2c-0.2-0.1-0.4-0.4-0.6-0.7h-0.1c0.1,0.5,0.1,0.9,0.1,1v2.8h-1.6v-9.7
		h1.2l0.3,0.9h0.1c0.3-0.7,0.8-1,1.5-1c0.6,0,1.1,0.3,1.4,0.9c0.3,0.6,0.5,1.5,0.5,2.6c0,1.1-0.2,1.9-0.5,2.6S127,262.3,126.4,262.3
		z M125.9,256.6c-0.3,0-0.5,0.1-0.7,0.4s-0.2,0.8-0.2,1.5v0.2c0,0.7,0.1,1.3,0.2,1.6c0.1,0.3,0.4,0.5,0.7,0.5c0.6,0,0.8-0.7,0.8-2.1
		c0-0.7-0.1-1.2-0.2-1.6C126.4,256.8,126.2,256.6,125.9,256.6z"/>
	<path fill="#FBD4D4" d="M134.5,258.8c0,1.1-0.2,2-0.7,2.6s-1.1,0.9-1.9,0.9c-0.5,0-1-0.1-1.4-0.4c-0.4-0.3-0.7-0.7-0.9-1.2
		c-0.2-0.5-0.3-1.1-0.3-1.9c0-1.1,0.2-1.9,0.7-2.6s1.1-0.9,1.9-0.9c0.8,0,1.4,0.3,1.9,0.9S134.5,257.7,134.5,258.8z M130.9,258.8
		c0,0.7,0.1,1.2,0.2,1.6c0.2,0.4,0.4,0.5,0.7,0.5c0.6,0,1-0.7,1-2.1c0-0.7-0.1-1.2-0.2-1.6c-0.2-0.3-0.4-0.5-0.7-0.5
		c-0.3,0-0.6,0.2-0.7,0.5C131,257.5,130.9,258.1,130.9,258.8z"/>
	<path fill="#FBD4D4" d="M139.3,262.1l-0.2-0.9H139c-0.1,0.3-0.4,0.5-0.6,0.7c-0.3,0.2-0.6,0.3-0.9,0.3c-0.6,0-1.1-0.2-1.4-0.6
		c-0.3-0.4-0.5-1-0.5-1.8v-4.4h1.6v4c0,0.5,0.1,0.9,0.2,1.1c0.1,0.2,0.3,0.4,0.6,0.4c0.3,0,0.6-0.2,0.8-0.5c0.2-0.3,0.2-0.9,0.2-1.7
		v-3.2h1.6v6.7H139.3z"/>
	<path fill="#FBD4D4" d="M145.6,260.2c0,0.7-0.2,1.2-0.6,1.5s-1,0.6-1.7,0.6c-0.7,0-1.2-0.1-1.7-0.4v-1.4c0.2,0.2,0.5,0.3,0.8,0.4
		c0.3,0.1,0.6,0.2,0.8,0.2c0.2,0,0.4-0.1,0.6-0.2s0.2-0.3,0.2-0.5c0-0.2-0.1-0.4-0.2-0.5c-0.1-0.2-0.4-0.3-0.8-0.6
		c-0.5-0.3-0.8-0.6-1-0.9c-0.2-0.3-0.3-0.7-0.3-1.2c0-0.6,0.2-1,0.6-1.4c0.4-0.3,0.9-0.5,1.6-0.5c0.6,0,1.2,0.2,1.7,0.5l-0.5,1.2
		c-0.4-0.2-0.8-0.3-1.1-0.3c-0.2,0-0.4,0.1-0.5,0.2c-0.1,0.1-0.2,0.2-0.2,0.4c0,0.2,0.1,0.3,0.2,0.5c0.1,0.1,0.4,0.3,0.7,0.5
		c0.4,0.3,0.7,0.5,0.9,0.6c0.2,0.2,0.3,0.4,0.4,0.6S145.6,259.9,145.6,260.2z"/>
	<path fill="#FBD4D4" d="M149.1,262.3c-0.8,0-1.5-0.3-2-0.9c-0.5-0.6-0.7-1.4-0.7-2.5c0-1.1,0.2-2,0.7-2.6s1.1-0.9,1.8-0.9
		c0.7,0,1.3,0.3,1.7,0.8c0.4,0.5,0.6,1.3,0.6,2.2v0.9H148c0,0.6,0.1,1,0.4,1.3s0.6,0.4,1,0.4c0.5,0,1.1-0.2,1.6-0.5v1.3
		C150.4,262.1,149.8,262.3,149.1,262.3z M148.8,256.5c-0.2,0-0.4,0.1-0.6,0.4c-0.1,0.2-0.2,0.6-0.3,1.1h1.6c0-0.5-0.1-0.9-0.2-1.1
		S149.1,256.5,148.8,256.5z"/>
	<path fill="#FBD4D4" d="M155.9,260.2c0,0.7-0.2,1.2-0.6,1.5s-1,0.6-1.7,0.6c-0.7,0-1.2-0.1-1.7-0.4v-1.4c0.2,0.2,0.5,0.3,0.8,0.4
		c0.3,0.1,0.6,0.2,0.8,0.2c0.2,0,0.4-0.1,0.6-0.2s0.2-0.3,0.2-0.5c0-0.2-0.1-0.4-0.2-0.5c-0.1-0.2-0.4-0.3-0.8-0.6
		c-0.5-0.3-0.8-0.6-1-0.9c-0.2-0.3-0.3-0.7-0.3-1.2c0-0.6,0.2-1,0.6-1.4c0.4-0.3,0.9-0.5,1.6-0.5c0.6,0,1.2,0.2,1.7,0.5l-0.5,1.2
		c-0.4-0.2-0.8-0.3-1.1-0.3c-0.2,0-0.4,0.1-0.5,0.2c-0.1,0.1-0.2,0.2-0.2,0.4c0,0.2,0.1,0.3,0.2,0.5c0.1,0.1,0.4,0.3,0.7,0.5
		c0.4,0.3,0.7,0.5,0.9,0.6c0.2,0.2,0.3,0.4,0.4,0.6S155.9,259.9,155.9,260.2z"/>
	<path fill="#FBD4D4" d="M161.2,253.3l-3.3,8.8h-1.5l3.3-8.8H161.2z"/>
	<path fill="#FBD4D4" d="M165.5,260.2c0,0.7-0.2,1.2-0.6,1.5s-1,0.6-1.7,0.6c-0.7,0-1.2-0.1-1.7-0.4v-1.4c0.2,0.2,0.5,0.3,0.8,0.4
		c0.3,0.1,0.6,0.2,0.8,0.2c0.2,0,0.4-0.1,0.6-0.2s0.2-0.3,0.2-0.5c0-0.2-0.1-0.4-0.2-0.5c-0.1-0.2-0.4-0.3-0.8-0.6
		c-0.5-0.3-0.8-0.6-1-0.9c-0.2-0.3-0.3-0.7-0.3-1.2c0-0.6,0.2-1,0.6-1.4c0.4-0.3,0.9-0.5,1.6-0.5c0.6,0,1.2,0.2,1.7,0.5l-0.5,1.2
		c-0.4-0.2-0.8-0.3-1.1-0.3c-0.2,0-0.4,0.1-0.5,0.2c-0.1,0.1-0.2,0.2-0.2,0.4c0,0.2,0.1,0.3,0.2,0.5c0.1,0.1,0.4,0.3,0.7,0.5
		c0.4,0.3,0.7,0.5,0.9,0.6c0.2,0.2,0.3,0.4,0.4,0.6S165.5,259.9,165.5,260.2z"/>
	<path fill="#FBD4D4" d="M166.5,253.6c0-0.3,0.1-0.5,0.2-0.6c0.2-0.2,0.4-0.2,0.7-0.2c0.3,0,0.5,0.1,0.6,0.2
		c0.2,0.2,0.2,0.4,0.2,0.6c0,0.3-0.1,0.5-0.2,0.6c-0.2,0.2-0.4,0.2-0.6,0.2c-0.3,0-0.5-0.1-0.6-0.2
		C166.6,254.1,166.5,253.9,166.5,253.6z M168.2,262.1h-1.6v-6.7h1.6V262.1z"/>
	<path fill="#FBD4D4" d="M174.4,255.4v0.9l-0.8,0.2c0.2,0.3,0.2,0.6,0.2,1.1c0,0.7-0.2,1.3-0.6,1.7c-0.4,0.4-0.9,0.6-1.6,0.6
		c-0.2,0-0.4,0-0.4,0c-0.1,0.1-0.1,0.1-0.2,0.2c-0.1,0.1-0.1,0.2-0.1,0.3c0,0.3,0.2,0.4,0.7,0.4h1c0.6,0,1,0.2,1.3,0.5
		c0.3,0.3,0.5,0.8,0.5,1.4c0,0.8-0.3,1.4-0.8,1.8c-0.5,0.4-1.3,0.6-2.3,0.6c-0.7,0-1.3-0.2-1.7-0.5c-0.4-0.3-0.6-0.8-0.6-1.4
		c0-0.4,0.1-0.7,0.3-1c0.2-0.3,0.5-0.5,1-0.6c-0.2-0.1-0.4-0.2-0.5-0.4c-0.1-0.2-0.2-0.4-0.2-0.6c0-0.1,0-0.3,0.1-0.4
		c0-0.1,0.1-0.2,0.2-0.3c0.1-0.1,0.2-0.2,0.5-0.4c-0.3-0.2-0.5-0.4-0.7-0.8c-0.2-0.3-0.2-0.7-0.2-1.2c0-0.7,0.2-1.3,0.6-1.7
		c0.4-0.4,0.9-0.6,1.7-0.6c0.1,0,0.3,0,0.5,0c0.2,0,0.3,0.1,0.4,0.1H174.4z M170.4,263.1c0,0.3,0.1,0.5,0.3,0.6
		c0.2,0.1,0.4,0.2,0.7,0.2c0.5,0,0.9-0.1,1.1-0.3c0.2-0.2,0.4-0.4,0.4-0.8c0-0.3-0.1-0.4-0.2-0.5c-0.1-0.1-0.4-0.2-0.7-0.2h-0.8
		c-0.2,0-0.4,0.1-0.5,0.2C170.5,262.6,170.4,262.8,170.4,263.1z M170.9,257.6c0,0.8,0.2,1.2,0.7,1.2c0.4,0,0.7-0.4,0.7-1.2
		c0-0.8-0.2-1.2-0.7-1.2C171.2,256.4,170.9,256.8,170.9,257.6z"/>
	<path fill="#FBD4D4" d="M178.6,262.1v-4c0-0.5-0.1-0.9-0.2-1.1c-0.1-0.2-0.3-0.4-0.6-0.4c-0.3,0-0.6,0.2-0.8,0.5
		c-0.2,0.3-0.2,0.9-0.2,1.7v3.2h-1.6v-6.7h1.3l0.2,0.9h0.1c0.1-0.3,0.4-0.6,0.6-0.7s0.6-0.3,0.9-0.3c0.6,0,1.1,0.2,1.4,0.6
		c0.3,0.4,0.5,1,0.5,1.8v4.4H178.6z"/>
	<path fill="#FBD4D4" d="M181.4,253.6c0-0.3,0.1-0.5,0.2-0.6c0.2-0.2,0.4-0.2,0.7-0.2c0.3,0,0.5,0.1,0.6,0.2
		c0.2,0.2,0.2,0.4,0.2,0.6c0,0.3-0.1,0.5-0.2,0.6c-0.2,0.2-0.4,0.2-0.6,0.2c-0.3,0-0.5-0.1-0.6-0.2
		C181.5,254.1,181.4,253.9,181.4,253.6z M183.1,262.1h-1.6v-6.7h1.6V262.1z"/>
	<path fill="#FBD4D4" d="M187.5,256.7h-1.1v5.5h-1.6v-5.5H184v-0.8l0.8-0.5v-0.5c0-0.8,0.2-1.3,0.5-1.7s0.8-0.5,1.5-0.5
		c0.4,0,0.8,0.1,1.2,0.3l-0.4,1.2c-0.2-0.1-0.4-0.1-0.6-0.1c-0.2,0-0.3,0.1-0.4,0.2c-0.1,0.1-0.1,0.4-0.1,0.7v0.5h1.1V256.7z
		 M188.1,253.6c0-0.3,0.1-0.5,0.2-0.6c0.2-0.2,0.4-0.2,0.7-0.2c0.3,0,0.5,0.1,0.6,0.2c0.2,0.2,0.2,0.4,0.2,0.6
		c0,0.3-0.1,0.5-0.2,0.6c-0.2,0.2-0.4,0.2-0.6,0.2c-0.3,0-0.5-0.1-0.6-0.2C188.2,254.1,188.1,253.9,188.1,253.6z M189.8,262.1h-1.6
		v-6.7h1.6V262.1z"/>
	<path fill="#FBD4D4" d="M193.4,262.3c-0.8,0-1.4-0.3-1.8-0.9c-0.4-0.6-0.6-1.4-0.6-2.6c0-1.2,0.2-2.1,0.6-2.7
		c0.4-0.6,1-0.9,1.8-0.9c0.2,0,0.5,0,0.8,0.1c0.3,0.1,0.5,0.2,0.7,0.3l-0.5,1.3c-0.3-0.2-0.6-0.3-0.9-0.3c-0.3,0-0.6,0.2-0.7,0.5
		c-0.2,0.4-0.2,0.9-0.2,1.6c0,0.7,0.1,1.2,0.2,1.6c0.1,0.3,0.4,0.5,0.7,0.5c0.4,0,0.8-0.1,1.3-0.4v1.4
		C194.4,262.1,193.9,262.3,193.4,262.3z"/>
	<path fill="#FBD4D4" d="M199.1,262.1l-0.3-0.9h0c-0.2,0.4-0.5,0.7-0.7,0.8c-0.3,0.1-0.6,0.2-1,0.2c-0.5,0-0.9-0.2-1.2-0.6
		c-0.3-0.4-0.4-0.9-0.4-1.5c0-0.7,0.2-1.2,0.6-1.6c0.4-0.3,1-0.5,1.7-0.6l0.9,0v-0.5c0-0.6-0.3-0.9-0.8-0.9c-0.4,0-0.9,0.2-1.4,0.5
		l-0.6-1.1c0.7-0.4,1.4-0.6,2.2-0.6c0.7,0,1.3,0.2,1.6,0.6c0.4,0.4,0.6,1,0.6,1.7v4.5H199.1z M197.7,261c0.3,0,0.5-0.1,0.7-0.4
		c0.2-0.3,0.3-0.6,0.3-1.1V259l-0.5,0c-0.4,0-0.6,0.1-0.8,0.3s-0.3,0.5-0.3,0.8C197.1,260.7,197.3,261,197.7,261z"/>
	<path fill="#FBD4D4" d="M204.9,262.1v-4c0-0.5-0.1-0.9-0.2-1.1c-0.1-0.2-0.3-0.4-0.6-0.4c-0.3,0-0.6,0.2-0.8,0.5
		c-0.2,0.3-0.2,0.9-0.2,1.7v3.2h-1.6v-6.7h1.3l0.2,0.9h0.1c0.1-0.3,0.4-0.6,0.6-0.7s0.6-0.3,0.9-0.3c0.6,0,1.1,0.2,1.4,0.6
		c0.3,0.4,0.5,1,0.5,1.8v4.4H204.9z"/>
	<path fill="#FBD4D4" d="M210.2,260.9c0.2,0,0.5-0.1,0.7-0.2v1.3c-0.3,0.2-0.7,0.3-1.2,0.3c-0.6,0-1-0.2-1.3-0.5
		c-0.3-0.3-0.4-0.9-0.4-1.6v-3.5h-0.7V256l0.8-0.6l0.4-1.4h1v1.5h1.2v1.3h-1.2v3.5C209.6,260.7,209.8,260.9,210.2,260.9z"/>
</g>
<g enable-background="new    ">
	<path fill="#FBD4D4" d="M123.3,272c0,1.1-0.2,2-0.7,2.6c-0.5,0.6-1.1,0.9-1.9,0.9c-0.5,0-1-0.1-1.4-0.4c-0.4-0.3-0.7-0.7-0.9-1.2
		s-0.3-1.1-0.3-1.9c0-1.1,0.2-1.9,0.7-2.6s1.1-0.9,1.9-0.9c0.8,0,1.4,0.3,1.9,0.9C123,270,123.3,270.9,123.3,272z M119.7,272
		c0,0.7,0.1,1.2,0.2,1.6c0.2,0.4,0.4,0.5,0.7,0.5c0.6,0,1-0.7,1-2.1c0-0.7-0.1-1.2-0.2-1.6s-0.4-0.5-0.7-0.5c-0.3,0-0.6,0.2-0.7,0.5
		C119.8,270.7,119.7,271.3,119.7,272z"/>
	<path fill="#FBD4D4" d="M126.7,274.1c0.2,0,0.5-0.1,0.7-0.2v1.3c-0.3,0.2-0.7,0.3-1.2,0.3c-0.6,0-1-0.2-1.3-0.5s-0.4-0.9-0.4-1.6
		v-3.5h-0.7v-0.7l0.8-0.6l0.4-1.4h1v1.5h1.2v1.3h-1.2v3.5C126.2,273.9,126.4,274.1,126.7,274.1z"/>
	<path fill="#FBD4D4" d="M131.8,275.3v-4c0-1-0.2-1.5-0.7-1.5c-0.4,0-0.6,0.2-0.8,0.6c-0.1,0.4-0.2,0.9-0.2,1.7v3.2h-1.6v-9.4h1.6
		v2.1c0,0.3,0,0.8-0.1,1.4h0.1c0.3-0.7,0.8-1,1.5-1c0.6,0,1.1,0.2,1.4,0.6c0.3,0.4,0.5,1,0.5,1.8v4.4H131.8z"/>
	<path fill="#FBD4D4" d="M137.2,275.5c-0.8,0-1.5-0.3-2-0.9s-0.7-1.4-0.7-2.5c0-1.1,0.2-2,0.7-2.6s1.1-0.9,1.8-0.9
		c0.7,0,1.3,0.3,1.7,0.8c0.4,0.5,0.6,1.3,0.6,2.2v0.9h-3.2c0,0.6,0.1,1,0.4,1.3c0.2,0.3,0.6,0.4,1,0.4c0.5,0,1.1-0.2,1.6-0.5v1.3
		C138.5,275.3,137.9,275.5,137.2,275.5z M136.9,269.7c-0.2,0-0.4,0.1-0.6,0.4c-0.1,0.2-0.2,0.6-0.3,1.1h1.6c0-0.5-0.1-0.9-0.2-1.1
		S137.2,269.7,136.9,269.7z"/>
	<path fill="#FBD4D4" d="M143.3,268.5c0.2,0,0.4,0,0.6,0.1l-0.2,1.6c-0.1,0-0.3-0.1-0.4-0.1c-0.4,0-0.7,0.2-0.9,0.5
		c-0.2,0.3-0.3,0.8-0.3,1.3v3.5h-1.6v-6.7h1.3l0.2,1.1h0.1c0.2-0.4,0.4-0.7,0.6-0.9C142.7,268.6,143,268.5,143.3,268.5z"/>
	<path fill="#FBD4D4" d="M148.2,273.4c0,0.7-0.2,1.2-0.6,1.5s-1,0.6-1.7,0.6c-0.7,0-1.2-0.1-1.7-0.4v-1.4c0.2,0.2,0.5,0.3,0.8,0.4
		s0.6,0.2,0.8,0.2c0.2,0,0.4-0.1,0.6-0.2s0.2-0.3,0.2-0.5c0-0.2-0.1-0.4-0.2-0.5c-0.1-0.2-0.4-0.3-0.8-0.6c-0.5-0.3-0.8-0.6-1-0.9
		c-0.2-0.3-0.3-0.7-0.3-1.2c0-0.6,0.2-1,0.6-1.4c0.4-0.3,0.9-0.5,1.6-0.5c0.6,0,1.2,0.2,1.7,0.5l-0.5,1.2c-0.4-0.2-0.8-0.4-1.1-0.4
		c-0.2,0-0.4,0.1-0.5,0.2c-0.1,0.1-0.2,0.2-0.2,0.4c0,0.2,0.1,0.3,0.2,0.5c0.1,0.1,0.4,0.3,0.7,0.5c0.4,0.3,0.7,0.5,0.9,0.6
		c0.2,0.2,0.3,0.4,0.4,0.6C148.1,272.8,148.2,273.1,148.2,273.4z"/>
</g>
<g enable-background="new    ">
	<path fill="#FBD4D4" d="M125.3,210c3.1,0,5.5,1.1,7.3,3.2c1.8,2.1,2.7,5.1,2.7,8.8c0,4.5-1.1,7.9-3.4,10.4
		c-2.3,2.5-5.4,3.7-9.4,3.7c-3.6,0-6.5-0.7-8.7-2V227c0.9,0.7,2.2,1.3,3.7,1.8c1.5,0.5,2.9,0.8,4.2,0.8c4,0,6-2.3,6-7
		c0-4.3-1.9-6.5-5.8-6.5c-1.5,0-3.2,0.3-4.9,0.9l-2.5-1.8l1.3-20.5h17.4v6.8h-10.9l-0.6,8.8C122.8,210.1,124,210,125.3,210z"/>
	<path fill="#FBD4D4" d="M139.9,218.2c0-8.3,1.3-14.4,3.9-18.2c2.6-3.8,6.5-5.8,11.8-5.8c0.8,0,1.7,0.1,2.5,0.2
		c0.8,0.1,1.5,0.2,1.9,0.3v6.3c-1.3-0.3-2.6-0.4-3.8-0.4c-2.1,0-3.9,0.5-5.2,1.4c-1.4,0.9-2.4,2.3-3.1,4.2s-1.1,4.5-1.3,7.8h0.3
		c0.7-1.5,1.5-2.7,2.7-3.5c1.1-0.8,2.4-1.2,3.9-1.2c2.7,0,4.9,1.1,6.4,3.3c1.5,2.2,2.3,5.4,2.3,9.5c0,4.3-1,7.7-3,10.3
		c-2,2.5-4.7,3.8-8.2,3.8c-3.6,0-6.4-1.5-8.3-4.5C140.9,228.6,139.9,224.1,139.9,218.2z M151.1,229.7c1.1,0,2-0.6,2.7-1.8
		s1-3.1,1-5.8c0-2.1-0.3-3.8-0.9-5c-0.6-1.2-1.5-1.8-2.8-1.8c-1.1,0-2,0.6-2.7,1.7c-0.7,1.1-1,2.6-1,4.3c0,2.7,0.3,4.8,1,6.2
		C149.1,229,150,229.7,151.1,229.7z"/>
	<path fill="#FBD4D4" d="M182.4,206.9c0,4.2-0.7,7.4-2.1,9.6c-1.4,2.2-3.4,3.3-6.1,3.3c-2.8,0-4.8-1.1-6.1-3.2c-1.3-2.1-2-5.3-2-9.6
		c0-8.6,2.7-12.9,8.1-12.9C179.6,194.2,182.4,198.4,182.4,206.9z M172,207c0,2.6,0.2,4.5,0.5,5.7c0.3,1.2,0.9,1.8,1.7,1.8
		s1.3-0.6,1.7-1.8c0.4-1.2,0.5-3.1,0.5-5.7s-0.2-4.5-0.5-5.7c-0.4-1.2-0.9-1.8-1.7-1.8c-0.8,0-1.3,0.6-1.7,1.8
		C172.2,202.5,172,204.4,172,207z M197.3,194.7l-16.9,40.8h-5.8l16.8-40.8H197.3z M206,223.2c0,4.2-0.7,7.4-2.1,9.6
		c-1.4,2.2-3.5,3.3-6.1,3.3c-2.8,0-4.8-1.1-6.1-3.2c-1.3-2.1-1.9-5.3-1.9-9.5c0-4.2,0.7-7.4,2-9.6s3.4-3.3,6.1-3.3
		C203.2,210.5,206,214.7,206,223.2z M195.6,223.3c0,2.6,0.2,4.5,0.5,5.7c0.3,1.2,0.9,1.8,1.7,1.8s1.3-0.6,1.7-1.8
		c0.4-1.2,0.5-3.1,0.5-5.7s-0.2-4.5-0.5-5.6c-0.4-1.2-0.9-1.8-1.7-1.8c-0.8,0-1.3,0.6-1.7,1.8C195.8,218.8,195.6,220.7,195.6,223.3z
		"/>
</g>
<circle fill="#985424" cx="234.1" cy="348.1" r="36.8"/>
<g enable-background="new    ">
	<path fill="#FBD4D4" d="M228.1,330.3c1.5,0,2.7,0.5,3.6,1.6s1.3,2.5,1.3,4.3c0,2.2-0.6,3.9-1.7,5.1c-1.1,1.2-2.6,1.8-4.6,1.8
		c-1.7,0-3.2-0.3-4.2-1v-3.5c0.5,0.3,1.1,0.6,1.8,0.9c0.7,0.3,1.4,0.4,2,0.4c2,0,2.9-1.1,2.9-3.4c0-2.1-1-3.2-2.9-3.2
		c-0.8,0-1.6,0.1-2.4,0.4l-1.2-0.9l0.6-10h8.5v3.3h-5.3l-0.3,4.3C226.9,330.4,227.4,330.3,228.1,330.3z"/>
	<path fill="#FBD4D4" d="M243.1,328.8c0,2.1-0.3,3.6-1,4.7c-0.7,1.1-1.7,1.6-3,1.6c-1.4,0-2.4-0.5-3-1.6c-0.6-1-1-2.6-1-4.7
		c0-4.2,1.3-6.3,3.9-6.3C241.7,322.6,243.1,324.7,243.1,328.8z M238,328.9c0,1.3,0.1,2.2,0.2,2.8c0.2,0.6,0.4,0.9,0.8,0.9
		s0.7-0.3,0.8-0.9c0.2-0.6,0.3-1.5,0.3-2.8c0-1.3-0.1-2.2-0.3-2.8c-0.2-0.6-0.5-0.9-0.8-0.9c-0.4,0-0.7,0.3-0.8,0.9
		C238.1,326.7,238,327.6,238,328.9z M250.4,322.9l-8.2,20h-2.8l8.2-20H250.4z M254.6,336.8c0,2.1-0.3,3.6-1,4.7
		c-0.7,1.1-1.7,1.6-3,1.6c-1.4,0-2.4-0.5-3-1.6c-0.6-1-0.9-2.6-0.9-4.7c0-2,0.3-3.6,1-4.7c0.7-1.1,1.6-1.6,3-1.6
		C253.2,330.6,254.6,332.6,254.6,336.8z M249.5,336.8c0,1.3,0.1,2.2,0.2,2.8c0.2,0.6,0.4,0.9,0.8,0.9s0.7-0.3,0.8-0.9
		s0.3-1.5,0.3-2.8c0-1.3-0.1-2.2-0.3-2.8c-0.2-0.6-0.5-0.9-0.8-0.9c-0.4,0-0.6,0.3-0.8,0.9C249.6,334.6,249.5,335.6,249.5,336.8z"/>
</g>
<g enable-background="new    ">
	<path fill="#FBD4D4" d="M209.9,353.4c0,0.6-0.2,1.1-0.5,1.4c-0.3,0.4-0.8,0.6-1.4,0.6v1.2h-0.6v-1.1c-0.7,0-1.3-0.2-1.9-0.5v-1.4
		c0.3,0.2,0.6,0.3,0.9,0.4c0.3,0.1,0.6,0.2,0.9,0.2v-1.9l-0.2-0.1c-0.6-0.3-1.1-0.6-1.3-0.9c-0.2-0.3-0.4-0.7-0.4-1.2
		c0-0.6,0.2-1,0.5-1.3c0.3-0.3,0.8-0.5,1.4-0.6v-0.9h0.6v0.9c0.6,0,1.1,0.2,1.7,0.5l-0.4,1.2c-0.5-0.2-0.9-0.4-1.3-0.4v1.8
		c0.1,0,0.2,0.1,0.2,0.1c0.5,0.2,0.8,0.4,1.1,0.6s0.4,0.4,0.5,0.7C209.9,352.8,209.9,353.1,209.9,353.4z M206.8,350.2
		c0,0.2,0,0.3,0.1,0.5s0.2,0.2,0.4,0.3v-1.4C207,349.5,206.8,349.8,206.8,350.2z M208.6,353.4c0-0.2,0-0.3-0.1-0.4
		c-0.1-0.1-0.2-0.2-0.5-0.4v1.5C208.4,354.1,208.6,353.9,208.6,353.4z"/>
	<path fill="#FBD4D4" d="M212.9,347.7c0.6,0,1.1,0.2,1.5,0.5c0.4,0.4,0.6,0.8,0.6,1.5c0,0.4-0.1,0.7-0.3,1c-0.2,0.3-0.5,0.6-0.9,0.9
		c0.5,0.3,0.8,0.7,1,1s0.3,0.7,0.3,1.2c0,0.7-0.2,1.2-0.6,1.6c-0.4,0.4-0.9,0.6-1.6,0.6c-0.7,0-1.2-0.2-1.6-0.6
		c-0.4-0.4-0.6-0.9-0.6-1.6c0-0.5,0.1-0.9,0.3-1.2s0.5-0.7,0.9-0.9c-0.4-0.3-0.7-0.6-0.8-0.9s-0.2-0.7-0.2-1.1
		c0-0.6,0.2-1.1,0.6-1.5S212.3,347.7,212.9,347.7z M212.1,353.8c0,0.3,0.1,0.6,0.2,0.8c0.1,0.2,0.3,0.3,0.6,0.3
		c0.3,0,0.5-0.1,0.6-0.3c0.1-0.2,0.2-0.5,0.2-0.8c0-0.2-0.1-0.5-0.2-0.7c-0.1-0.2-0.3-0.4-0.6-0.7l-0.1-0.1
		c-0.2,0.2-0.4,0.4-0.5,0.6C212.2,353.2,212.1,353.5,212.1,353.8z M212.9,348.9c-0.2,0-0.4,0.1-0.5,0.2s-0.2,0.4-0.2,0.7
		c0,0.2,0,0.5,0.1,0.6c0.1,0.2,0.3,0.4,0.5,0.6c0.2-0.2,0.4-0.4,0.5-0.6c0.1-0.2,0.1-0.4,0.1-0.6
		C213.6,349.2,213.4,348.9,212.9,348.9z"/>
	<path fill="#FBD4D4" d="M219.6,355.9h-1.5v-4.7c0-0.5,0-1.1,0.1-1.8c0,0-0.1,0.1-0.3,0.3c-0.2,0.2-0.5,0.5-1,1l-0.8-0.9l2.2-2h1.3
		V355.9z"/>
	<path fill="#FBD4D4" d="M223.6,350.9c0.6,0,1.1,0.2,1.5,0.6c0.4,0.4,0.5,1,0.5,1.7c0,0.9-0.2,1.6-0.7,2.1c-0.4,0.5-1.1,0.7-1.9,0.7
		c-0.7,0-1.3-0.1-1.7-0.4v-1.4c0.2,0.1,0.4,0.3,0.7,0.4c0.3,0.1,0.6,0.2,0.8,0.2c0.8,0,1.2-0.5,1.2-1.4c0-0.9-0.4-1.3-1.2-1.3
		c-0.3,0-0.6,0.1-1,0.2l-0.5-0.4l0.2-4.1h3.5v1.3H223l-0.1,1.7C223.1,350.9,223.3,350.9,223.6,350.9z"/>
	<path fill="#FBD4D4" d="M235.6,355.9v-3.7c0-0.9-0.2-1.4-0.7-1.4c-0.3,0-0.6,0.2-0.7,0.5c-0.1,0.3-0.2,0.8-0.2,1.6v3h-1.5v-3.7
		c0-0.9-0.2-1.4-0.7-1.4c-0.3,0-0.5,0.2-0.7,0.5c-0.1,0.3-0.2,0.9-0.2,1.6v3h-1.5v-6.2h1.2l0.2,0.8h0.1c0.1-0.3,0.3-0.5,0.6-0.7
		c0.3-0.1,0.5-0.2,0.8-0.2c0.8,0,1.3,0.4,1.5,1.1h0.1c0.3-0.7,0.8-1.1,1.5-1.1c0.5,0,1,0.2,1.2,0.6s0.4,0.9,0.4,1.7v4H235.6z"/>
	<path fill="#FBD4D4" d="M238.2,348.2c0-0.2,0.1-0.4,0.2-0.6c0.1-0.1,0.3-0.2,0.6-0.2c0.2,0,0.4,0.1,0.6,0.2
		c0.1,0.1,0.2,0.3,0.2,0.6c0,0.3-0.1,0.4-0.2,0.6c-0.1,0.1-0.3,0.2-0.6,0.2c-0.2,0-0.4-0.1-0.6-0.2
		C238.3,348.6,238.2,348.4,238.2,348.2z M239.8,355.9h-1.5v-6.2h1.5V355.9z"/>
	<path fill="#FBD4D4" d="M242.5,355.9H241v-8.6h1.5V355.9z"/>
	<path fill="#FBD4D4" d="M245.2,355.9h-1.5v-8.6h1.5V355.9z"/>
	<path fill="#FBD4D4" d="M246.4,348.2c0-0.2,0.1-0.4,0.2-0.6c0.1-0.1,0.3-0.2,0.6-0.2c0.2,0,0.4,0.1,0.6,0.2
		c0.1,0.1,0.2,0.3,0.2,0.6c0,0.3-0.1,0.4-0.2,0.6c-0.1,0.1-0.3,0.2-0.6,0.2c-0.2,0-0.4-0.1-0.6-0.2
		C246.5,348.6,246.4,348.4,246.4,348.2z M247.9,355.9h-1.5v-6.2h1.5V355.9z"/>
	<path fill="#FBD4D4" d="M253.7,352.8c0,1-0.2,1.8-0.6,2.4c-0.4,0.6-1,0.8-1.8,0.8c-0.5,0-0.9-0.1-1.3-0.4c-0.4-0.3-0.6-0.6-0.8-1.1
		c-0.2-0.5-0.3-1.1-0.3-1.7c0-1,0.2-1.8,0.6-2.3s1-0.8,1.8-0.8c0.7,0,1.3,0.3,1.7,0.9C253.5,351.1,253.7,351.9,253.7,352.8z
		 M250.5,352.8c0,0.6,0.1,1.1,0.2,1.5s0.4,0.5,0.7,0.5c0.6,0,0.9-0.6,0.9-1.9c0-0.6-0.1-1.1-0.2-1.4c-0.1-0.3-0.4-0.5-0.7-0.5
		c-0.3,0-0.5,0.2-0.7,0.5C250.5,351.7,250.5,352.2,250.5,352.8z"/>
	<path fill="#FBD4D4" d="M257.8,355.9v-3.7c0-0.4-0.1-0.8-0.2-1c-0.1-0.2-0.3-0.3-0.5-0.3c-0.3,0-0.5,0.2-0.7,0.5
		c-0.1,0.3-0.2,0.8-0.2,1.6v3h-1.5v-6.2h1.2l0.2,0.8h0.1c0.1-0.3,0.3-0.5,0.6-0.7c0.2-0.2,0.5-0.2,0.9-0.2c0.6,0,1,0.2,1.3,0.6
		s0.4,0.9,0.4,1.7v4H257.8z"/>
	<path fill="#FBD4D4" d="M260.5,350.5c0-0.3,0.1-0.5,0.2-0.7c0.2-0.2,0.4-0.2,0.7-0.2s0.5,0.1,0.7,0.2s0.2,0.4,0.2,0.7
		c0,0.3-0.1,0.5-0.2,0.7c-0.2,0.2-0.4,0.2-0.7,0.2c-0.3,0-0.5-0.1-0.7-0.2C260.6,351.1,260.5,350.8,260.5,350.5z M260.5,355.2
		c0-0.3,0.1-0.5,0.2-0.7c0.2-0.2,0.4-0.2,0.7-0.2s0.5,0.1,0.7,0.2c0.2,0.2,0.2,0.4,0.2,0.7c0,0.3-0.1,0.5-0.2,0.7
		c-0.2,0.2-0.4,0.2-0.7,0.2c-0.3,0-0.5-0.1-0.7-0.2C260.6,355.7,260.5,355.5,260.5,355.2z"/>
</g>
<g enable-background="new    ">
	<path fill="#FBD4D4" d="M231.3,362.4c0,0.9-0.2,1.5-0.6,2c-0.4,0.5-1.1,0.7-1.9,0.7h-0.4v2.9h-1.5v-8.1h2.1
		C230.5,359.9,231.3,360.8,231.3,362.4z M228.4,363.8h0.3c0.4,0,0.6-0.1,0.8-0.3c0.2-0.2,0.3-0.5,0.3-1c0-0.4-0.1-0.7-0.2-0.9
		c-0.2-0.2-0.4-0.3-0.8-0.3h-0.4V363.8z"/>
	<path fill="#FBD4D4" d="M234.5,368.1c-0.8,0-1.4-0.3-1.8-0.8c-0.4-0.5-0.7-1.3-0.7-2.3c0-1,0.2-1.8,0.6-2.4c0.4-0.6,1-0.9,1.7-0.9
		c0.7,0,1.2,0.2,1.6,0.7c0.4,0.5,0.6,1.2,0.6,2.1v0.8h-3c0,0.5,0.1,1,0.3,1.2s0.5,0.4,0.9,0.4c0.5,0,1-0.1,1.5-0.4v1.2
		C235.7,368,235.2,368.1,234.5,368.1z M234.3,362.9c-0.2,0-0.4,0.1-0.5,0.3c-0.1,0.2-0.2,0.6-0.2,1h1.5c0-0.4-0.1-0.8-0.2-1
		C234.7,363,234.5,362.9,234.3,362.9z"/>
	<path fill="#FBD4D4" d="M239.6,366.9c0.2,0,0.4-0.1,0.7-0.2v1.2c-0.2,0.2-0.6,0.2-1.1,0.2c-0.5,0-0.9-0.2-1.2-0.5s-0.4-0.8-0.4-1.4
		V363H237v-0.7l0.8-0.5l0.4-1.3h0.9v1.3h1.1v1.2h-1.1v3.2C239.1,366.7,239.2,366.9,239.6,366.9z"/>
	<path fill="#FBD4D4" d="M244.4,366.2c0,0.6-0.2,1.1-0.5,1.4c-0.4,0.3-0.9,0.5-1.6,0.5c-0.6,0-1.1-0.1-1.5-0.4v-1.3
		c0.2,0.1,0.4,0.3,0.7,0.3c0.3,0.1,0.5,0.1,0.7,0.1c0.2,0,0.4-0.1,0.5-0.2c0.1-0.1,0.2-0.3,0.2-0.4c0-0.2-0.1-0.4-0.2-0.5
		c-0.1-0.1-0.4-0.3-0.7-0.5c-0.4-0.3-0.8-0.5-1-0.8c-0.2-0.3-0.3-0.7-0.3-1.1c0-0.5,0.2-0.9,0.5-1.2c0.4-0.3,0.9-0.5,1.5-0.5
		c0.5,0,1.1,0.1,1.5,0.4l-0.5,1.1c-0.4-0.2-0.7-0.3-1-0.3c-0.2,0-0.3,0-0.4,0.1c-0.1,0.1-0.1,0.2-0.1,0.4c0,0.2,0.1,0.3,0.2,0.4
		c0.1,0.1,0.3,0.3,0.7,0.5c0.4,0.2,0.7,0.4,0.8,0.6c0.2,0.2,0.3,0.3,0.4,0.6C244.4,365.7,244.4,366,244.4,366.2z"/>
</g>
<path fill="#F2D2B6" d="M330.5,77.1l7.4-4.5l-6.5-4l4.5-6l-7.7-1.3c0,0,0-0.1-0.1-0.1l1.6-8l-7.3,2.1l-4.2-6.9l-4.3,7.1h-0.4
	l-4.3-7.1l-4.3,7.1h-0.4l-4.3-7.1l-4.3,7.1h-0.4l-4.3-7.1l-4.3,7.1h-0.4l-4.3-7.1l-4.2,6.9l-7.3-2.1l1.5,7.4l-7.5,1.2l4.8,6.4
	l-6.9,4.2l7.4,4.5l-7.4,4.5l7.4,4.5l-7.4,4.5l7.4,4.5l-7.4,4.5l7.4,4.5l-7.4,4.5l7.4,4.5l-7.4,4.5l7.4,4.5l-7.4,4.5l7.4,4.5
	l-7.4,4.5l7.2,4.4l-5.1,6.8l7.5,1.2l-1.5,7.4l7.3-2.1l4.2,6.9l4.4-7.2h0.2l4.4,7.2l4.4-7.2h0.2l4.4,7.2l4.4-7.2h0.2l4.4,7.2l4.4-7.2
	h0.2l4.4,7.2l4.2-6.9l7.3,2.1l-1.6-8l7.7-1.3l-4.8-6.4l6.8-4.1l-7.4-4.5l7.4-4.5l-7.4-4.5l7.4-4.5l-7.4-4.5l7.4-4.5l-7.4-4.5
	l7.4-4.5l-7.4-4.5l7.4-4.5l-7.4-4.5l7.4-4.5L330.5,77.1L330.5,77.1z M417.2,77.1l7.4-4.5l-6.5-4l4.5-6l-7.7-1.3c0,0,0-0.1-0.1-0.1
	l1.6-8l-7.3,2.1l-4.2-6.9l-4.3,7.1h-0.4l-4.3-7.1l-4.3,7.1h-0.5l-4.3-7.1l-4.3,7.1h-0.4l-4.3-7.1l-4.3,7.1h-0.4l-4.3-7.1l-4.2,6.9
	l-7.3-2.1l1.5,7.4l-7.5,1.2l4.8,6.4l-6.9,4.2l7.4,4.5l-7.4,4.5l7.4,4.5l-7.4,4.5l7.4,4.5l-7.4,4.5l7.4,4.5l-7.4,4.5l7.4,4.5
	l-7.4,4.5l7.4,4.5l-7.4,4.5l7.4,4.5l-7.4,4.5l7.2,4.4l-5.1,6.8l7.5,1.2l-1.5,7.4l7.3-2.1l4.2,6.9l4.4-7.2h0.2l4.4,7.2l4.4-7.2h0.2
	l4.4,7.2l4.4-7.2h0.2l4.4,7.2l4.4-7.2h0.2l4.4,7.2l4.2-6.9l7.3,2.1l-1.6-8l7.7-1.3l-4.8-6.4l6.8-4.1l-7.4-4.5l7.4-4.5l-7.4-4.5
	l7.4-4.5l-7.4-4.5l7.4-4.5l-7.4-4.5l7.4-4.5l-7.4-4.5l7.4-4.5l-7.4-4.5l7.4-4.5L417.2,77.1L417.2,77.1z M353.2,281.7l6,10.4l5.2-9.1
	l7.9,6.3l1.7-10.8l0.1-0.1l10.5,2.2l-2.8-10.3l9.1-5.9l-9.3-6.1v-0.5l9.3-6.1l-9.3-6.1v-0.5l9.3-6.1l-9.3-6.1v-0.5l9.3-6.1l-9.3-6.1
	v-0.5l9.3-6.1l-9.1-5.9l2.8-10.3l-9.7,2l-1.6-10.5l-8.5,6.7l-5.5-9.7l-6,10.4l-6-10.4l-6,10.4l-6-10.4l-6,10.4l-6-10.4l-6,10.4
	l-6-10.4l-6,10.4l-6-10.4l-6,10.4l-6-10.4l-6,10.4l-6-10.4l-5.8,10.1l-9-7.1l-1.6,10.5l-9.7-2l2.8,10.3l-9.1,5.9l9.5,6.2v0.3
	l-9.5,6.2l9.5,6.2v0.3l-9.5,6.2l9.5,6.2v0.3l-9.5,6.2l9.5,6.2v0.3l-9.5,6.2l9.1,5.9l-2.8,10.3l10.6-2.2l1.7,10.9l8.5-6.7l5.4,9.5
	l6-10.4l6,10.4l6-10.4l6,10.4l6-10.4l6,10.4l6-10.4l6,10.4l6-10.4l6,10.4l6-10.4l6,10.4L353.2,281.7L353.2,281.7z"/>
<path fill="#733717" d="M317.8,153.1h-35.3c-6.6,0-12-5.4-12-12V68.5c0-6.6,5.4-12,12-12h35.3c6.6,0,12,5.4,12,12v72.7
	C329.8,147.7,324.4,153.1,317.8,153.1L317.8,153.1z"/>
<g enable-background="new    ">
	<path fill="#FBD4D4" d="M298.8,71.1v18.5c0,3.4-0.8,6-2.3,7.8c-1.5,1.8-3.8,2.7-6.7,2.7c-2.8,0-5-0.9-6.5-2.7s-2.2-4.4-2.2-7.9
		V71.1h5.3v18.8c0,3.6,1.2,5.4,3.6,5.4c1.1,0,2-0.5,2.6-1.4c0.6-0.9,0.9-2.2,0.9-3.9V71.1H298.8z"/>
	<path fill="#FBD4D4" d="M321.5,99.7h-5.7l-4.7-12.2l-2.1,2.1v10.1h-5.3V71.1h5.3v14.2l1.9-4.3l4.9-9.9h5.7l-6.6,12.4L321.5,99.7z"
		/>
</g>
<g enable-background="new    ">
	<path fill="#FBD4D4" d="M288.8,116.4c0,1.4-0.4,2.6-1.2,3.5c-0.8,0.9-2,1.4-3.5,1.5v2.9h-1.6v-2.8c-1.7-0.1-3.3-0.4-4.6-1.1V117
		c0.7,0.4,1.5,0.8,2.3,1.1c0.8,0.3,1.6,0.4,2.3,0.5v-4.6l-0.5-0.2c-1.5-0.7-2.6-1.5-3.2-2.3s-0.9-1.8-0.9-3c0-1.4,0.4-2.5,1.2-3.3
		c0.8-0.8,2-1.3,3.4-1.5v-2.2h1.6v2.2c1.4,0.1,2.8,0.5,4.2,1.2l-1.1,2.9c-1.2-0.6-2.2-0.9-3.1-1v4.3c0.3,0.1,0.4,0.2,0.4,0.2
		c1.2,0.5,2,1,2.6,1.5s1,1,1.3,1.6S288.8,115.6,288.8,116.4z M281.1,108.4c0,0.5,0.1,0.8,0.3,1.1s0.6,0.5,1.1,0.7v-3.6
		C281.6,106.8,281.1,107.4,281.1,108.4z M285.6,116.5c0-0.4-0.1-0.8-0.3-1s-0.6-0.6-1.2-0.9v3.8
		C285.1,118.2,285.6,117.6,285.6,116.5z"/>
	<path fill="#FBD4D4" d="M299.8,122.7h-3.7v-11.7c0-1.3,0.1-2.7,0.2-4.4c-0.1,0.1-0.3,0.4-0.7,0.8c-0.4,0.5-1.2,1.3-2.4,2.5
		l-2.1-2.3l5.3-4.9h3.3V122.7z"/>
	<path fill="#FBD4D4" d="M304.3,120.8c0-0.7,0.2-1.3,0.6-1.7c0.4-0.4,0.9-0.6,1.7-0.6c0.7,0,1.3,0.2,1.7,0.6s0.6,0.9,0.6,1.7
		c0,0.7-0.2,1.3-0.6,1.7s-1,0.6-1.7,0.6c-0.7,0-1.3-0.2-1.7-0.6S304.3,121.5,304.3,120.8z"/>
	<path fill="#FBD4D4" d="M311.4,114.2c0-4.1,0.6-7.1,1.9-8.9c1.3-1.9,3.2-2.8,5.8-2.8c0.4,0,0.8,0,1.2,0.1s0.7,0.1,0.9,0.2v3.1
		c-0.6-0.1-1.2-0.2-1.9-0.2c-1,0-1.9,0.2-2.6,0.7c-0.7,0.5-1.2,1.1-1.5,2c-0.3,0.9-0.6,2.2-0.6,3.8h0.2c0.3-0.8,0.8-1.3,1.3-1.7
		c0.6-0.4,1.2-0.6,1.9-0.6c1.3,0,2.4,0.5,3.1,1.6c0.7,1.1,1.1,2.6,1.1,4.7c0,2.1-0.5,3.8-1.5,5s-2.3,1.9-4,1.9
		c-1.8,0-3.1-0.7-4.1-2.2C311.8,119.2,311.4,117.1,311.4,114.2z M316.9,119.8c0.5,0,1-0.3,1.3-0.9c0.3-0.6,0.5-1.5,0.5-2.8
		c0-1-0.1-1.8-0.4-2.4c-0.3-0.6-0.7-0.9-1.3-0.9c-0.5,0-1,0.3-1.3,0.8c-0.3,0.6-0.5,1.3-0.5,2.1c0,1.3,0.2,2.3,0.5,3.1
		S316.3,119.8,316.9,119.8z"/>
</g>
<path fill="#985424" d="M404.5,153.1h-35.4c-6.6,0-12-5.4-12-12V68.5c0-6.6,5.4-12,12-12h35.3c6.6,0,12,5.4,12,12v72.7
	C416.5,147.7,411.1,153.1,404.5,153.1L404.5,153.1z"/>
<g enable-background="new    ">
	<path fill="#FBD4D4" d="M387.3,71.1v18.5c0,3.4-0.8,6-2.3,7.8s-3.8,2.7-6.7,2.7c-2.8,0-5-0.9-6.5-2.7s-2.2-4.4-2.2-7.9V71.1h5.3
		v18.8c0,3.6,1.2,5.4,3.6,5.4c1.1,0,2-0.5,2.6-1.4s0.9-2.2,0.9-3.9V71.1H387.3z"/>
	<path fill="#FBD4D4" d="M405.3,91.8c0,2.7-0.7,4.7-2,6.1s-3.3,2.1-5.8,2.1c-2.5,0-4.6-0.5-6.3-1.5v-5.3c2.1,1.4,4.1,2.1,5.9,2.1
		c1,0,1.8-0.3,2.3-0.8s0.8-1.3,0.8-2.3c0-1-0.3-1.8-0.9-2.6s-1.6-1.7-3-2.6c-1.2-0.8-2.2-1.7-2.8-2.4s-1.1-1.6-1.5-2.6
		s-0.5-2.1-0.5-3.4c0-2.4,0.7-4.4,2-5.8s3.2-2.1,5.5-2.1c2.2,0,4.3,0.6,6.3,1.8l-1.8,4.3c-0.6-0.4-1.3-0.7-2-1s-1.4-0.4-2.2-0.4
		c-0.9,0-1.5,0.3-2,0.8s-0.7,1.3-0.7,2.3c0,1,0.3,1.8,0.8,2.5s1.5,1.5,2.9,2.4c1.9,1.2,3.2,2.5,3.9,3.8S405.3,90.1,405.3,91.8z"/>
</g>
<g enable-background="new    ">
	<path fill="#FBD4D4" d="M370.9,118.1c0,1.3-0.4,2.3-1.1,3.1c-0.7,0.8-1.8,1.2-3.1,1.4v2.6h-1.4v-2.5c-1.5,0-2.9-0.4-4.2-1v-3
		c0.7,0.4,1.3,0.7,2.1,0.9c0.7,0.2,1.4,0.4,2.1,0.4v-4.1l-0.4-0.2c-1.4-0.7-2.4-1.3-2.9-2c-0.5-0.7-0.8-1.6-0.8-2.7
		c0-1.2,0.4-2.2,1.1-2.9c0.7-0.7,1.7-1.2,3.1-1.3v-2h1.4v1.9c1.3,0.1,2.5,0.4,3.8,1l-1,2.6c-1-0.5-2-0.8-2.8-0.9v3.9
		c0.3,0.1,0.4,0.2,0.4,0.2c1,0.4,1.8,0.9,2.3,1.3c0.5,0.4,0.9,0.9,1.1,1.4C370.8,116.7,370.9,117.4,370.9,118.1z M364,110.9
		c0,0.4,0.1,0.8,0.3,1c0.2,0.3,0.5,0.5,1,0.7v-3.2C364.4,109.5,364,110,364,110.9z M368,118.2c0-0.4-0.1-0.7-0.2-0.9
		c-0.2-0.2-0.5-0.5-1.1-0.8v3.4C367.6,119.7,368,119.1,368,118.2z"/>
	<path fill="#FBD4D4" d="M380.7,123.7h-3.3v-10.5c0-1.1,0.1-2.4,0.2-3.9c-0.1,0.1-0.3,0.3-0.6,0.7c-0.4,0.4-1.1,1.2-2.1,2.2l-1.9-2
		l4.7-4.4h3V123.7z"/>
	<path fill="#FBD4D4" d="M389.2,105.6c1.4,0,2.5,0.4,3.3,1.2s1.2,1.9,1.2,3.2c0,0.8-0.2,1.6-0.6,2.3c-0.4,0.7-1,1.3-2,1.9
		c1,0.7,1.8,1.5,2.2,2.3c0.4,0.8,0.7,1.6,0.7,2.5c0,1.5-0.4,2.6-1.3,3.5c-0.9,0.9-2.1,1.3-3.6,1.3c-1.5,0-2.7-0.4-3.6-1.2
		c-0.9-0.8-1.3-2-1.3-3.5c0-1,0.2-1.9,0.7-2.7c0.4-0.8,1.1-1.5,2-2.1c-0.8-0.7-1.5-1.4-1.8-2c-0.4-0.7-0.5-1.5-0.5-2.3
		c0-1.3,0.4-2.4,1.3-3.2S387.8,105.6,389.2,105.6z M387.4,119c0,0.7,0.1,1.3,0.4,1.7c0.3,0.4,0.7,0.6,1.3,0.6c0.6,0,1.1-0.2,1.3-0.6
		c0.3-0.4,0.4-1,0.4-1.7c0-0.5-0.1-1-0.4-1.5c-0.2-0.5-0.7-1-1.4-1.6l-0.2-0.2c-0.5,0.4-0.9,0.8-1.2,1.3
		C387.6,117.6,387.4,118.2,387.4,119z M389.2,108.2c-0.5,0-0.8,0.2-1,0.5c-0.2,0.3-0.4,0.8-0.4,1.4c0,0.5,0.1,1,0.3,1.4
		c0.2,0.4,0.6,0.8,1.1,1.3c0.5-0.4,0.9-0.8,1.1-1.2c0.2-0.4,0.3-0.9,0.3-1.4C390.6,108.8,390.1,108.2,389.2,108.2z"/>
	<path fill="#FBD4D4" d="M396.3,122c0-0.6,0.2-1.1,0.5-1.5c0.3-0.3,0.8-0.5,1.5-0.5s1.2,0.2,1.5,0.5s0.5,0.8,0.5,1.5
		c0,0.6-0.2,1.1-0.5,1.5c-0.4,0.3-0.9,0.5-1.5,0.5c-0.7,0-1.2-0.2-1.5-0.5C396.5,123.1,396.3,122.6,396.3,122z"/>
	<path fill="#FBD4D4" d="M402.6,116.1c0-3.6,0.6-6.3,1.7-8s2.9-2.5,5.2-2.5c0.4,0,0.7,0,1.1,0.1c0.4,0,0.6,0.1,0.8,0.1v2.7
		c-0.6-0.1-1.1-0.2-1.7-0.2c-0.9,0-1.7,0.2-2.3,0.6c-0.6,0.4-1,1-1.4,1.8c-0.3,0.8-0.5,1.9-0.6,3.4h0.1c0.3-0.7,0.7-1.2,1.2-1.5
		c0.5-0.3,1.1-0.5,1.7-0.5c1.2,0,2.1,0.5,2.8,1.5c0.7,1,1,2.4,1,4.2c0,1.9-0.4,3.4-1.3,4.5c-0.9,1.1-2.1,1.7-3.6,1.7
		c-1.6,0-2.8-0.7-3.6-2C403,120.6,402.6,118.7,402.6,116.1z M407.5,121.1c0.5,0,0.9-0.3,1.2-0.8c0.3-0.5,0.4-1.4,0.4-2.5
		c0-0.9-0.1-1.6-0.4-2.2c-0.3-0.5-0.7-0.8-1.2-0.8c-0.5,0-0.9,0.2-1.2,0.7s-0.5,1.1-0.5,1.9c0,1.2,0.1,2.1,0.4,2.7
		C406.6,120.8,407,121.1,407.5,121.1z"/>
</g>
<path fill="#733717" d="M379.3,211.8v54.3c0,9.1-7.4,16.5-16.5,16.5h-91.4c-9.1,0-16.5-7.4-16.5-16.5v-54.3
	c0-9.1,7.4-16.5,16.5-16.5h91.4C371.8,195.3,379.3,202.7,379.3,211.8z"/>
<g enable-background="new    ">
	<path fill="#FBD4D4" d="M276.5,213.6c0,1.8-0.5,3.4-1.4,4.6c-0.9,1.2-2.2,2.1-3.8,2.6v0.2c1.8,0.3,3.2,1,4.2,2.1
		c1,1.1,1.5,2.7,1.5,4.7c0,2.7-0.8,4.8-2.5,6.4c-1.7,1.6-3.9,2.4-6.8,2.4c-2.6,0-4.7-0.5-6.5-1.4v-4.9c0.9,0.5,1.8,0.9,2.8,1.3
		c1,0.3,2,0.5,2.9,0.5c1.5,0,2.7-0.4,3.5-1.1c0.8-0.7,1.2-1.8,1.2-3.4c0-2.9-1.8-4.4-5.4-4.4h-1.7v-4h1.6c1.6,0,2.8-0.4,3.6-1.1
		c0.8-0.7,1.3-1.9,1.3-3.3c0-1.2-0.3-2-0.8-2.6c-0.5-0.6-1.3-0.9-2.3-0.9c-1.5,0-3,0.6-4.4,1.9l-2.4-3.6c2-2,4.4-2.9,7.4-2.9
		c2.5,0,4.4,0.6,5.8,1.9C275.9,209.8,276.5,211.5,276.5,213.6z"/>
	<path fill="#FBD4D4" d="M296.2,219.8c0,11.2-3.7,16.8-11.2,16.8c-1.2,0-2.3-0.1-3.1-0.3v-4.6c0.9,0.3,1.7,0.4,2.5,0.4
		c2.2,0,3.9-0.8,5-2.3c1.1-1.5,1.8-4,1.9-7.3h-0.2c-0.4,1-1,1.9-1.8,2.5c-0.8,0.6-1.7,0.9-2.8,0.9c-2,0-3.5-0.8-4.6-2.4
		s-1.6-3.8-1.6-6.7c0-3.1,0.7-5.6,2.1-7.4c1.4-1.8,3.3-2.7,5.7-2.7c2.6,0,4.6,1.1,6,3.4C295.5,212.3,296.2,215.5,296.2,219.8z
		 M288.2,211.3c-0.8,0-1.4,0.4-1.9,1.3c-0.5,0.9-0.7,2.2-0.7,4.1c0,1.5,0.2,2.7,0.6,3.6c0.4,0.9,1,1.3,1.9,1.3c0.8,0,1.4-0.4,2-1.3
		s0.8-1.9,0.8-3c0-1.7-0.2-3.1-0.7-4.3S289,211.3,288.2,211.3z"/>
	<path fill="#FBD4D4" d="M310.7,215.8c0,3-0.5,5.3-1.5,6.8c-1,1.6-2.5,2.3-4.4,2.3c-2,0-3.4-0.8-4.4-2.3c-0.9-1.5-1.4-3.8-1.4-6.8
		c0-6.1,1.9-9.2,5.8-9.2C308.7,206.7,310.7,209.7,310.7,215.8z M303.3,215.8c0,1.8,0.1,3.2,0.4,4c0.2,0.8,0.6,1.3,1.2,1.3
		c0.6,0,1-0.4,1.2-1.3c0.3-0.8,0.4-2.2,0.4-4c0-1.8-0.1-3.2-0.4-4s-0.7-1.3-1.2-1.3c-0.6,0-1,0.4-1.2,1.3
		C303.4,212.6,303.3,214,303.3,215.8z M321.3,207.1l-12,29.1h-4.1l12-29.1H321.3z M327.5,227.4c0,3-0.5,5.3-1.5,6.8
		s-2.5,2.3-4.4,2.3c-2,0-3.4-0.8-4.4-2.3c-0.9-1.5-1.4-3.8-1.4-6.8c0-3,0.5-5.2,1.4-6.8c0.9-1.6,2.4-2.4,4.3-2.4
		C325.5,218.3,327.5,221.3,327.5,227.4z M320.1,227.4c0,1.8,0.1,3.2,0.4,4c0.2,0.8,0.6,1.3,1.2,1.3c0.6,0,1-0.4,1.2-1.3
		c0.3-0.8,0.4-2.2,0.4-4c0-1.8-0.1-3.2-0.4-4s-0.7-1.3-1.2-1.3s-0.9,0.4-1.2,1.3C320.2,224.2,320.1,225.6,320.1,227.4z"/>
</g>
<path fill="none" d="M262.5,241.8h126.3v55.3H262.5V241.8z"/>
<g enable-background="new    ">
	<path fill="#FBD4D4" d="M268.6,246.2c0,1.3-0.2,2.3-0.7,3c-0.5,0.7-1.2,1-2.1,1c-0.9,0-1.6-0.3-2.1-1c-0.5-0.7-0.7-1.7-0.7-3
		c0-1.3,0.2-2.3,0.7-3c0.5-0.7,1.2-1,2.1-1c0.9,0,1.6,0.3,2.1,1S268.6,244.9,268.6,246.2z M264.4,246.2c0,0.9,0.1,1.6,0.3,2
		s0.6,0.7,1,0.7c0.9,0,1.3-0.9,1.3-2.8c0-1.8-0.4-2.8-1.3-2.8c-0.4,0-0.8,0.2-1,0.7C264.5,244.6,264.4,245.3,264.4,246.2z"/>
	<path fill="#FBD4D4" d="M271.7,249.1c0.2,0,0.4,0,0.6-0.2v1.1c-0.2,0.2-0.6,0.2-1,0.2c-0.5,0-0.9-0.2-1.2-0.5
		c-0.2-0.3-0.4-0.8-0.4-1.4v-3.1h-0.6v-0.6l0.7-0.5l0.4-1.3h0.9v1.3h1.1v1.1h-1.1v3.1C271.2,248.9,271.4,249.1,271.7,249.1z"/>
	<path fill="#FBD4D4" d="M276.2,250.2v-3.6c0-0.9-0.2-1.3-0.7-1.3c-0.3,0-0.6,0.2-0.7,0.5c-0.1,0.3-0.2,0.8-0.2,1.5v2.9h-1.4v-8.4
		h1.4v1.9c0,0.2,0,0.7-0.1,1.3h0.1c0.3-0.6,0.7-0.9,1.3-0.9c0.5,0,1,0.2,1.2,0.6c0.3,0.4,0.4,0.9,0.4,1.6v3.9H276.2z"/>
	<path fill="#FBD4D4" d="M281,250.3c-0.7,0-1.3-0.3-1.8-0.8c-0.4-0.5-0.6-1.3-0.6-2.3c0-1,0.2-1.8,0.6-2.3c0.4-0.6,0.9-0.8,1.6-0.8
		c0.7,0,1.2,0.2,1.5,0.7s0.6,1.1,0.6,2v0.8H280c0,0.5,0.1,0.9,0.3,1.2c0.2,0.3,0.5,0.4,0.9,0.4c0.5,0,0.9-0.1,1.4-0.4v1.2
		C282.2,250.1,281.6,250.3,281,250.3z M280.8,245.2c-0.2,0-0.4,0.1-0.5,0.3c-0.1,0.2-0.2,0.6-0.2,1h1.5c0-0.4-0.1-0.8-0.2-1
		C281.2,245.3,281,245.2,280.8,245.2z"/>
	<path fill="#FBD4D4" d="M286.4,244.1c0.2,0,0.3,0,0.5,0.1l-0.2,1.4c-0.1,0-0.2-0.1-0.4-0.1c-0.3,0-0.6,0.1-0.8,0.4
		c-0.2,0.3-0.3,0.7-0.3,1.2v3.1h-1.4v-6h1.2l0.2,0.9h0c0.2-0.4,0.3-0.6,0.5-0.8C285.9,244.1,286.1,244.1,286.4,244.1z"/>
	<path fill="#FBD4D4" d="M292.9,245.3h-1v4.8h-1.4v-4.8h-0.7v-0.7l0.7-0.4v-0.5c0-0.7,0.1-1.2,0.4-1.5c0.3-0.3,0.7-0.5,1.3-0.5
		c0.4,0,0.7,0.1,1.1,0.2l-0.4,1.1c-0.2-0.1-0.4-0.1-0.5-0.1c-0.2,0-0.3,0.1-0.4,0.2s-0.1,0.3-0.1,0.6v0.4h1V245.3z"/>
	<path fill="#FBD4D4" d="M296.5,250.2l-0.3-0.8h0c-0.2,0.4-0.4,0.6-0.7,0.7c-0.2,0.1-0.5,0.2-0.9,0.2c-0.4,0-0.8-0.2-1-0.5
		c-0.3-0.3-0.4-0.8-0.4-1.4c0-0.6,0.2-1.1,0.5-1.4c0.3-0.3,0.9-0.5,1.5-0.5l0.8,0V246c0-0.6-0.2-0.8-0.7-0.8c-0.4,0-0.8,0.1-1.2,0.4
		l-0.5-1c0.6-0.4,1.2-0.6,1.9-0.6c0.6,0,1.1,0.2,1.4,0.5s0.5,0.9,0.5,1.5v4H296.5z M295.2,249.2c0.3,0,0.5-0.1,0.6-0.4
		c0.2-0.2,0.2-0.5,0.2-0.9v-0.5l-0.4,0c-0.3,0-0.6,0.1-0.7,0.3c-0.2,0.2-0.2,0.4-0.2,0.8C294.7,248.9,294.9,249.2,295.2,249.2z"/>
	<path fill="#FBD4D4" d="M304.6,250.2v-3.6c0-0.9-0.2-1.3-0.6-1.3c-0.3,0-0.5,0.2-0.7,0.5c-0.1,0.3-0.2,0.8-0.2,1.5v2.9h-1.4v-3.6
		c0-0.9-0.2-1.3-0.7-1.3c-0.3,0-0.5,0.2-0.7,0.5s-0.2,0.8-0.2,1.5v2.9h-1.4v-6h1.1l0.2,0.8h0.1c0.1-0.3,0.3-0.5,0.6-0.7
		c0.2-0.1,0.5-0.2,0.8-0.2c0.7,0,1.2,0.3,1.5,1h0.1c0.3-0.7,0.8-1,1.5-1c0.5,0,0.9,0.2,1.2,0.6c0.3,0.4,0.4,0.9,0.4,1.6v3.9H304.6z"
		/>
	<path fill="#FBD4D4" d="M307.2,242.6c0-0.2,0.1-0.4,0.2-0.6s0.3-0.2,0.6-0.2c0.2,0,0.4,0.1,0.6,0.2s0.2,0.3,0.2,0.6
		c0,0.2-0.1,0.4-0.2,0.6c-0.1,0.1-0.3,0.2-0.6,0.2c-0.2,0-0.4-0.1-0.6-0.2C307.2,243,307.2,242.9,307.2,242.6z M308.7,250.2h-1.4v-6
		h1.4V250.2z"/>
	<path fill="#FBD4D4" d="M311.3,250.2h-1.4v-8.4h1.4V250.2z"/>
	<path fill="#FBD4D4" d="M311.9,244.2h1.5l0.8,3.4c0.1,0.3,0.1,0.7,0.2,1.3h0c0-0.1,0-0.2,0-0.5c0-0.2,0.1-0.4,0.1-0.5
		c0-0.1,0.3-1.3,0.7-3.7h1.5l-1.7,6.4c-0.2,0.8-0.5,1.4-0.8,1.7s-0.8,0.5-1.4,0.5c-0.3,0-0.5,0-0.8-0.1v-1.2c0.1,0,0.3,0.1,0.5,0.1
		c0.5,0,0.8-0.3,0.9-0.9l0.1-0.4L311.9,244.2z"/>
	<path fill="#FBD4D4" d="M326.1,250.2v-3.6c0-0.9-0.2-1.3-0.7-1.3c-0.3,0-0.5,0.2-0.7,0.5c-0.1,0.3-0.2,0.8-0.2,1.5v2.9h-1.4v-3.6
		c0-0.9-0.2-1.3-0.7-1.3c-0.3,0-0.5,0.2-0.7,0.5s-0.2,0.8-0.2,1.5v2.9h-1.4v-6h1.1l0.2,0.8h0.1c0.1-0.3,0.3-0.5,0.6-0.7
		s0.5-0.2,0.8-0.2c0.7,0,1.2,0.3,1.5,1h0.1c0.3-0.7,0.8-1,1.5-1c0.5,0,0.9,0.2,1.2,0.6c0.3,0.4,0.4,0.9,0.4,1.6v3.9H326.1z"/>
	<path fill="#FBD4D4" d="M330.9,250.3c-0.7,0-1.3-0.3-1.8-0.8c-0.4-0.5-0.6-1.3-0.6-2.3c0-1,0.2-1.8,0.6-2.3
		c0.4-0.6,0.9-0.8,1.6-0.8c0.7,0,1.2,0.2,1.5,0.7s0.6,1.1,0.6,2v0.8h-2.9c0,0.5,0.1,0.9,0.3,1.2c0.2,0.3,0.5,0.4,0.9,0.4
		c0.5,0,0.9-0.1,1.4-0.4v1.2C332.1,250.1,331.5,250.3,330.9,250.3z M330.7,245.2c-0.2,0-0.4,0.1-0.5,0.3c-0.1,0.2-0.2,0.6-0.2,1h1.5
		c0-0.4-0.1-0.8-0.2-1C331.1,245.3,330.9,245.2,330.7,245.2z"/>
	<path fill="#FBD4D4" d="M339.7,250.2v-3.6c0-0.9-0.2-1.3-0.6-1.3c-0.3,0-0.5,0.2-0.7,0.5c-0.1,0.3-0.2,0.8-0.2,1.5v2.9h-1.4v-3.6
		c0-0.9-0.2-1.3-0.7-1.3c-0.3,0-0.5,0.2-0.7,0.5s-0.2,0.8-0.2,1.5v2.9h-1.4v-6h1.1l0.2,0.8h0.1c0.1-0.3,0.3-0.5,0.6-0.7
		c0.2-0.1,0.5-0.2,0.8-0.2c0.7,0,1.2,0.3,1.5,1h0.1c0.3-0.7,0.8-1,1.5-1c0.5,0,0.9,0.2,1.2,0.6c0.3,0.4,0.4,0.9,0.4,1.6v3.9H339.7z"
		/>
	<path fill="#FBD4D4" d="M345,244.1c0.5,0,1,0.3,1.3,0.8s0.5,1.3,0.5,2.3c0,1-0.2,1.8-0.5,2.3c-0.3,0.5-0.7,0.8-1.3,0.8
		c-0.3,0-0.5-0.1-0.7-0.2c-0.2-0.1-0.4-0.3-0.6-0.6h-0.1l-0.2,0.7h-1.1v-8.4h1.4v2c0,0.1,0,0.2,0,0.3c0,0.1,0,0.4-0.1,0.9h0.1
		c0.2-0.3,0.4-0.6,0.6-0.7S344.7,244.1,345,244.1z M344.5,245.3c-0.3,0-0.5,0.1-0.6,0.4s-0.2,0.7-0.2,1.3v0.1c0,0.7,0.1,1.2,0.2,1.5
		c0.1,0.3,0.3,0.4,0.6,0.4c0.5,0,0.8-0.6,0.8-1.9C345.3,245.9,345,245.3,344.5,245.3z"/>
	<path fill="#FBD4D4" d="M349.9,250.3c-0.7,0-1.3-0.3-1.8-0.8c-0.4-0.5-0.6-1.3-0.6-2.3c0-1,0.2-1.8,0.6-2.3
		c0.4-0.6,0.9-0.8,1.6-0.8c0.7,0,1.2,0.2,1.5,0.7s0.6,1.1,0.6,2v0.8H349c0,0.5,0.1,0.9,0.3,1.2c0.2,0.3,0.5,0.4,0.9,0.4
		c0.5,0,0.9-0.1,1.4-0.4v1.2C351.1,250.1,350.6,250.3,349.9,250.3z M349.7,245.2c-0.2,0-0.4,0.1-0.5,0.3c-0.1,0.2-0.2,0.6-0.2,1h1.5
		c0-0.4-0.1-0.8-0.2-1C350.1,245.3,349.9,245.2,349.7,245.2z"/>
	<path fill="#FBD4D4" d="M355.3,244.1c0.2,0,0.3,0,0.5,0.1l-0.2,1.4c-0.1,0-0.2-0.1-0.4-0.1c-0.3,0-0.6,0.1-0.8,0.4
		c-0.2,0.3-0.3,0.7-0.3,1.2v3.1h-1.4v-6h1.2l0.2,0.9h0c0.2-0.4,0.3-0.6,0.5-0.8C354.9,244.1,355.1,244.1,355.3,244.1z"/>
	<path fill="#FBD4D4" d="M359.7,248.4c0,0.6-0.2,1-0.5,1.4c-0.3,0.3-0.8,0.5-1.5,0.5c-0.6,0-1.1-0.1-1.5-0.3v-1.2
		c0.2,0.1,0.4,0.2,0.7,0.3c0.3,0.1,0.5,0.1,0.7,0.1c0.2,0,0.4-0.1,0.5-0.2c0.1-0.1,0.2-0.3,0.2-0.4c0-0.2-0.1-0.3-0.2-0.5
		c-0.1-0.1-0.3-0.3-0.7-0.5c-0.4-0.3-0.7-0.5-0.9-0.8c-0.2-0.3-0.3-0.6-0.3-1c0-0.5,0.2-0.9,0.5-1.2c0.3-0.3,0.8-0.4,1.4-0.4
		c0.5,0,1,0.1,1.5,0.4l-0.5,1c-0.4-0.2-0.7-0.3-1-0.3c-0.2,0-0.3,0-0.4,0.1c-0.1,0.1-0.1,0.2-0.1,0.4c0,0.2,0.1,0.3,0.2,0.4
		c0.1,0.1,0.3,0.3,0.6,0.5c0.4,0.2,0.6,0.4,0.8,0.6c0.2,0.2,0.3,0.3,0.3,0.5C359.7,247.9,359.7,248.1,359.7,248.4z"/>
	<path fill="#FBD4D4" d="M362.3,249c-0.2,0.7-0.5,1.6-0.9,2.6h-1.1c0.2-1,0.4-1.9,0.5-2.7h1.4L362.3,249z"/>
</g>
<g enable-background="new    ">
	<path fill="#FBD4D4" d="M265.8,259.1h-1v4.8h-1.4v-4.8h-0.7v-0.7l0.7-0.4v-0.5c0-0.7,0.1-1.2,0.4-1.5c0.3-0.3,0.7-0.5,1.3-0.5
		c0.4,0,0.7,0.1,1.1,0.2l-0.4,1.1c-0.2-0.1-0.4-0.1-0.5-0.1c-0.2,0-0.3,0.1-0.4,0.2s-0.1,0.3-0.1,0.6v0.4h1V259.1z"/>
	<path fill="#FBD4D4" d="M268.9,257.9c0.2,0,0.3,0,0.5,0.1l-0.2,1.4c-0.1,0-0.2-0.1-0.4-0.1c-0.3,0-0.6,0.1-0.8,0.4
		c-0.2,0.3-0.3,0.7-0.3,1.2v3.1h-1.4v-6h1.2l0.2,0.9h0c0.2-0.4,0.3-0.6,0.5-0.8C268.5,257.9,268.7,257.9,268.9,257.9z"/>
	<path fill="#FBD4D4" d="M270,256.4c0-0.2,0.1-0.4,0.2-0.6s0.3-0.2,0.6-0.2c0.2,0,0.4,0.1,0.6,0.2s0.2,0.3,0.2,0.6
		c0,0.2-0.1,0.4-0.2,0.6c-0.1,0.1-0.3,0.2-0.6,0.2c-0.2,0-0.4-0.1-0.6-0.2C270.1,256.8,270,256.7,270,256.4z M271.5,264h-1.4v-6h1.4
		V264z"/>
	<path fill="#FBD4D4" d="M275,264.1c-0.7,0-1.3-0.3-1.8-0.8c-0.4-0.5-0.6-1.3-0.6-2.3c0-1,0.2-1.8,0.6-2.3c0.4-0.6,0.9-0.8,1.6-0.8
		c0.7,0,1.2,0.2,1.5,0.7s0.6,1.1,0.6,2v0.8H274c0,0.5,0.1,0.9,0.3,1.2c0.2,0.3,0.5,0.4,0.9,0.4c0.5,0,0.9-0.1,1.4-0.4v1.2
		C276.1,263.9,275.6,264.1,275,264.1z M274.7,259c-0.2,0-0.4,0.1-0.5,0.3c-0.1,0.2-0.2,0.6-0.2,1h1.5c0-0.4-0.1-0.8-0.2-1
		C275.1,259.1,275,259,274.7,259z"/>
	<path fill="#FBD4D4" d="M280.8,264v-3.6c0-0.4-0.1-0.8-0.2-1c-0.1-0.2-0.3-0.3-0.5-0.3c-0.3,0-0.5,0.2-0.7,0.5
		c-0.1,0.3-0.2,0.8-0.2,1.5v2.9h-1.4v-6h1.1l0.2,0.8h0.1c0.1-0.3,0.3-0.5,0.6-0.6c0.2-0.2,0.5-0.2,0.8-0.2c0.5,0,1,0.2,1.2,0.6
		c0.3,0.4,0.4,0.9,0.4,1.6v3.9H280.8z"/>
	<path fill="#FBD4D4" d="M285,264.1c-0.6,0-1-0.3-1.3-0.8c-0.3-0.5-0.5-1.3-0.5-2.3c0-1,0.2-1.7,0.5-2.3c0.3-0.6,0.7-0.8,1.3-0.8
		c0.3,0,0.5,0.1,0.7,0.2c0.2,0.1,0.4,0.4,0.6,0.7h0.1c0-0.5-0.1-0.9-0.1-1.1v-2h1.4v8.4h-1.1l-0.2-0.8h0
		C286,263.8,285.5,264.1,285,264.1z M285.4,262.9c0.3,0,0.5-0.1,0.6-0.4c0.1-0.2,0.2-0.7,0.2-1.3V261c0-0.7-0.1-1.2-0.2-1.5
		c-0.1-0.3-0.3-0.4-0.6-0.4c-0.3,0-0.5,0.2-0.6,0.5c-0.1,0.3-0.2,0.8-0.2,1.4c0,0.6,0.1,1.1,0.2,1.4
		C285,262.7,285.2,262.9,285.4,262.9z"/>
	<path fill="#FBD4D4" d="M292.1,262.2c0,0.6-0.2,1-0.5,1.4c-0.3,0.3-0.8,0.5-1.5,0.5c-0.6,0-1.1-0.1-1.5-0.3v-1.2
		c0.2,0.1,0.4,0.2,0.7,0.3c0.3,0.1,0.5,0.1,0.7,0.1c0.2,0,0.4-0.1,0.5-0.2c0.1-0.1,0.2-0.3,0.2-0.4c0-0.2-0.1-0.3-0.2-0.5
		c-0.1-0.1-0.3-0.3-0.7-0.5c-0.4-0.3-0.7-0.5-0.9-0.8c-0.2-0.3-0.3-0.6-0.3-1c0-0.5,0.2-0.9,0.5-1.2c0.3-0.3,0.8-0.4,1.4-0.4
		c0.5,0,1,0.1,1.5,0.4l-0.5,1c-0.4-0.2-0.7-0.3-1-0.3c-0.2,0-0.3,0-0.4,0.1c-0.1,0.1-0.1,0.2-0.1,0.4c0,0.2,0.1,0.3,0.2,0.4
		c0.1,0.1,0.3,0.3,0.6,0.5c0.4,0.2,0.6,0.4,0.8,0.6c0.2,0.2,0.3,0.3,0.3,0.5C292,261.7,292.1,261.9,292.1,262.2z"/>
	<path fill="#FBD4D4" d="M294.7,262.8c-0.2,0.7-0.5,1.6-0.9,2.6h-1.1c0.2-1,0.4-1.9,0.5-2.7h1.4L294.7,262.8z"/>
	<path fill="#FBD4D4" d="M300.6,264.1c-0.7,0-1.3-0.3-1.6-0.8c-0.4-0.5-0.6-1.3-0.6-2.3c0-1.1,0.2-1.8,0.5-2.4
		c0.4-0.5,0.9-0.8,1.6-0.8c0.2,0,0.5,0,0.7,0.1c0.2,0.1,0.5,0.2,0.7,0.3l-0.4,1.1c-0.3-0.2-0.6-0.3-0.8-0.3c-0.3,0-0.5,0.2-0.7,0.5
		c-0.1,0.3-0.2,0.8-0.2,1.4c0,0.6,0.1,1.1,0.2,1.4c0.1,0.3,0.3,0.5,0.7,0.5c0.4,0,0.7-0.1,1.1-0.4v1.3
		C301.5,264,301.1,264.1,300.6,264.1z"/>
	<path fill="#FBD4D4" d="M304.2,264h-1.4v-8.4h1.4V264z"/>
	<path fill="#FBD4D4" d="M308.3,264l-0.3-0.8h0c-0.2,0.4-0.4,0.6-0.7,0.7c-0.2,0.1-0.5,0.2-0.9,0.2c-0.4,0-0.8-0.2-1-0.5
		c-0.3-0.3-0.4-0.8-0.4-1.4c0-0.6,0.2-1.1,0.5-1.4c0.3-0.3,0.9-0.5,1.5-0.5l0.8,0v-0.4c0-0.6-0.2-0.8-0.7-0.8
		c-0.4,0-0.8,0.1-1.2,0.4l-0.5-1c0.6-0.4,1.2-0.6,1.9-0.6c0.6,0,1.1,0.2,1.4,0.5c0.3,0.4,0.5,0.9,0.5,1.5v4H308.3z M307,263
		c0.3,0,0.5-0.1,0.6-0.4c0.2-0.2,0.2-0.5,0.2-0.9v-0.5l-0.4,0c-0.3,0-0.6,0.1-0.7,0.3s-0.2,0.4-0.2,0.8
		C306.5,262.7,306.7,263,307,263z"/>
	<path fill="#FBD4D4" d="M313.7,262.2c0,0.6-0.2,1-0.5,1.4c-0.3,0.3-0.8,0.5-1.5,0.5c-0.6,0-1.1-0.1-1.5-0.3v-1.2
		c0.2,0.1,0.4,0.2,0.7,0.3c0.3,0.1,0.5,0.1,0.7,0.1c0.2,0,0.4-0.1,0.5-0.2c0.1-0.1,0.2-0.3,0.2-0.4c0-0.2-0.1-0.3-0.2-0.5
		c-0.1-0.1-0.3-0.3-0.7-0.5c-0.4-0.3-0.7-0.5-0.9-0.8c-0.2-0.3-0.3-0.6-0.3-1c0-0.5,0.2-0.9,0.5-1.2c0.3-0.3,0.8-0.4,1.4-0.4
		c0.5,0,1,0.1,1.5,0.4l-0.5,1c-0.4-0.2-0.7-0.3-1-0.3c-0.2,0-0.3,0-0.4,0.1c-0.1,0.1-0.1,0.2-0.1,0.4c0,0.2,0.1,0.3,0.2,0.4
		c0.1,0.1,0.3,0.3,0.6,0.5c0.4,0.2,0.6,0.4,0.8,0.6c0.2,0.2,0.3,0.3,0.3,0.5C313.7,261.7,313.7,261.9,313.7,262.2z"/>
	<path fill="#FBD4D4" d="M317.8,262.2c0,0.6-0.2,1-0.5,1.4c-0.3,0.3-0.8,0.5-1.5,0.5c-0.6,0-1.1-0.1-1.5-0.3v-1.2
		c0.2,0.1,0.4,0.2,0.7,0.3c0.3,0.1,0.5,0.1,0.7,0.1c0.2,0,0.4-0.1,0.5-0.2c0.1-0.1,0.2-0.3,0.2-0.4c0-0.2-0.1-0.3-0.2-0.5
		c-0.1-0.1-0.3-0.3-0.7-0.5c-0.4-0.3-0.7-0.5-0.9-0.8c-0.2-0.3-0.3-0.6-0.3-1c0-0.5,0.2-0.9,0.5-1.2c0.3-0.3,0.8-0.4,1.4-0.4
		c0.5,0,1,0.1,1.5,0.4l-0.5,1c-0.4-0.2-0.7-0.3-1-0.3c-0.2,0-0.3,0-0.4,0.1c-0.1,0.1-0.1,0.2-0.1,0.4c0,0.2,0.1,0.3,0.2,0.4
		c0.1,0.1,0.3,0.3,0.6,0.5c0.4,0.2,0.6,0.4,0.8,0.6c0.2,0.2,0.3,0.3,0.3,0.5C317.8,261.7,317.8,261.9,317.8,262.2z"/>
	<path fill="#FBD4D4" d="M324.7,264v-3.6c0-0.9-0.2-1.3-0.7-1.3c-0.3,0-0.5,0.2-0.7,0.5c-0.1,0.3-0.2,0.8-0.2,1.5v2.9h-1.4v-3.6
		c0-0.9-0.2-1.3-0.7-1.3c-0.3,0-0.5,0.2-0.7,0.5s-0.2,0.8-0.2,1.5v2.9h-1.4v-6h1.1l0.2,0.8h0.1c0.1-0.3,0.3-0.5,0.6-0.7
		s0.5-0.2,0.8-0.2c0.7,0,1.2,0.3,1.5,1h0.1c0.3-0.7,0.8-1,1.5-1c0.5,0,0.9,0.2,1.2,0.6c0.3,0.4,0.4,0.9,0.4,1.6v3.9H324.7z"/>
	<path fill="#FBD4D4" d="M330.2,264l-0.3-0.8h0c-0.2,0.4-0.4,0.6-0.7,0.7c-0.2,0.1-0.5,0.2-0.9,0.2c-0.4,0-0.8-0.2-1-0.5
		c-0.3-0.3-0.4-0.8-0.4-1.4c0-0.6,0.2-1.1,0.5-1.4c0.3-0.3,0.9-0.5,1.5-0.5l0.8,0v-0.4c0-0.6-0.2-0.8-0.7-0.8
		c-0.4,0-0.8,0.1-1.2,0.4l-0.5-1c0.6-0.4,1.2-0.6,1.9-0.6c0.6,0,1.1,0.2,1.4,0.5s0.5,0.9,0.5,1.5v4H330.2z M328.9,263
		c0.3,0,0.5-0.1,0.6-0.4c0.2-0.2,0.2-0.5,0.2-0.9v-0.5l-0.4,0c-0.3,0-0.6,0.1-0.7,0.3c-0.2,0.2-0.2,0.4-0.2,0.8
		C328.4,262.7,328.6,263,328.9,263z"/>
	<path fill="#FBD4D4" d="M334.5,262.9c0.2,0,0.4,0,0.6-0.2v1.1c-0.2,0.2-0.6,0.2-1,0.2c-0.5,0-0.9-0.2-1.2-0.5
		c-0.2-0.3-0.4-0.8-0.4-1.4v-3.1H332v-0.6l0.7-0.5l0.4-1.3h0.9v1.3h1.1v1.1H334v3.1C334,262.7,334.1,262.9,334.5,262.9z"/>
	<path fill="#FBD4D4" d="M338.2,264.1c-0.7,0-1.3-0.3-1.8-0.8c-0.4-0.5-0.6-1.3-0.6-2.3c0-1,0.2-1.8,0.6-2.3
		c0.4-0.6,0.9-0.8,1.6-0.8c0.7,0,1.2,0.2,1.5,0.7s0.6,1.1,0.6,2v0.8h-2.9c0,0.5,0.1,0.9,0.3,1.2c0.2,0.3,0.5,0.4,0.9,0.4
		c0.5,0,0.9-0.1,1.4-0.4v1.2C339.4,263.9,338.8,264.1,338.2,264.1z M338,259c-0.2,0-0.4,0.1-0.5,0.3c-0.1,0.2-0.2,0.6-0.2,1h1.5
		c0-0.4-0.1-0.8-0.2-1C338.3,259.1,338.2,259,338,259z"/>
	<path fill="#FBD4D4" d="M344.8,256.1l-2.9,7.9h-1.4l2.9-7.9H344.8z"/>
	<path fill="#FBD4D4" d="M349.9,261c0,1-0.2,1.7-0.6,2.3c-0.4,0.5-1,0.8-1.7,0.8c-0.5,0-0.9-0.1-1.2-0.4c-0.4-0.3-0.6-0.6-0.8-1.1
		c-0.2-0.5-0.3-1-0.3-1.7c0-1,0.2-1.7,0.6-2.3c0.4-0.5,1-0.8,1.7-0.8c0.7,0,1.3,0.3,1.7,0.8C349.7,259.3,349.9,260,349.9,261z
		 M346.7,261c0,0.6,0.1,1.1,0.2,1.4c0.1,0.3,0.4,0.5,0.7,0.5c0.6,0,0.9-0.6,0.9-1.9c0-0.6-0.1-1.1-0.2-1.4c-0.1-0.3-0.4-0.5-0.7-0.5
		c-0.3,0-0.5,0.2-0.7,0.5C346.8,259.9,346.7,260.3,346.7,261z"/>
	<path fill="#FBD4D4" d="M353,262.9c0.2,0,0.4,0,0.7-0.2v1.1c-0.2,0.2-0.6,0.2-1,0.2c-0.5,0-0.9-0.2-1.2-0.5
		c-0.3-0.3-0.4-0.8-0.4-1.4v-3.1h-0.6v-0.6l0.7-0.5l0.4-1.3h0.9v1.3h1.1v1.1h-1.1v3.1C352.5,262.7,352.7,262.9,353,262.9z"/>
	<path fill="#FBD4D4" d="M357.4,264v-3.6c0-0.9-0.2-1.3-0.7-1.3c-0.3,0-0.6,0.2-0.7,0.5c-0.1,0.3-0.2,0.8-0.2,1.5v2.9h-1.4v-8.4h1.4
		v1.9c0,0.2,0,0.7-0.1,1.3h0.1c0.3-0.6,0.7-0.9,1.3-0.9c0.5,0,1,0.2,1.2,0.6c0.3,0.4,0.4,0.9,0.4,1.6v3.9H357.4z"/>
	<path fill="#FBD4D4" d="M362.2,264.1c-0.7,0-1.3-0.3-1.8-0.8c-0.4-0.5-0.6-1.3-0.6-2.3c0-1,0.2-1.8,0.6-2.3
		c0.4-0.6,0.9-0.8,1.6-0.8c0.7,0,1.2,0.2,1.5,0.7s0.6,1.1,0.6,2v0.8h-2.9c0,0.5,0.1,0.9,0.3,1.2c0.2,0.3,0.5,0.4,0.9,0.4
		c0.5,0,0.9-0.1,1.4-0.4v1.2C363.4,263.9,362.9,264.1,362.2,264.1z M362,259c-0.2,0-0.4,0.1-0.5,0.3c-0.1,0.2-0.2,0.6-0.2,1h1.5
		c0-0.4-0.1-0.8-0.2-1C362.4,259.1,362.3,259,362,259z"/>
	<path fill="#FBD4D4" d="M367.7,257.9c0.2,0,0.3,0,0.5,0.1l-0.2,1.4c-0.1,0-0.2-0.1-0.4-0.1c-0.3,0-0.6,0.1-0.8,0.4
		c-0.2,0.3-0.3,0.7-0.3,1.2v3.1h-1.4v-6h1.2l0.2,0.9h0c0.2-0.4,0.3-0.6,0.5-0.8C367.2,257.9,367.4,257.9,367.7,257.9z"/>
	<path fill="#FBD4D4" d="M372,262.2c0,0.6-0.2,1-0.5,1.4c-0.3,0.3-0.8,0.5-1.5,0.5c-0.6,0-1.1-0.1-1.5-0.3v-1.2
		c0.2,0.1,0.4,0.2,0.7,0.3c0.3,0.1,0.5,0.1,0.7,0.1c0.2,0,0.4-0.1,0.5-0.2c0.1-0.1,0.2-0.3,0.2-0.4c0-0.2-0.1-0.3-0.2-0.5
		c-0.1-0.1-0.3-0.3-0.7-0.5c-0.4-0.3-0.7-0.5-0.9-0.8c-0.2-0.3-0.3-0.6-0.3-1c0-0.5,0.2-0.9,0.5-1.2c0.3-0.3,0.8-0.4,1.4-0.4
		c0.5,0,1,0.1,1.5,0.4l-0.5,1c-0.4-0.2-0.7-0.3-1-0.3c-0.2,0-0.3,0-0.4,0.1c-0.1,0.1-0.1,0.2-0.1,0.4c0,0.2,0.1,0.3,0.2,0.4
		c0.1,0.1,0.3,0.3,0.6,0.5c0.4,0.2,0.6,0.4,0.8,0.6c0.2,0.2,0.3,0.3,0.3,0.5C372,261.7,372,261.9,372,262.2z"/>
</g>
<g enable-background="new    ">
	<path fill="#FBD4D4" d="M275,131.8h2.2c0.9,0,1.5,0.2,1.9,0.5s0.6,0.9,0.6,1.6c0,0.5-0.1,0.9-0.3,1.2s-0.5,0.5-0.9,0.6v0.1
		c0.5,0.1,0.8,0.3,1,0.7s0.3,0.8,0.3,1.3c0,0.8-0.2,1.4-0.6,1.8s-1,0.7-1.7,0.7H275V131.8z M276.5,135.2h0.7c0.3,0,0.6-0.1,0.7-0.3
		s0.2-0.4,0.2-0.8s-0.1-0.6-0.2-0.8s-0.4-0.2-0.7-0.2h-0.7V135.2z M276.5,136.6v2.4h0.8c0.3,0,0.6-0.1,0.7-0.3s0.2-0.5,0.2-0.9
		c0-0.8-0.3-1.1-1-1.1H276.5z"/>
	<path fill="#FBD4D4" d="M281.4,140.3v-8.6h1.5v8.6H281.4z"/>
	<path fill="#FBD4D4" d="M286.1,140.3h-1.6v-9.1h1.6V140.3z"/>
	<path fill="#FBD4D4" d="M289,140.3h-1.6v-9.1h1.6V140.3z"/>
	<path fill="#FBD4D4" d="M290.3,132.1c0-0.3,0.1-0.5,0.2-0.6s0.4-0.2,0.6-0.2c0.3,0,0.5,0.1,0.6,0.2s0.2,0.4,0.2,0.6
		c0,0.3-0.1,0.5-0.2,0.6s-0.4,0.2-0.6,0.2c-0.3,0-0.5-0.1-0.6-0.2S290.3,132.4,290.3,132.1z M291.9,140.3h-1.6v-6.5h1.6V140.3z"/>
	<path fill="#FBD4D4" d="M298,137.1c0,1.1-0.2,1.9-0.7,2.5s-1.1,0.9-1.9,0.9c-0.5,0-0.9-0.1-1.3-0.4s-0.7-0.7-0.9-1.2
		s-0.3-1.1-0.3-1.8c0-1.1,0.2-1.9,0.7-2.5s1.1-0.9,1.9-0.9c0.8,0,1.4,0.3,1.8,0.9S298,136,298,137.1z M294.6,137.1
		c0,0.7,0.1,1.2,0.2,1.5s0.4,0.5,0.7,0.5c0.6,0,0.9-0.7,0.9-2.1c0-0.7-0.1-1.2-0.2-1.5s-0.4-0.5-0.7-0.5c-0.3,0-0.6,0.2-0.7,0.5
		S294.6,136.4,294.6,137.1z"/>
	<path fill="#FBD4D4" d="M302.4,140.3v-3.9c0-0.5-0.1-0.8-0.2-1.1s-0.3-0.4-0.6-0.4c-0.3,0-0.6,0.2-0.7,0.5s-0.2,0.9-0.2,1.7v3.1
		h-1.6v-6.5h1.2l0.2,0.8h0.1c0.1-0.3,0.3-0.5,0.6-0.7s0.6-0.3,0.9-0.3c0.6,0,1,0.2,1.3,0.6s0.4,1,0.4,1.8v4.3H302.4z"/>
	<path fill="#FBD4D4" d="M313.6,131.8v5.5c0,1-0.2,1.8-0.7,2.3s-1.1,0.8-2,0.8c-0.9,0-1.5-0.3-1.9-0.8s-0.7-1.3-0.7-2.4v-5.5h1.6
		v5.6c0,1.1,0.4,1.6,1.1,1.6c0.3,0,0.6-0.1,0.8-0.4s0.3-0.7,0.3-1.2v-5.7H313.6z"/>
	<path fill="#FBD4D4" d="M318.9,138c0,0.8-0.2,1.4-0.6,1.8s-1,0.6-1.7,0.6c-0.7,0-1.4-0.1-1.9-0.4v-1.6c0.6,0.4,1.2,0.6,1.8,0.6
		c0.3,0,0.5-0.1,0.7-0.3s0.2-0.4,0.2-0.7c0-0.3-0.1-0.5-0.3-0.8s-0.5-0.5-0.9-0.8c-0.4-0.3-0.6-0.5-0.8-0.7s-0.3-0.5-0.4-0.8
		s-0.2-0.6-0.2-1c0-0.7,0.2-1.3,0.6-1.7s1-0.6,1.6-0.6c0.7,0,1.3,0.2,1.9,0.6l-0.5,1.3c-0.2-0.1-0.4-0.2-0.6-0.3s-0.4-0.1-0.7-0.1
		c-0.3,0-0.5,0.1-0.6,0.3s-0.2,0.4-0.2,0.7c0,0.3,0.1,0.5,0.2,0.8s0.5,0.5,0.9,0.7c0.6,0.4,0.9,0.8,1.2,1.1S318.9,137.5,318.9,138z"
		/>
	<path fill="#FBD4D4" d="M325.4,136c0,1.4-0.3,2.5-0.9,3.2s-1.4,1.1-2.5,1.1H320v-8.6h2.3c1,0,1.8,0.4,2.3,1.1
		S325.4,134.7,325.4,136z M323.8,136c0-1.9-0.5-2.9-1.6-2.9h-0.6v5.8h0.5c0.6,0,1-0.2,1.3-0.7S323.8,137,323.8,136z"/>
</g>
<g enable-background="new    ">
	<path fill="#FBD4D4" d="M363.3,131.8h2.2c0.9,0,1.5,0.2,1.9,0.5s0.6,0.9,0.6,1.6c0,0.5-0.1,0.9-0.3,1.2s-0.5,0.5-0.9,0.6v0.1
		c0.5,0.1,0.8,0.3,1,0.7s0.3,0.8,0.3,1.3c0,0.8-0.2,1.4-0.6,1.8s-1,0.7-1.7,0.7h-2.6V131.8z M364.8,135.2h0.7c0.3,0,0.6-0.1,0.7-0.3
		s0.2-0.4,0.2-0.8s-0.1-0.6-0.2-0.8s-0.4-0.2-0.7-0.2h-0.7V135.2z M364.8,136.6v2.4h0.8c0.3,0,0.6-0.1,0.7-0.3s0.2-0.5,0.2-0.9
		c0-0.8-0.3-1.1-1-1.1H364.8z"/>
	<path fill="#FBD4D4" d="M369.7,140.3v-8.6h1.5v8.6H369.7z"/>
	<path fill="#FBD4D4" d="M374.5,140.3h-1.6v-9.1h1.6V140.3z"/>
	<path fill="#FBD4D4" d="M377.3,140.3h-1.6v-9.1h1.6V140.3z"/>
	<path fill="#FBD4D4" d="M378.6,132.1c0-0.3,0.1-0.5,0.2-0.6s0.4-0.2,0.6-0.2c0.3,0,0.5,0.1,0.6,0.2s0.2,0.4,0.2,0.6
		c0,0.3-0.1,0.5-0.2,0.6s-0.4,0.2-0.6,0.2c-0.3,0-0.5-0.1-0.6-0.2S378.6,132.4,378.6,132.1z M380.2,140.3h-1.6v-6.5h1.6V140.3z"/>
	<path fill="#FBD4D4" d="M386.4,137.1c0,1.1-0.2,1.9-0.7,2.5s-1.1,0.9-1.9,0.9c-0.5,0-0.9-0.1-1.3-0.4s-0.7-0.7-0.9-1.2
		s-0.3-1.1-0.3-1.8c0-1.1,0.2-1.9,0.7-2.5s1.1-0.9,1.9-0.9c0.8,0,1.4,0.3,1.8,0.9S386.4,136,386.4,137.1z M382.9,137.1
		c0,0.7,0.1,1.2,0.2,1.5s0.4,0.5,0.7,0.5c0.6,0,0.9-0.7,0.9-2.1c0-0.7-0.1-1.2-0.2-1.5s-0.4-0.5-0.7-0.5c-0.3,0-0.6,0.2-0.7,0.5
		S382.9,136.4,382.9,137.1z"/>
	<path fill="#FBD4D4" d="M390.7,140.3v-3.9c0-0.5-0.1-0.8-0.2-1.1s-0.3-0.4-0.6-0.4c-0.3,0-0.6,0.2-0.7,0.5s-0.2,0.9-0.2,1.7v3.1
		h-1.6v-6.5h1.2l0.2,0.8h0.1c0.1-0.3,0.3-0.5,0.6-0.7s0.6-0.3,0.9-0.3c0.6,0,1,0.2,1.3,0.6s0.4,1,0.4,1.8v4.3H390.7z"/>
	<path fill="#FBD4D4" d="M401.9,131.8v5.5c0,1-0.2,1.8-0.7,2.3s-1.1,0.8-2,0.8c-0.9,0-1.5-0.3-1.9-0.8s-0.7-1.3-0.7-2.4v-5.5h1.6
		v5.6c0,1.1,0.4,1.6,1.1,1.6c0.3,0,0.6-0.1,0.8-0.4s0.3-0.7,0.3-1.2v-5.7H401.9z"/>
	<path fill="#FBD4D4" d="M407.3,138c0,0.8-0.2,1.4-0.6,1.8s-1,0.6-1.7,0.6c-0.7,0-1.4-0.1-1.9-0.4v-1.6c0.6,0.4,1.2,0.6,1.8,0.6
		c0.3,0,0.5-0.1,0.7-0.3s0.2-0.4,0.2-0.7c0-0.3-0.1-0.5-0.3-0.8s-0.5-0.5-0.9-0.8c-0.4-0.3-0.6-0.5-0.8-0.7s-0.3-0.5-0.4-0.8
		s-0.2-0.6-0.2-1c0-0.7,0.2-1.3,0.6-1.7s1-0.6,1.6-0.6c0.7,0,1.3,0.2,1.9,0.6l-0.5,1.3c-0.2-0.1-0.4-0.2-0.6-0.3s-0.4-0.1-0.7-0.1
		c-0.3,0-0.5,0.1-0.6,0.3s-0.2,0.4-0.2,0.7c0,0.3,0.1,0.5,0.2,0.8s0.5,0.5,0.9,0.7c0.6,0.4,0.9,0.8,1.2,1.1S407.3,137.5,407.3,138z"
		/>
	<path fill="#FBD4D4" d="M413.8,136c0,1.4-0.3,2.5-0.9,3.2s-1.4,1.1-2.5,1.1h-2.1v-8.6h2.3c1,0,1.8,0.4,2.3,1.1
		S413.8,134.7,413.8,136z M412.1,136c0-1.9-0.5-2.9-1.6-2.9h-0.6v5.8h0.5c0.6,0,1-0.2,1.3-0.7S412.1,137,412.1,136z"/>
</g>
</svg>
