<?xml version="1.0" encoding="utf-8"?>
<!-- Generator: Adobe Illustrator 19.2.0, SVG Export Plug-In . SVG Version: 6.00 Build 0)  -->
<!DOCTYPE svg PUBLIC "-//W3C//DTD SVG 1.1//EN" "http://www.w3.org/Graphics/SVG/1.1/DTD/svg11.dtd">
<svg version="1.1" id="Layer_1" xmlns="http://www.w3.org/2000/svg" xmlns:xlink="http://www.w3.org/1999/xlink" x="0px" y="0px"
	 viewBox="0 0 83.3 83.3" enable-background="new 0 0 83.3 83.3" xml:space="preserve">
<circle fill="#EF6283" cx="41.6" cy="41.6" r="41.6"/>
<path fill="#F7A6AC" d="M53.5,64.1H29.7c-2.7,0-4.9-2.2-4.9-4.9V23.4c0-2.7,2.2-4.9,4.9-4.9h23.8c2.7,0,4.9,2.2,4.9,4.9v35.9
	C58.4,62,56.2,64.1,53.5,64.1z"/>
<path fill="#F3889B" d="M44.4,30.8l-3,2.4l2.1,1.3l-3,3.3l1-2.4l-2.2-1.6l2-3.5c-2.6,0.1-5,1.1-6.8,2.8l5.3,5.3
	c0.6-0.4,1.2-0.6,2-0.6c0.8,0,1.6,0.3,2.2,0.8l5.3-5.3C47.8,32.1,46.2,31.2,44.4,30.8z"/>
<path fill="#EF6283" d="M30.7,41.3c0,2.9,1.1,5.5,3,7.5l5.3-5.3c-0.5-0.6-0.8-1.4-0.8-2.2c0-1.2,0.6-2.2,1.5-2.8l-5.3-5.3
	C32.1,35.2,30.7,38.1,30.7,41.3z"/>
<path fill="#EF6283" d="M49.1,33.4l-5.3,5.3c0.8,0.6,1.3,1.6,1.3,2.7c0,0.7-0.2,1.4-0.6,2l5.3,5.3c1.7-1.9,2.8-4.5,2.8-7.3
	C52.5,38.2,51.2,35.4,49.1,33.4z"/>
<path fill="#F3889B" d="M44.5,43.3c-0.6,0.9-1.7,1.5-2.8,1.5c-1.1,0-2-0.5-2.7-1.3l-5.3,5.3c2,2.1,4.8,3.4,7.9,3.4
	c3.2,0,6.1-1.4,8.1-3.6L44.5,43.3z"/>
<path fill="#FBD4D4" d="M41.9,37.6c-0.5,0-1,0.1-1.4,0.3l0,0l0,0c-1.4,0.6-2.4,1.9-2.4,3.5c0,2.1,1.7,3.7,3.7,3.7
	c2.1,0,3.7-1.7,3.7-3.7C45.6,39.3,43.9,37.6,41.9,37.6z M41.9,43.2c-1,0-1.9-0.8-1.9-1.9c0-1,0.8-1.9,1.9-1.9c1,0,1.9,0.8,1.9,1.9
	C43.7,42.4,42.9,43.2,41.9,43.2z"/>
</svg>
