<?xml version="1.0" encoding="utf-8"?>
<!-- Generator: Adobe Illustrator 19.2.0, SVG Export Plug-In . SVG Version: 6.00 Build 0)  -->
<!DOCTYPE svg PUBLIC "-//W3C//DTD SVG 1.1//EN" "http://www.w3.org/Graphics/SVG/1.1/DTD/svg11.dtd">
<svg version="1.1" id="Layer_1" xmlns="http://www.w3.org/2000/svg" xmlns:xlink="http://www.w3.org/1999/xlink" x="0px" y="0px"
	 viewBox="0 0 83.3 83.3" enable-background="new 0 0 83.3 83.3" xml:space="preserve">
<circle fill="#EF6283" cx="41.6" cy="41.6" r="41.6"/>
<g>
	<ellipse fill="#FBD4D4" cx="40.1" cy="35.4" rx="13.7" ry="6.9"/>
	<path fill="#F3889B" d="M42.2,12.4c2.4,1.7,2.3,5.2,2.3,5.2s-3.9,0.9-6.2-0.8S36,11.6,36,11.6S39.9,10.8,42.2,12.4z"/>
	<path fill="#F3889B" d="M37.8,18.4c2.2,0,3.9,2,3.9,2s-2,2-4.3,2c-2.2,0-3.9-2-3.9-2S35.6,18.4,37.8,18.4z"/>
	<g>
		<path fill="#F3889B" d="M39.4,42.8c-0.4,0-0.7-0.3-0.7-0.6c0-0.1-0.1-6.1,1.2-12.7c1.8-9,5.3-14.6,10.3-16.9
			c2.9-1.3,5.4-1.3,7.5,0c5.3,3.3,5.7,13.7,5.7,14.2c0,0.4-0.3,0.7-0.6,0.7c-0.4,0-0.7-0.3-0.7-0.6c0-0.1-0.4-10.2-5.1-13.1
			c-1.7-1.1-3.8-1-6.2,0.1c-11.1,4.9-10.8,28.1-10.8,28.3C40.1,42.5,39.8,42.8,39.4,42.8C39.4,42.8,39.4,42.8,39.4,42.8z"/>
	</g>
	<circle fill="#FBD4D4" cx="64.3" cy="26.9" r="3.5"/>
	<circle fill="#FBD4D4" cx="60.1" cy="31.2" r="3.5"/>
	<circle fill="#FBD4D4" cx="67.8" cy="31.2" r="3.5"/>
	<circle fill="#FBD4D4" cx="64.3" cy="34.7" r="3.5"/>
	<circle fill="#F3889B" cx="64.3" cy="31" r="2.9"/>
	<path fill="#F7A6AC" d="M26.5,35.9L26.5,35.9c0,0,0,0.1,0,0.2C26.5,36,26.5,36,26.5,35.9z"/>
	<path fill="#F7A6AC" d="M43.2,73.2c0.2-14.6,7.1-30.2,9.6-35.4c-2,2.6-6.9,4.4-12.7,4.4c-5.8,0-10.7-1.8-12.7-4.4
		c2.5,5.2,9.4,20.7,9.6,35.3C38.3,73.8,40.5,74.6,43.2,73.2z"/>
	<path fill="#F3889B" d="M37,73.1c0,0.9,0,1.8,0,2.7c0,0.6,1.4,1.1,3.1,1.1c1.7,0,3.1-0.5,3.1-1.1h0.1c0-0.9-0.1-1.8,0-2.6
		C40.5,74.6,38.3,73.8,37,73.1z"/>
	<path fill="#F7A6AC" d="M53.7,36.1c0-0.1,0.1-0.2,0.1-0.2h0C53.7,36,53.7,36,53.7,36.1z"/>
</g>
</svg>
