<?xml version="1.0" encoding="utf-8"?>
<!-- Generator: Adobe Illustrator 19.2.0, SVG Export Plug-In . SVG Version: 6.00 Build 0)  -->
<!DOCTYPE svg PUBLIC "-//W3C//DTD SVG 1.1//EN" "http://www.w3.org/Graphics/SVG/1.1/DTD/svg11.dtd">
<svg version="1.1" id="Layer_1" xmlns="http://www.w3.org/2000/svg" xmlns:xlink="http://www.w3.org/1999/xlink" x="0px" y="0px"
	 viewBox="0 0 83.3 83.3" enable-background="new 0 0 83.3 83.3" xml:space="preserve">
<circle fill="#EF6283" cx="41.6" cy="41.6" r="41.6"/>
<g>
	<ellipse fill="#F3889B" cx="42.8" cy="59" rx="17.5" ry="9.9"/>
	<ellipse fill="#F7A6AC" cx="42.1" cy="56.4" rx="24.5" ry="9.9"/>
	<path fill="#FBD4D4" d="M37.8,39.6v12.1h0c0.1,3.5,5.6,6.4,12.3,6.4c6.8,0,12.3-2.8,12.3-6.4h0V39.6H37.8z"/>
	<g>
		<path fill="#F3889B" d="M49.1,39.6h-2.4v18.2c0.8,0.1,1.6,0.2,2.4,0.2V39.6z"/>
		<path fill="#F3889B" d="M53.7,39.6h-2.4V58c0.8,0,1.6-0.1,2.4-0.2V39.6z"/>
		<path fill="#F3889B" d="M42.1,56.4c0.7,0.3,1.5,0.6,2.4,0.9V39.6h-2.4V56.4z"/>
		<path fill="#F3889B" d="M60.5,39.6v15.5c1.2-1,2-2.2,2-3.4h0V39.6H60.5z"/>
		<path fill="#F3889B" d="M58.3,39.6h-2.4v17.7c0.9-0.2,1.7-0.5,2.4-0.9V39.6z"/>
		<path fill="#F3889B" d="M39.8,39.6h-2v12.1h0c0,1.3,0.8,2.4,2,3.4V39.6z"/>
	</g>
	<ellipse fill="#F7A6AC" cx="50.2" cy="39.6" rx="12.4" ry="6.4"/>
	<path fill="#F1738E" d="M62.5,37.5c0-1.4-1.1-2.5-2.5-2.5c0,0,0,0-0.1,0c-0.4-3.1-3-5.5-6.2-5.5c-3.5,0-6.2,2.8-6.2,6.2
		c0,0,0,0,0,0c-0.1,0-0.2,0-0.4,0c-1.4,0-2.5,1.1-2.5,2.5c0,1.4,1.1,2.5,2.5,2.5c0.3,0.9,1,1.5,1.9,1.7c0.5,0.5,1.1,0.8,1.8,0.8
		c0.7,0,1.4-0.3,1.8-0.8c0,0,0.1,0,0.1,0c0.2,0,0.4,0,0.5-0.1c0.5,0.6,1.2,1,2,1c1.2,0,2.1-0.8,2.4-1.9c0.4,0.3,0.9,0.5,1.4,0.5
		c1.4,0,2.5-1.1,2.5-2.5c0-0.1,0-0.1,0-0.2C62.2,38.9,62.5,38.2,62.5,37.5z"/>
	<path fill="#F3889B" d="M56.2,34.4c0-1.4-1.1-2.5-2.5-2.5c0,0,0,0-0.1,0c-0.4-3.1-3-5.5-6.2-5.5c-3.5,0-6.2,2.8-6.2,6.2
		c0,0,0,0,0,0c-0.1,0-0.2,0-0.4,0c-1.4,0-2.5,1.1-2.5,2.5c0,1.4,1.1,2.5,2.5,2.5c0.3,0.9,1,1.5,1.9,1.7c0.5,0.5,1.1,0.8,1.8,0.8
		c0.7,0,1.4-0.3,1.8-0.8c0,0,0.1,0,0.1,0c0.2,0,0.4,0,0.5-0.1c0.5,0.6,1.2,1,2,1c1.2,0,2.1-0.8,2.4-1.9c0.4,0.3,0.9,0.5,1.4,0.5
		c1.4,0,2.5-1.1,2.5-2.5c0-0.1,0-0.1,0-0.2C55.8,35.8,56.2,35.2,56.2,34.4z"/>
	<path fill="#FBD4D4" d="M57,39.4c0-1.4-1.1-2.5-2.5-2.5c0,0,0,0-0.1,0c-0.4-3.1-3-5.5-6.2-5.5c-3.5,0-6.2,2.8-6.2,6.2c0,0,0,0,0,0
		c-0.1,0-0.2,0-0.4,0c-1.4,0-2.5,1.1-2.5,2.5c0,1.4,1.1,2.5,2.5,2.5c0.3,0.9,1,1.5,1.9,1.7c0.5,0.5,1.1,0.8,1.8,0.8
		c0.7,0,1.4-0.3,1.8-0.8c0,0,0.1,0,0.1,0c0.2,0,0.4,0,0.5-0.1c0.5,0.6,1.2,1,2,1c1.2,0,2.1-0.8,2.4-1.9c0.4,0.3,0.9,0.5,1.4,0.5
		c1.4,0,2.5-1.1,2.5-2.5c0-0.1,0-0.1,0-0.2C56.6,40.7,57,40.1,57,39.4z"/>
	<path fill="#EF6283" d="M47.1,35c-0.4,0-0.7,0.2-0.9,0.6c-0.1-0.3-0.5-0.6-0.9-0.6c-0.3,0-0.6,0.1-0.8,0.4c-0.2,0.3-0.2,0.7-0.1,1
		c0.2,0.4,0.6,1.2,1.7,2.2c1.1-1,1.6-1.8,1.7-2.2C48.2,35.8,47.8,35,47.1,35z"/>
	<path fill="none" stroke="#EF6283" stroke-width="0.6082" stroke-linecap="round" stroke-miterlimit="10" d="M43.7,30.5
		c0,0,2.5,1.1,2.5,4"/>
	<ellipse fill="#F3889B" cx="28.4" cy="30.2" rx="10.7" ry="3.2"/>
	<path fill="#F7A6AC" d="M22.2,42H22c-0.7,0-1.3-0.6-1.3-1.3V19.6c0-0.7,0.6-1.3,1.3-1.3h0.1c0.7,0,1.3,0.6,1.3,1.3v21.1
		C23.5,41.4,22.9,42,22.2,42z"/>
	<path fill="#F7A6AC" d="M26.1,40.6h-0.1c-0.7,0-1.3-0.6-1.3-1.3V18.2c0-0.7,0.6-1.3,1.3-1.3h0.1c0.7,0,1.3,0.6,1.3,1.3v21.1
		C27.4,40,26.8,40.6,26.1,40.6z"/>
	<path fill="#F7A6AC" d="M30.7,43.1h-0.1c-0.7,0-1.3-0.6-1.3-1.3V20.7c0-0.7,0.6-1.3,1.3-1.3h0.1c0.7,0,1.3,0.6,1.3,1.3v21.1
		C32,42.6,31.4,43.1,30.7,43.1z"/>
	<path fill="#F7A6AC" d="M32.9,39.7h-0.1c-0.7,0-1.3-0.6-1.3-1.3V17.2c0-0.7,0.6-1.3,1.3-1.3h0.1c0.7,0,1.3,0.6,1.3,1.3v21.1
		C34.2,39.1,33.7,39.7,32.9,39.7z"/>
	<path fill="#FBD4D4" d="M28.5,42.2h-0.1c-0.7,0-1.3-0.6-1.3-1.3V19.8c0-0.7,0.6-1.3,1.3-1.3h0.1c0.7,0,1.3,0.6,1.3,1.3v21.1
		C29.8,41.6,29.2,42.2,28.5,42.2z"/>
	<path fill="#FBD4D4" d="M31.6,45.5h-0.1c-0.7,0-1.3-0.6-1.3-1.3V23.1c0-0.7,0.6-1.3,1.3-1.3h0.1c0.7,0,1.3,0.6,1.3,1.3v21.1
		C32.9,45,32.3,45.5,31.6,45.5z"/>
	<path fill="#FBD4D4" d="M24.7,44.7h-0.1c-0.7,0-1.3-0.6-1.3-1.3V22.2c0-0.7,0.6-1.3,1.3-1.3h0.1c0.7,0,1.3,0.6,1.3,1.3v21.1
		C26,44.1,25.4,44.7,24.7,44.7z"/>
	<path fill="#FBD4D4" d="M21.4,38.8h-0.5c-0.6,0-1.1-0.5-1.1-1.1V22.1c0-0.6,0.5-1.1,1.1-1.1h0.5c0.6,0,1.1,0.5,1.1,1.1v15.6
		C22.5,38.3,22,38.8,21.4,38.8z"/>
	<path fill="#FBD4D4" d="M35.6,38H35c-0.6,0-1.1-0.5-1.1-1.1V22.3c0-0.6,0.5-1.1,1.1-1.1h0.5c0.6,0,1.1,0.5,1.1,1.1v14.6
		C36.7,37.5,36.2,38,35.6,38z"/>
	<path fill="#F7A6AC" d="M33.7,53.9c0.1-0.1,0.1-0.3,0.1-0.4l5.4-23.1h0c-0.3,1.7-5,3-10.7,3c-5.7,0-10.4-1.3-10.7-3h0L23.2,54h0.1
		c0.6,1,2.7,1.7,5.2,1.7S33,55,33.7,53.9L33.7,53.9L33.7,53.9z"/>
	<g>
		<path fill="#FBD4D4" d="M38.1,58.8L38.1,58.8c-0.9,0.7-2.2,0.6-2.9-0.2L22.7,43.6c-0.7-0.9-0.6-2.2,0.2-2.9l0,0
			c0.9-0.7,2.2-0.6,2.9,0.2l12.6,14.9C39.1,56.7,39,58,38.1,58.8z"/>
		<path fill="#FBD4D4" d="M41.3,56.1L41.3,56.1c-0.9,0.7-2.2,0.6-2.9-0.2L25.8,41c-0.7-0.9-0.6-2.2,0.2-2.9h0
			c0.9-0.7,2.2-0.6,2.9,0.2l12.6,14.9C42.3,54.1,42.2,55.4,41.3,56.1z"/>
		<path fill="#F3889B" d="M39.7,57.4L39.7,57.4c-0.9,0.7-2.2,0.6-2.9-0.2L24.2,42.3c-0.7-0.9-0.6-2.2,0.2-2.9h0
			c0.9-0.7,2.2-0.6,2.9,0.2L40,54.5C40.7,55.4,40.6,56.7,39.7,57.4z"/>
		<path fill="none" stroke="#F7A6AC" stroke-width="0.6082" stroke-linecap="round" stroke-miterlimit="10" d="M27.3,42.8
			c0.1,1.2,1,1.4,2.1,1.3c0.5-0.1,1-0.1,1.3,0.3c0.5,0.7-0.2,1.5-0.5,2.1c-0.2,0.4-0.3,0.9,0,1.3c0.2,0.3,0.6,0.4,1,0.4
			c0.4,0,0.7,0,1.1,0c1,0.3,1.2,1.4,0.9,2.2c-0.1,0.4-0.4,0.8-0.2,1.3c0.3,0.7,1.2,0.6,1.8,0.5c1.6-0.4,1.7,1.3,1.7,1.3"/>
	</g>
	<g>
		<path fill="#FBD4D4" d="M44.4,61.4h-1c-4,0-7.3-1.9-7.3-5.9v-1c0-4,3.3-7.3,7.3-7.3h1c4,0,7.3,3.3,7.3,7.3v1
			C51.7,59.5,48.4,61.4,44.4,61.4z"/>
		<path fill="#F3889B" d="M51.6,56.7H36.2c-0.7,0-1.3-0.6-1.3-1.3v-0.5c0-0.7,0.6-1.3,1.3-1.3h15.4c0.7,0,1.3,0.6,1.3,1.3v0.5
			C52.9,56.1,52.3,56.7,51.6,56.7z"/>
		<g>
			<circle fill="#F7A6AC" cx="42" cy="49" r="0.5"/>
			<circle fill="#F7A6AC" cx="44.1" cy="49" r="0.5"/>
			<circle fill="#F7A6AC" cx="45.8" cy="49" r="0.5"/>
			<circle fill="#F7A6AC" cx="44.9" cy="50.4" r="0.5"/>
			<circle fill="#F7A6AC" cx="43.2" cy="50.4" r="0.5"/>
		</g>
		<path fill="#F7A6AC" d="M36.2,53.6c0,0-0.6,1.3-0.5,2.1s3.3-1.9,7.7-2.1H36.2z"/>
	</g>
	<g>
		<ellipse fill="#F3889B" cx="27.6" cy="55" rx="6.2" ry="3.8"/>
		<path fill="#EF6283" d="M28.6,53.9c-0.1-0.2,0-0.4,0.1-0.5c0.1-0.1,0.1-0.1,0.2-0.2c0.1,0,0.2-0.1,0.2-0.2c0,0,0-0.1-0.1-0.1
			c-0.1,0-0.1,0-0.2,0c0,0-0.1,0.1-0.1,0.1c0,0,0,0,0,0c-0.1-0.3,0.4-0.3,0.6-0.3c0.4,0.1,0.7,0.8,0.5,1.2c-0.1,0.2-0.4,0.3-0.6,0.3
			C28.9,54.2,28.7,54.1,28.6,53.9z"/>
		<path fill="#EF6283" d="M23.8,53.8c-0.1-0.1,0-0.3,0.1-0.4c0.1-0.1,0.1-0.1,0.2-0.1c0,0,0.1-0.1,0.1-0.2c0,0,0-0.1,0-0.1
			c0,0-0.1,0-0.1,0c0,0-0.1,0.1-0.1,0.1c0,0,0,0,0,0c-0.1-0.2,0.3-0.3,0.5-0.2c0.3,0.1,0.6,0.6,0.4,0.9C24.6,54,24.4,54,24.2,54
			C24.1,54,23.9,54,23.8,53.8z"/>
		<path fill="#EF6283" d="M26.3,53.7c-0.1-0.1,0-0.2,0.1-0.2c0,0,0.1-0.1,0.1-0.1c0,0,0.1,0,0.1-0.1c0,0,0,0,0,0c0,0-0.1,0-0.1,0
			c0,0,0,0-0.1,0c0,0,0,0,0,0c0-0.1,0.2-0.2,0.3-0.1c0.2,0.1,0.3,0.3,0.2,0.5c-0.1,0.1-0.2,0.1-0.3,0.1
			C26.5,53.8,26.4,53.7,26.3,53.7z"/>
		<path fill="#EF6283" d="M28.1,56.1c0.1-0.1,0-0.3-0.1-0.4c-0.1-0.1-0.1-0.1-0.2-0.1c0,0-0.1-0.1-0.1-0.2c0,0,0-0.1,0-0.1
			c0,0,0.1,0,0.1,0c0,0,0.1,0.1,0.1,0.1c0,0,0,0,0,0c0.1-0.2-0.3-0.3-0.5-0.2c-0.3,0.1-0.6,0.6-0.4,0.9c0.1,0.2,0.3,0.2,0.5,0.2
			C27.8,56.2,28,56.2,28.1,56.1z"/>
		<path fill="#EF6283" d="M29.5,57.3c0.1-0.1,0-0.2-0.1-0.3c0,0-0.1-0.1-0.1-0.1c0,0-0.1-0.1-0.1-0.1c0,0,0,0,0,0c0,0,0.1,0,0.1,0
			c0,0,0,0,0.1,0c0,0,0,0,0,0c0-0.2-0.2-0.2-0.3-0.1c-0.2,0.1-0.4,0.4-0.2,0.6c0.1,0.1,0.2,0.1,0.3,0.1
			C29.3,57.4,29.4,57.4,29.5,57.3z"/>
		<path fill="#EF6283" d="M25.5,56.8c0.1-0.2,0-0.4-0.1-0.6c-0.1-0.1-0.2-0.1-0.2-0.2c-0.1-0.1-0.2-0.1-0.2-0.2c0,0,0-0.1,0.1-0.1
			c0.1,0,0.2,0,0.2,0c0,0,0.1,0.1,0.1,0.1c0,0,0,0,0-0.1c0.1-0.4-0.5-0.4-0.7-0.3c-0.5,0.1-0.8,0.9-0.6,1.3c0.2,0.2,0.5,0.3,0.7,0.3
			C25.1,57.1,25.4,57,25.5,56.8z"/>
		<path fill="#EF6283" d="M31.7,55.4c0.1-0.1,0-0.2-0.1-0.3c0,0-0.1-0.1-0.1-0.1c0,0-0.1-0.1-0.1-0.1c0,0,0,0,0,0c0,0,0.1,0,0.1,0
			c0,0,0.1,0.1,0.1,0.1c0,0,0,0,0,0c0-0.2-0.3-0.2-0.4-0.2c-0.2,0.1-0.4,0.5-0.3,0.7c0.1,0.1,0.2,0.2,0.4,0.2
			C31.5,55.5,31.7,55.5,31.7,55.4z"/>
	</g>
	<g>
		<ellipse fill="#F3889B" cx="34.9" cy="60.1" rx="6.2" ry="3.8"/>
		<path fill="#EF6283" d="M35.9,59.1c-0.1-0.2,0-0.4,0.1-0.5c0.1-0.1,0.1-0.1,0.2-0.2c0.1,0,0.2-0.1,0.2-0.2c0,0,0-0.1-0.1-0.1
			c-0.1,0-0.1,0-0.2,0c0,0-0.1,0.1-0.1,0.1c0,0,0,0,0,0c-0.1-0.3,0.4-0.3,0.6-0.3c0.4,0.1,0.7,0.8,0.5,1.2c-0.1,0.2-0.4,0.3-0.6,0.3
			C36.2,59.3,36,59.2,35.9,59.1z"/>
		<path fill="#EF6283" d="M31.1,59c-0.1-0.1,0-0.3,0.1-0.4c0.1-0.1,0.1-0.1,0.2-0.1c0,0,0.1-0.1,0.1-0.2c0,0,0-0.1,0-0.1
			c0,0-0.1,0-0.1,0c0,0-0.1,0.1-0.1,0.1c0,0,0,0,0,0C31.1,58,31.5,58,31.6,58c0.3,0.1,0.6,0.6,0.4,0.9c-0.1,0.2-0.3,0.2-0.5,0.2
			C31.4,59.1,31.2,59.1,31.1,59z"/>
		<path fill="#EF6283" d="M33.6,58.8c-0.1-0.1,0-0.2,0.1-0.2c0,0,0.1-0.1,0.1-0.1c0,0,0.1,0,0.1-0.1c0,0,0,0,0,0c0,0-0.1,0-0.1,0
			c0,0,0,0-0.1,0c0,0,0,0,0,0c0-0.1,0.2-0.2,0.3-0.1c0.2,0.1,0.3,0.3,0.2,0.5c-0.1,0.1-0.2,0.1-0.3,0.1
			C33.8,58.9,33.7,58.9,33.6,58.8z"/>
		<path fill="#EF6283" d="M35.4,61.2c0.1-0.1,0-0.3-0.1-0.4c-0.1-0.1-0.1-0.1-0.2-0.1c0,0-0.1-0.1-0.1-0.2c0,0,0-0.1,0-0.1
			c0,0,0.1,0,0.1,0c0,0,0.1,0.1,0.1,0.1c0,0,0,0,0,0c0.1-0.2-0.3-0.3-0.5-0.2c-0.3,0.1-0.6,0.6-0.4,0.9c0.1,0.2,0.3,0.2,0.5,0.2
			C35.1,61.4,35.3,61.3,35.4,61.2z"/>
		<path fill="#EF6283" d="M36.8,62.4c0.1-0.1,0-0.2-0.1-0.3c0,0-0.1-0.1-0.1-0.1c0,0-0.1-0.1-0.1-0.1c0,0,0,0,0,0c0,0,0.1,0,0.1,0
			c0,0,0,0,0.1,0c0,0,0,0,0,0c0-0.2-0.2-0.2-0.3-0.1c-0.2,0.1-0.4,0.4-0.2,0.6c0.1,0.1,0.2,0.1,0.3,0.1
			C36.6,62.6,36.7,62.5,36.8,62.4z"/>
		<path fill="#EF6283" d="M32.8,61.9c0.1-0.2,0-0.4-0.1-0.6c-0.1-0.1-0.2-0.1-0.2-0.2c-0.1-0.1-0.2-0.1-0.2-0.2c0,0,0-0.1,0.1-0.1
			c0.1,0,0.2,0,0.2,0c0,0,0.1,0.1,0.1,0.1c0,0,0,0,0-0.1c0.1-0.4-0.5-0.4-0.7-0.3c-0.5,0.1-0.8,0.9-0.6,1.3c0.2,0.2,0.5,0.3,0.7,0.3
			C32.4,62.2,32.7,62.1,32.8,61.9z"/>
		<path fill="#EF6283" d="M39,60.5c0.1-0.1,0-0.2-0.1-0.3c0,0-0.1-0.1-0.1-0.1c0,0-0.1-0.1-0.1-0.1c0,0,0,0,0,0c0,0,0.1,0,0.1,0
			c0,0,0.1,0.1,0.1,0.1c0,0,0,0,0,0c0-0.2-0.3-0.2-0.4-0.2c-0.2,0.1-0.4,0.5-0.3,0.7c0.1,0.1,0.2,0.2,0.4,0.2
			C38.8,60.6,39,60.6,39,60.5z"/>
	</g>
</g>
</svg>
