<?xml version="1.0" encoding="utf-8"?>
<!-- Generator: Adobe Illustrator 19.2.0, SVG Export Plug-In . SVG Version: 6.00 Build 0)  -->
<!DOCTYPE svg PUBLIC "-//W3C//DTD SVG 1.1//EN" "http://www.w3.org/Graphics/SVG/1.1/DTD/svg11.dtd">
<svg version="1.1" id="Layer_1" xmlns="http://www.w3.org/2000/svg" xmlns:xlink="http://www.w3.org/1999/xlink" x="0px" y="0px"
	 viewBox="0 0 83.3 83.3" enable-background="new 0 0 83.3 83.3" xml:space="preserve">
<circle fill="#EF6283" cx="41.6" cy="41.6" r="41.6"/>
<g>
	
		<circle fill="none" stroke="#FBD4D4" stroke-width="2.34" stroke-linecap="round" stroke-linejoin="round" stroke-dasharray="0,6.1245" cx="40.4" cy="39.4" r="23.4"/>
</g>
<path fill="#F7A6AC" d="M44.9,57.9c-2,0-3.7,1.2-4.4,2.9c-0.8-1.7-2.5-2.9-4.4-2.9c-1.5,0-3,0.7-3.9,2c-1,1.4-1.2,3.4-0.6,4.9
	c0.8,2.2,3.1,6.3,8.9,11.2c5.8-4.9,8-9,8.9-11.2C50.5,61.6,48.4,57.9,44.9,57.9z"/>
<polygon fill="#FBD4D4" points="46.9,74.6 43,68.6 46.9,63.3 50.9,68.6 "/>
</svg>
