<?xml version="1.0" encoding="utf-8"?>
<!-- Generator: Adobe Illustrator 19.2.0, SVG Export Plug-In . SVG Version: 6.00 Build 0)  -->
<!DOCTYPE svg PUBLIC "-//W3C//DTD SVG 1.1//EN" "http://www.w3.org/Graphics/SVG/1.1/DTD/svg11.dtd">
<svg version="1.1" id="Layer_1" xmlns="http://www.w3.org/2000/svg" xmlns:xlink="http://www.w3.org/1999/xlink" x="0px" y="0px"
	 viewBox="0 0 83.3 83.3" enable-background="new 0 0 83.3 83.3" xml:space="preserve">
<circle fill="#EF6283" cx="41.6" cy="41.6" r="41.6"/>
<g>
	<rect x="36.2" y="28.9" fill="#F3889B" width="6.9" height="8.5"/>
	<path fill="#F7A6AC" d="M51.5,68.2H27.9c-3,0-5.4-2.4-5.4-5.4V39.3c0-3,2.4-5.4,5.4-5.4h23.6c3,0,5.4,2.4,5.4,5.4v23.6
		C56.9,65.8,54.4,68.2,51.5,68.2z"/>
	<polygon fill="#F7A6AC" points="38.7,24.3 49.9,12 57.9,24.1 40.2,28.1 	"/>
	<path fill="#F3889B" d="M62.7,18c0-1.2-0.6-2.3-1.5-2.9c0-0.2,0.1-0.4,0.1-0.6c0-1.9-1.6-3.5-3.5-3.5c-1,0-1.8,0.4-2.5,1
		c-0.6-1.1-1.8-1.9-3.1-1.9c-1.9,0-3.5,1.6-3.5,3.5c0,1.7,1.2,3.1,2.9,3.5c-0.1,0.3-0.1,0.6-0.1,0.9c0,1.4,0.9,2.7,2.1,3.2
		c0,0.1,0,0.2,0,0.3c0,1.9,1.6,3.5,3.5,3.5c1.9,0,3.5-1.6,3.5-3.5c0-0.1,0-0.2,0-0.2C61.8,20.7,62.7,19.5,62.7,18z"/>
	<circle fill="#FBD4D4" cx="39.7" cy="26.5" r="6.4"/>
	<path fill="#F3889B" d="M46.1,56.9H33.3c-3,0-5.4-2.4-5.4-5.4v-6.4c0-3,2.4-5.4,5.4-5.4h12.8c3,0,5.4,2.4,5.4,5.4v6.4
		C51.4,54.5,49,56.9,46.1,56.9z"/>
	<path fill="#FBD4D4" d="M40.7,48.3h-2.1c-3,0-5.4,2.4-5.4,5.4v2.1c0,2.9,2.3,5.2,5.1,5.4c0.2,1-0.7,1.6-1.5,2
		c-0.3,0.1-0.6,0.2-0.8,0.3c0,0,0,0,0,0l0,0c-0.4,0.2-0.6,0.5-0.6,0.7c0,0.8,1.9,1.4,4.2,1.4c2.3,0,4.2-0.6,4.2-1.4
		c0-0.3-0.2-0.5-0.6-0.7l0,0c0,0,0,0,0,0c-0.2-0.1-0.5-0.2-0.8-0.3c-0.7-0.3-1.6-1-1.5-2c2.8-0.1,5.1-2.5,5.1-5.4v-2.1
		C46.1,50.7,43.7,48.3,40.7,48.3z"/>
	<ellipse fill="#FBD4D4" cx="39.7" cy="44.5" rx="4.6" ry="6.8"/>
	<ellipse fill="#F7A6AC" cx="39.7" cy="51" rx="6.8" ry="3.6"/>
	<ellipse fill="#F3889B" cx="39.7" cy="51" rx="4.2" ry="2.2"/>
	<path fill="#EF6283" d="M48.5,43.7h-2.6c-0.2,0-0.3-0.2-0.3-0.3v-0.1c0-0.2,0.2-0.3,0.3-0.3h2.6c0.2,0,0.3,0.2,0.3,0.3v0.1
		C48.9,43.6,48.7,43.7,48.5,43.7z"/>
</g>
</svg>
