<?xml version="1.0" encoding="utf-8"?>
<!-- Generator: Adobe Illustrator 19.2.0, SVG Export Plug-In . SVG Version: 6.00 Build 0)  -->
<!DOCTYPE svg PUBLIC "-//W3C//DTD SVG 1.1//EN" "http://www.w3.org/Graphics/SVG/1.1/DTD/svg11.dtd">
<svg version="1.1" id="Layer_1" xmlns="http://www.w3.org/2000/svg" xmlns:xlink="http://www.w3.org/1999/xlink" x="0px" y="0px"
	 viewBox="0 0 94.8 86.9" enable-background="new 0 0 94.8 86.9" xml:space="preserve">
<circle fill="#F3889B" cx="47.5" cy="43.4" r="43.4"/>
<path fill="#FBD4D4" d="M34.1,17C26.6,26.5,14.3,31.7,5,34.5c-0.6,2.9-0.9,5.9-0.9,9c0,24,19.4,43.4,43.4,43.4s43.4-19.4,43.4-43.4
	C51.1,41.8,34.1,17,34.1,17z"/>
<g>
	<path fill="none" stroke="#FBD4D4" stroke-width="1.92" stroke-linecap="round" stroke-miterlimit="10" d="M39.3,13.5
		c0,0,17.5,18.2,39.9,19.9"/>
	<path fill="none" stroke="#FBD4D4" stroke-width="1.92" stroke-linecap="round" stroke-miterlimit="10" d="M44.8,6.2
		c0,0,12.3,14.1,28.9,16"/>
	<path fill="none" stroke="#FBD4D4" stroke-width="1.92" stroke-linecap="round" stroke-miterlimit="10" d="M15.8,23.5
		c0,0,7.4-2.9,11.5-9.3"/>
</g>
<g>
	
		<polyline fill="none" stroke="#F3889B" stroke-width="2.88" stroke-linecap="round" stroke-linejoin="round" stroke-miterlimit="10" points="
		40.8,44.6 33.1,33.5 25.4,44.6 	"/>
	
		<polyline fill="none" stroke="#F3889B" stroke-width="2.88" stroke-linecap="round" stroke-linejoin="round" stroke-miterlimit="10" points="
		70.3,44.6 62.7,33.5 55,44.6 	"/>
</g>
<path fill="#F3889B" d="M16.3,53.8c-2.4,0-4.4,1.4-5.3,3.4c-0.9-2-2.9-3.4-5.3-3.4c-1.8,0-3.5,0.8-4.6,2.3c-1.2,1.6-1.4,4-0.7,5.9
	c1,2.6,3.7,7.5,10.6,13.4c6.9-5.9,9.6-10.7,10.6-13.4C23,58.2,20.5,53.8,16.3,53.8z"/>
<path fill="#F3889B" d="M89.1,53.8c-2.4,0-4.4,1.4-5.3,3.4c-0.9-2-2.9-3.4-5.3-3.4c-1.8,0-3.5,0.8-4.6,2.3c-1.2,1.6-1.4,4-0.7,5.9
	c1,2.6,3.7,7.5,10.6,13.4c6.9-5.9,9.6-10.7,10.6-13.4C95.8,58.2,93.3,53.8,89.1,53.8z"/>
<ellipse fill="#F3889B" cx="47.9" cy="64.6" rx="6.2" ry="9.3"/>
</svg>
