<?xml version="1.0" encoding="utf-8"?>
<!-- Generator: Adobe Illustrator 19.2.0, SVG Export Plug-In . SVG Version: 6.00 Build 0)  -->
<!DOCTYPE svg PUBLIC "-//W3C//DTD SVG 1.1//EN" "http://www.w3.org/Graphics/SVG/1.1/DTD/svg11.dtd">
<svg version="1.1" id="Layer_1" xmlns="http://www.w3.org/2000/svg" xmlns:xlink="http://www.w3.org/1999/xlink" x="0px" y="0px"
	 viewBox="0 0 86.9 86.9" enable-background="new 0 0 86.9 86.9" xml:space="preserve">
<circle fill="#F3889B" cx="43.4" cy="43.4" r="43.4"/>
<path fill="#FBD4D4" d="M30,17c-7.5,9.5-19.8,14.8-29.1,17.5c-0.6,2.9-0.9,5.9-0.9,9c0,24,19.4,43.4,43.4,43.4s43.4-19.4,43.4-43.4
	C47,41.8,30,17,30,17z"/>
<g>
	<path fill="none" stroke="#FBD4D4" stroke-width="1.92" stroke-linecap="round" stroke-miterlimit="10" d="M35.2,13.5
		c0,0,17.5,18.2,39.9,19.9"/>
	<path fill="none" stroke="#FBD4D4" stroke-width="1.92" stroke-linecap="round" stroke-miterlimit="10" d="M40.7,6.2
		c0,0,12.3,14.1,28.9,16"/>
	<path fill="none" stroke="#FBD4D4" stroke-width="1.92" stroke-linecap="round" stroke-miterlimit="10" d="M11.7,23.5
		c0,0,7.4-2.9,11.5-9.3"/>
</g>
<g>
	<path fill="#F3889B" d="M43.4,71.7C43.4,71.7,43.4,71.7,43.4,71.7c-1.9,0-3.8-0.7-5.5-2.1c-3.1-2.6-4.4-7.4-3.3-12.7
		c0.2-1,1.2-1.7,2.3-1.5c1,0.2,1.7,1.3,1.5,2.3c-0.8,3.8,0,7.2,1.9,8.9c0.4,0.3,1.5,1.2,3,1.2c0,0,0,0,0,0c1.3,0,2.2-0.7,2.7-0.9
		c2.1-1.5,3.1-5.1,2.5-9.3c-0.1-1.1,0.6-2,1.7-2.2c1.1-0.1,2,0.6,2.2,1.7c0.8,5.7-0.8,10.7-4.2,13C47.7,70.5,45.9,71.7,43.4,71.7z"
		/>
</g>
<g>
	<g>
		<path fill="#F3889B" d="M32.7,47.7C32.7,47.7,32.7,47.7,32.7,47.7c-1.5,0-3-0.6-4.3-1.7c-2.5-2-3.5-5.9-2.6-10
			c0.2-0.8,1-1.4,1.8-1.2c0.8,0.2,1.4,1,1.2,1.8c-0.6,3,0,5.7,1.5,7c0.3,0.3,1.2,1,2.4,1c0,0,0,0,0,0c1,0,1.8-0.5,2.1-0.7
			c1.7-1.2,2.5-4.1,2-7.4c-0.1-0.8,0.5-1.6,1.3-1.7c0.8-0.1,1.6,0.5,1.7,1.3c0.6,4.5-0.7,8.5-3.3,10.3
			C36.1,46.7,34.7,47.7,32.7,47.7z"/>
	</g>
	<g>
		<path fill="#F3889B" d="M54.1,47.7C54.1,47.7,54.1,47.7,54.1,47.7c-1.5,0-3-0.6-4.3-1.7c-2.5-2-3.5-5.9-2.6-10
			c0.2-0.8,1-1.4,1.8-1.2c0.8,0.2,1.4,1,1.2,1.8c-0.6,3,0,5.7,1.5,7c0.3,0.3,1.2,1,2.4,1c0,0,0,0,0,0c1,0,1.8-0.5,2.1-0.7
			c1.7-1.2,2.5-4.1,2-7.4c-0.1-0.8,0.5-1.6,1.3-1.7c0.8-0.1,1.6,0.5,1.7,1.3c0.6,4.5-0.7,8.5-3.3,10.3
			C57.5,46.7,56.1,47.7,54.1,47.7z"/>
	</g>
</g>
<g>
	<circle fill="#F3889B" cx="16.6" cy="57.1" r="7.3"/>
	<circle fill="#F3889B" cx="70.2" cy="57.1" r="7.3"/>
</g>
</svg>
