<?xml version="1.0" encoding="utf-8"?>
<!-- Generator: Adobe Illustrator 19.2.0, SVG Export Plug-In . SVG Version: 6.00 Build 0)  -->
<!DOCTYPE svg PUBLIC "-//W3C//DTD SVG 1.1//EN" "http://www.w3.org/Graphics/SVG/1.1/DTD/svg11.dtd">
<svg version="1.1" id="Layer_1" xmlns="http://www.w3.org/2000/svg" xmlns:xlink="http://www.w3.org/1999/xlink" x="0px" y="0px"
	 viewBox="0 0 83.3 83.3" enable-background="new 0 0 83.3 83.3" xml:space="preserve">
<circle fill="#EF6283" cx="41.6" cy="41.6" r="41.6"/>
<g>
	<path fill="#F3889B" d="M22.9,51.7l-1.6,1.7c0,0,15.6,16,18.9,16.4C40.2,69.7,37.4,54.1,22.9,51.7z"/>
	<path fill="#F3889B" d="M58.3,51.7l1.6,1.7c0,0-15.6,16-18.9,16.4C41,69.7,43.8,54.1,58.3,51.7z"/>
	<path fill="#FBD4D4" d="M57,23.4H24.1c-2.8,0-5.2,2.3-5.2,5.2v4.9c0,0,21.2,12.4,43.2,0v-4.9C62.1,25.7,59.8,23.4,57,23.4z"/>
	<path fill="#F7A6AC" d="M19,33.5V45c0,3,0.9,5.9,2.3,8.3c2.9,0.2,6.3,1.4,9.4,3.6c2.2,1.5,3.8,3.3,5.1,5.5c1.1,1.9,1.5,3.7,2.1,5.6
		c0.7,2.2,3.7,2.5,4.8,0.6c0.8-1.3,1.1-3.5,1.8-4.8c1.5-2.8,3.3-5,6-6.8c3.1-2.2,6.4-3.4,9.3-3.6c1.5-2.4,2.3-5.3,2.3-8.3V33.5
		C40.2,45.8,19,33.5,19,33.5z"/>
	<ellipse fill="#F3889B" cx="40.6" cy="27.5" rx="21.6" ry="8"/>
	<g>
		<circle fill="#FBD4D4" cx="25.4" cy="41.6" r="1.6"/>
		<circle fill="#FBD4D4" cx="23.5" cy="43.5" r="1.6"/>
		<circle fill="#FBD4D4" cx="26.9" cy="43.5" r="1.6"/>
		<circle fill="#FBD4D4" cx="25.4" cy="45.1" r="1.6"/>
		<circle fill="#F3889B" cx="25.4" cy="43.5" r="1.3"/>
		<path fill="#EF6283" d="M23.4,39.6c0.5,0.8,0,1.9,0,1.9s-1.1-0.2-1.6-1c-0.5-0.8,0-1.9,0-1.9S23,38.8,23.4,39.6z"/>
		<path fill="#EF6283" d="M21.5,40.9c0.6,0.3,0.8,1.1,0.8,1.1s-0.8,0.3-1.4,0.1c-0.6-0.3-0.8-1.1-0.8-1.1S20.9,40.6,21.5,40.9z"/>
	</g>
	<g>
		
			<ellipse transform="matrix(0.6027 -0.7979 0.7979 0.6027 -19.5688 51.9858)" fill="#FBD4D4" cx="42.4" cy="45.6" rx="1.6" ry="1.6"/>
		<ellipse transform="matrix(0.6027 -0.7979 0.7979 0.6027 -17.657 50.6206)" fill="#FBD4D4" cx="42" cy="43" rx="1.6" ry="1.6"/>
		
			<ellipse transform="matrix(0.6027 -0.7979 0.7979 0.6027 -20.6193 50.0663)" fill="#FBD4D4" cx="40" cy="45.7" rx="1.6" ry="1.6"/>
		
			<ellipse transform="matrix(0.6027 -0.7979 0.7979 0.6027 -19.0025 48.9591)" fill="#FBD4D4" cx="39.7" cy="43.6" rx="1.6" ry="1.6"/>
		<ellipse transform="matrix(0.6027 -0.7979 0.7979 0.6027 -19.268 50.3782)" fill="#F3889B" cx="41" cy="44.5" rx="1.3" ry="1.3"/>
		<path fill="#EF6283" d="M45.2,45.3c-0.9-0.1-1.6-1.1-1.6-1.1s0.9-0.8,1.8-0.7c0.9,0.1,1.6,1.1,1.6,1.1S46.1,45.4,45.2,45.3z"/>
		<path fill="#EF6283" d="M45.3,43c-0.6,0.3-1.4,0-1.4,0s0.2-0.8,0.8-1.1c0.6-0.3,1.4,0,1.4,0S45.9,42.7,45.3,43z"/>
	</g>
	<g>
		
			<ellipse transform="matrix(0.2457 -0.9694 0.9694 0.2457 -24.3919 83.3212)" fill="#FBD4D4" cx="41.3" cy="57.3" rx="1.6" ry="1.6"/>
		
			<ellipse transform="matrix(0.2457 -0.9694 0.9694 0.2457 -27.4299 82.2032)" fill="#FBD4D4" cx="39.1" cy="58.7" rx="1.6" ry="1.6"/>
		
			<ellipse transform="matrix(0.2457 -0.9694 0.9694 0.2457 -25.7628 86.0068)" fill="#FBD4D4" cx="42.4" cy="59.6" rx="1.6" ry="1.6"/>
		
			<ellipse transform="matrix(0.2457 -0.9694 0.9694 0.2457 -28.2781 85.0245)" fill="#FBD4D4" cx="40.5" cy="60.7" rx="1.6" ry="1.6"/>
		
			<ellipse transform="matrix(0.2457 -0.9694 0.9694 0.2457 -26.4559 84.2259)" fill="#F3889B" cx="40.9" cy="59.1" rx="1.3" ry="1.3"/>
		<path fill="#EF6283" d="M39.9,54.9c0.2,0.9-0.4,1.9-0.4,1.9s-1.1-0.5-1.3-1.4s0.4-1.9,0.4-1.9S39.7,54,39.9,54.9z"/>
		<path fill="#EF6283" d="M37.8,55.7c0.5,0.4,0.5,1.3,0.5,1.3s-0.8,0.1-1.4-0.3c-0.5-0.4-0.5-1.3-0.5-1.3S37.3,55.3,37.8,55.7z"/>
	</g>
	<g>
		<ellipse transform="matrix(0.3878 -0.9217 0.9217 0.3878 -7.4253 79.2865)" fill="#FBD4D4" cx="56" cy="45.2" rx="1.6" ry="1.6"/>
		
			<ellipse transform="matrix(0.3878 -0.9217 0.9217 0.3878 -5.8327 76.8435)" fill="#FBD4D4" cx="54.9" cy="42.8" rx="1.6" ry="1.6"/>
		
			<ellipse transform="matrix(0.3878 -0.9217 0.9217 0.3878 -9.508 77.5427)" fill="#FBD4D4" cx="53.6" cy="45.9" rx="1.6" ry="1.6"/>
		
			<ellipse transform="matrix(0.3878 -0.9217 0.9217 0.3878 -8.1396 75.5315)" fill="#FBD4D4" cx="52.8" cy="43.9" rx="1.6" ry="1.6"/>
		
			<ellipse transform="matrix(0.3878 -0.9217 0.9217 0.3878 -7.8047 77.2921)" fill="#F3889B" cx="54.3" cy="44.5" rx="1.3" ry="1.3"/>
		<path fill="#EF6283" d="M58.6,44.2c-0.9,0.1-1.8-0.7-1.8-0.7s0.7-1,1.6-1.1s1.8,0.7,1.8,0.7S59.5,44.1,58.6,44.2z"/>
		<path fill="#EF6283" d="M58.1,42c-0.5,0.4-1.3,0.3-1.3,0.3s0-0.8,0.5-1.3c0.5-0.4,1.3-0.3,1.3-0.3S58.6,41.6,58.1,42z"/>
	</g>
	<g>
		<ellipse transform="matrix(0.9556 -0.2948 0.2948 0.9556 -13.1255 11.928)" fill="#FBD4D4" cx="33" cy="49.5" rx="1.2" ry="1.2"/>
		
			<ellipse transform="matrix(0.9556 -0.2948 0.2948 0.9556 -12.9441 11.3749)" fill="#FBD4D4" cx="31.3" cy="48.6" rx="1.2" ry="1.2"/>
		<ellipse transform="matrix(0.9556 -0.2948 0.2948 0.9556 -13.6168 11.699)" fill="#FBD4D4" cx="32" cy="51" rx="1.2" ry="1.2"/>
		
			<ellipse transform="matrix(0.9556 -0.2948 0.2948 0.9556 -13.4565 11.2407)" fill="#FBD4D4" cx="30.6" cy="50.3" rx="1.2" ry="1.2"/>
		<ellipse transform="matrix(0.9556 -0.2948 0.2948 0.9556 -13.3013 11.563)" fill="#F3889B" cx="31.7" cy="49.9" rx="1" ry="1"/>
		<path fill="#EF6283" d="M34,47.7c-0.5,0.5-1.3,0.4-1.3,0.4s-0.1-0.9,0.4-1.4c0.5-0.5,1.3-0.4,1.3-0.4S34.5,47.2,34,47.7z"/>
		<path fill="#EF6283" d="M32.7,46.6c-0.1,0.5-0.6,0.8-0.6,0.8s-0.4-0.5-0.3-1c0.1-0.5,0.6-0.8,0.6-0.8S32.8,46.1,32.7,46.6z"/>
	</g>
	<g>
		
			<ellipse transform="matrix(0.9525 -0.3045 0.3045 0.9525 -13.6958 17.1442)" fill="#FBD4D4" cx="48.1" cy="52.5" rx="1.2" ry="1.2"/>
		
			<ellipse transform="matrix(0.9525 -0.3045 0.3045 0.9525 -13.1212 17.3229)" fill="#FBD4D4" cx="49" cy="50.7" rx="1.2" ry="1.2"/>
		
			<ellipse transform="matrix(0.9525 -0.3045 0.3045 0.9525 -13.4668 16.6326)" fill="#FBD4D4" cx="46.6" cy="51.5" rx="1.2" ry="1.2"/>
		<ellipse transform="matrix(0.9525 -0.3045 0.3045 0.9525 -12.9905 16.791)" fill="#FBD4D4" cx="47.3" cy="50" rx="1.2" ry="1.2"/>
		<ellipse transform="matrix(0.9525 -0.3045 0.3045 0.9525 -13.3212 16.9566)" fill="#F3889B" cx="47.7" cy="51.2" rx="1" ry="1"/>
		<path fill="#EF6283" d="M49.9,53.4c-0.5-0.5-0.5-1.3-0.5-1.3s0.9-0.1,1.4,0.4c0.5,0.5,0.5,1.3,0.5,1.3S50.4,53.9,49.9,53.4z"/>
		<path fill="#EF6283" d="M51,52.1c-0.5-0.1-0.8-0.6-0.8-0.6s0.5-0.4,1-0.4c0.5,0.1,0.8,0.6,0.8,0.6S51.5,52.2,51,52.1z"/>
	</g>
</g>
</svg>
